# Blender v2.80 (sub 75) OBJ File: 'Soffbord 2.blend'
# www.blender.org
mtllib soffbord.mtl
o converted_out.003
v 0.625000 0.375000 -0.500000
v 0.625000 0.375000 0.500000
v 0.625000 0.500000 0.500000
v 0.625000 0.500000 -0.500000
v -1.625000 0.375000 -0.500000
v -1.625000 0.375000 0.500000
v -1.625000 0.500000 0.500000
v -1.625000 0.500000 -0.500000
v 0.500000 -0.500000 -0.500000
v 0.500000 -0.500000 -0.375000
v 0.500000 0.250000 -0.375000
v 0.375000 -0.500000 -0.500000
v 0.375000 -0.500000 -0.375000
v 0.375000 0.250000 -0.375000
v -1.375000 -0.500000 0.375000
v -1.375000 -0.500000 0.500000
v -1.375000 0.250000 0.500000
v -1.375000 0.250000 0.375000
v -1.500000 -0.500000 0.375000
v -1.500000 -0.500000 0.500000
v -1.500000 0.250000 0.500000
v -1.500000 0.250000 0.375000
v 0.500000 -0.500000 0.375000
v 0.500000 -0.500000 0.500000
v 0.500000 0.250000 0.500000
v 0.500000 0.250000 0.375000
v 0.375000 -0.500000 0.375000
v 0.375000 -0.500000 0.500000
v 0.375000 0.250000 0.500000
v 0.375000 0.250000 0.375000
v -1.375000 -0.500000 -0.500000
v -1.375000 -0.500000 -0.375000
v -1.375000 0.250000 -0.375000
v -1.375000 0.250000 -0.500000
v -1.500000 -0.500000 -0.500000
v -1.500000 -0.500000 -0.375000
v -1.500000 0.250000 -0.375000
v -1.500000 0.250000 -0.500000
v 0.375000 0.250000 -0.500000
v 0.375000 0.250000 0.500000
v 0.375000 0.375000 0.500000
v 0.375000 0.375000 -0.500000
v -1.375000 0.250000 -0.500000
v -1.375000 0.250000 0.500000
v -1.375000 0.375000 0.500000
v -1.375000 0.375000 -0.500000
v 0.500000 0.250000 -0.500000
v 0.500000 0.250000 0.500000
v 0.500000 0.375000 0.500000
v 0.500000 0.375000 -0.500000
v 0.375000 0.250000 -0.500000
v 0.375000 0.250000 0.500000
v 0.375000 0.375000 0.500000
v 0.375000 0.375000 -0.500000
v -1.375000 0.250000 -0.500000
v -1.375000 0.375000 -0.500000
v -1.500000 0.250000 -0.500000
v -1.500000 0.250000 0.500000
v -1.500000 0.375000 0.500000
v -1.500000 0.375000 -0.500000
vt 0.714286 0.846154
vt 0.714286 0.538462
vt 0.750000 0.538462
vt 0.750000 0.846154
vt 0.714286 0.846154
vt 0.714286 0.538462
vt 0.750000 0.538462
vt 0.750000 0.846154
vt 0.857143 0.000000
vt 0.892857 0.000000
vt 0.892857 0.692308
vt 0.857143 0.692308
vt 0.892857 0.000000
vt 0.928571 0.000000
vt 0.928571 0.692308
vt 0.892857 0.692308
vt 0.678571 0.846154
vt 0.714286 0.846154
vt 0.714286 0.884615
vt 0.678571 0.884615
vt 0.285714 0.000000
vt 0.571428 0.000000
vt 0.571428 0.692308
vt 0.285714 0.692308
vt 0.078125 0.687500
vt 0.109375 0.687500
vt 0.109375 0.921875
vt 0.078125 0.921875
vt 0.821429 0.538462
vt 0.821429 0.846154
vt 0.785714 0.846154
vt 0.785714 0.538462
vt 0.111607 0.689303
vt 0.111607 0.920072
vt 0.075893 0.920072
vt 0.075893 0.689303
vt 0.357143 0.692308
vt 0.357143 0.923077
vt 0.321429 0.923077
vt 0.321429 0.692308
vt 0.571428 0.923077
vt 0.571428 0.884615
vt 0.607143 0.884615
vt 0.607143 0.923077
vt 0.000000 0.000000
vt 0.285714 0.000000
vt 0.285714 0.692308
vt 0.000000 0.692308
vt 0.928571 0.923077
vt 0.892857 0.923077
vt 0.892857 0.692308
vt 0.928571 0.692308
vt 0.250000 0.923077
vt 0.214286 0.923077
vt 0.214286 0.692308
vt 0.250000 0.692308
vt 0.250000 0.692308
vt 0.250000 0.923077
vt 0.214286 0.923077
vt 0.214286 0.692308
vt 0.500000 0.692308
vt 0.500000 0.923077
vt 0.464286 0.923077
vt 0.464286 0.692308
vt 0.571428 0.923077
vt 0.571428 0.884615
vt 0.607143 0.884615
vt 0.607143 0.923077
vt 0.571428 0.884615
vt 0.571428 0.846154
vt 0.607143 0.846154
vt 0.607143 0.884615
vt 0.392857 0.923077
vt 0.357143 0.923077
vt 0.357143 0.692308
vt 0.392857 0.692308
vt 0.178571 0.923077
vt 0.142857 0.923077
vt 0.142857 0.692308
vt 0.178571 0.692308
vt 0.321429 0.692308
vt 0.321429 0.923077
vt 0.285714 0.923077
vt 0.285714 0.692308
vt 0.285714 0.692308
vt 0.285714 0.923077
vt 0.250000 0.923077
vt 0.250000 0.692308
vt 0.571428 0.923077
vt 0.571428 0.884615
vt 0.607143 0.884615
vt 0.607143 0.923077
vt 0.607143 0.884615
vt 0.607143 0.846154
vt 0.642857 0.846154
vt 0.642857 0.884615
vt 0.892857 0.923077
vt 0.857143 0.923077
vt 0.857143 0.692308
vt 0.892857 0.692308
vt 0.111607 0.920072
vt 0.075893 0.920072
vt 0.075893 0.689303
vt 0.111607 0.689303
vt 0.111607 0.689303
vt 0.111607 0.920072
vt 0.075893 0.920072
vt 0.075893 0.689303
vt 0.111607 0.689303
vt 0.111607 0.920072
vt 0.075893 0.920072
vt 0.075893 0.689303
vt 0.571428 0.923077
vt 0.571428 0.884615
vt 0.607143 0.884615
vt 0.607143 0.923077
vt 0.642857 0.884615
vt 0.642857 0.846154
vt 0.678571 0.846154
vt 0.678571 0.884615
vt 0.642857 0.846154
vt 0.642857 0.538462
vt 0.678571 0.538462
vt 0.678571 0.846154
vt 0.035714 1.000000
vt 0.035714 0.961538
vt 0.035714 0.730769
vt 0.035714 0.692308
vt 0.071429 0.692308
vt 0.071429 0.730769
vt 0.071429 0.961538
vt 0.071429 1.000000
vt 0.964286 0.000000
vt 1.000000 0.000000
vt 1.000000 0.538462
vt 0.964286 0.538462
vt 0.964286 0.000000
vt 1.000000 0.000000
vt 1.000000 0.538462
vt 0.964286 0.538462
vt 0.678571 0.846154
vt 0.678571 0.538462
vt 0.714286 0.538462
vt 0.714286 0.846154
vt 0.607143 0.846154
vt 0.607143 0.538462
vt 0.642857 0.538462
vt 0.642857 0.846154
vt 0.750000 0.846154
vt 0.750000 0.884615
vt 0.714286 0.884615
vt 0.714286 0.846154
vt 0.071429 0.923077
vt 0.071429 0.692308
vt 0.107143 0.692308
vt 0.107143 0.923077
vt 0.000000 1.000000
vt 0.000000 0.692308
vt 0.035714 0.692308
vt 0.035714 1.000000
vt 0.678571 0.846154
vt 0.678571 0.538462
vt 0.714286 0.538462
vt 0.714286 0.846154
vt 0.821429 0.846154
vt 0.821429 0.884615
vt 0.785714 0.884615
vt 0.785714 0.846154
vt 0.785714 0.884615
vt 0.750000 0.884615
vt 0.750000 0.846154
vt 0.785714 0.846154
vt 0.571428 0.000000
vt 0.857142 0.000000
vt 0.857143 0.538462
vt 0.571428 0.538462
vn -1.0000 0.0000 0.0000
vn 0.0000 -0.0000 1.0000
vn 0.0000 -1.0000 -0.0000
vn 0.0000 0.0000 -1.0000
vn 0.0000 1.0000 0.0000
vn 1.0000 0.0000 0.0000
usemtl none.003
s off
f 1/1/1 2/2/1 3/3/1 4/4/1
f 5/5/1 6/6/1 7/7/1 8/8/1
f 1/9/2 4/10/2 8/11/2 5/12/2
f 2/13/2 3/14/2 7/15/2 6/16/2
f 51/17/2 47/18/2 50/19/2 54/20/2
f 4/21/3 3/22/3 7/23/3 8/24/3
f 9/25/4 12/26/4 51/27/4 47/28/4
f 51/29/5 52/30/5 48/31/5 47/32/5
f 51/33/1 12/34/1 13/35/1 14/36/1
f 10/37/2 11/38/2 14/39/2 13/40/2
f 9/41/3 10/42/3 13/43/3 12/44/3
f 2/45/5 1/46/5 5/47/5 6/48/5
f 15/49/1 16/50/1 17/51/1 18/52/1
f 19/53/1 20/54/1 21/55/1 22/56/1
f 15/57/2 18/58/2 22/59/2 19/60/2
f 16/61/2 17/62/2 21/63/2 20/64/2
f 15/65/3 16/66/3 20/67/3 19/68/3
f 18/69/3 17/70/3 21/71/3 22/72/3
f 23/73/1 24/74/1 25/75/1 26/76/1
f 27/77/1 28/78/1 29/79/1 30/80/1
f 23/81/2 26/82/2 30/83/2 27/84/2
f 24/85/2 25/86/2 29/87/2 28/88/2
f 23/89/3 24/90/3 28/91/3 27/92/3
f 26/93/3 25/94/3 29/95/3 30/96/3
f 31/97/1 32/98/1 33/99/1 34/100/1
f 35/101/1 36/102/1 37/103/1 38/104/1
f 31/105/2 34/106/2 38/107/2 35/108/2
f 32/109/2 33/110/2 37/111/2 36/112/2
f 31/113/3 32/114/3 36/115/3 35/116/3
f 34/117/3 33/118/3 37/119/3 38/120/3
f 39/121/1 40/122/1 41/123/1 42/124/1
f 43/125/3 33/126/3 18/127/3 44/128/3 58/129/3 22/130/3 37/131/3 57/132/3
f 39/133/2 42/134/2 46/135/2 43/136/2
f 40/137/2 41/138/2 45/139/2 44/140/2
f 47/141/1 48/142/1 49/143/1 50/144/1
f 51/145/1 52/146/1 53/147/1 54/148/1
f 48/149/2 49/150/2 53/151/2 52/152/2
f 11/153/6 10/154/6 9/155/6 47/156/6
f 50/157/3 49/158/3 53/159/3 54/160/3
f 57/161/1 58/162/1 59/163/1 60/164/1
f 55/165/2 56/166/2 60/167/2 57/168/2
f 45/169/2 59/170/2 58/171/2 44/172/2
f 40/173/5 39/174/5 43/175/5 44/176/5
