<?xml version="1.0" encoding="UTF-8" standalone="no"?>
<svg
   xmlns:dc="http://purl.org/dc/elements/1.1/"
   xmlns:cc="http://creativecommons.org/ns#"
   xmlns:rdf="http://www.w3.org/1999/02/22-rdf-syntax-ns#"
   xmlns:svg="http://www.w3.org/2000/svg"
   xmlns="http://www.w3.org/2000/svg"
   xmlns:sodipodi="http://sodipodi.sourceforge.net/DTD/sodipodi-0.dtd"
   xmlns:inkscape="http://www.inkscape.org/namespaces/inkscape"
   version="1.0"
   width="127mm"
   height="95.110001mm"
   id="svg188"
   sodipodi:docname="idle1.svg"
   inkscape:version="0.92.4 (5da689c313, 2019-01-14)">
  <metadata
     id="metadata192">
    <rdf:RDF>
      <cc:Work
         rdf:about="">
        <dc:format>image/svg+xml</dc:format>
        <dc:type
           rdf:resource="http://purl.org/dc/dcmitype/StillImage" />
      </cc:Work>
    </rdf:RDF>
  </metadata>
  <sodipodi:namedview
     pagecolor="#ffffff"
     bordercolor="#666666"
     borderopacity="1"
     objecttolerance="10"
     gridtolerance="10"
     guidetolerance="10"
     inkscape:pageopacity="0"
     inkscape:pageshadow="2"
     inkscape:window-width="1920"
     inkscape:window-height="986"
     id="namedview190"
     showgrid="false"
     inkscape:zoom="1.6720152"
     inkscape:cx="237.03145"
     inkscape:cy="177.44469"
     inkscape:window-x="-11"
     inkscape:window-y="-11"
     inkscape:window-maximized="1"
     inkscape:current-layer="svg188" />
  <defs
     id="defs14">
    <clipPath
       clipPathUnits="userSpaceOnUse"
       id="clipEmfPath1">
      <path
         d="M 0,0 L 479.5954,0 L 479.5954,359.85642 L 0,359.85642 z"
         id="path10" />
    </clipPath>
    <pattern
       id="EMFhbasepattern"
       patternUnits="userSpaceOnUse"
       width="6"
       height="6"
       x="0"
       y="0" />
  </defs>
  <g
     id="g11992"
     transform="matrix(0.25,0,0,0.25,179.9975,134.79867)">
    <path
       inkscape:connector-curvature="0"
       id="path18"
       d="M 213.9201,131.84628 V 109.1854 l -7.55363,22.66088 z"
       style="fill:#c00000;fill-opacity:1;fill-rule:evenodd;stroke:#ffc000;stroke-linejoin:round;stroke-opacity:1" />
    <path
       inkscape:connector-curvature="0"
       id="path22"
       d="M 229.02735,131.84628 V 109.1854 l 7.55363,22.66088 z"
       style="fill:#c00000;fill-opacity:1;fill-rule:evenodd;stroke:#ffc000;stroke-linejoin:round;stroke-opacity:1" />
    <path
       inkscape:connector-curvature="0"
       id="path26"
       d="m 233.01399,165.29806 -7.38377,-8.58276 v 0 c -4.08655,-4.746 -3.54701,-11.89996 1.19899,-15.98651 4.74599,-4.07657 11.89996,-3.53702 15.97652,1.20898 0,0 0,0 0,0 v 0 l 7.38377,8.58275 z"
       style="fill:#c00000;fill-opacity:1;fill-rule:evenodd;stroke:#ffc000;stroke-width:2;stroke-linejoin:round;stroke-miterlimit:4;stroke-dasharray:none;stroke-opacity:1" />
    <path
       inkscape:connector-curvature="0"
       id="path30"
       d="m 230.41618,198.89971 c -0.75936,-1.16901 -0.43963,-2.7277 0.7194,-3.49705 0,0 0,0 0,0 v 0 l 8.4129,-5.53533 v 0 c 1.15902,-0.76935 2.71771,-0.43963 3.48706,0.71939 0,0 0,0 0,0 v 0 l 13.85831,21.03226 v 0 c 0.75935,1.16901 0.43962,2.7277 -0.7194,3.48706 0,0 0,0 0,0 v 0 l -8.4129,5.54532 v 0 c -1.15902,0.75936 -2.71771,0.43963 -3.48706,-0.71939 0,0 0,0 0,0 z"
       style="fill:#c00000;fill-opacity:1;fill-rule:evenodd;stroke:#e5b70d;stroke-width:1.33333337;stroke-linejoin:round;stroke-miterlimit:4;stroke-dasharray:none;stroke-opacity:1" />
    <path
       inkscape:connector-curvature="0"
       id="path34"
       d="m 240.3578,180.92487 v 13.22884 0 c 0,7.30384 -8.45287,13.21885 -18.88407,13.21885 -10.42121,0 -18.88407,-5.91501 -18.88407,-13.21885 0,0 0,0 0,0 v 0 -13.22884 z"
       style="fill:#262626;fill-opacity:1;fill-rule:evenodd;stroke:#7f7f7f;stroke-width:1.33333337;stroke-linejoin:round;stroke-miterlimit:4;stroke-dasharray:none;stroke-opacity:1" />
    <path
       inkscape:connector-curvature="0"
       id="path38"
       d="m 238.44941,238.55625 c -0.19984,1.37884 0.74936,2.65776 2.1282,2.85759 0,0 0,0 0,0 v 0 l 9.9616,1.46876 v 0 c 1.37883,0.19984 2.65775,-0.74936 2.85759,-2.1282 0,0 0,0 0,0 v 0 l 3.6669,-24.91898 v 0 c 0.20983,-1.37884 -0.74937,-2.65776 -2.11821,-2.85759 0,0 0,0 0,0 v 0 l -9.9616,-1.46876 v 0 c -1.37883,-0.19983 -2.65775,0.74937 -2.85759,2.12821 0,0 0,0 0,0 z"
       style="fill:#c00000;fill-opacity:1;fill-rule:evenodd;stroke:#e5b70d;stroke-width:1.33333337;stroke-miterlimit:4;stroke-dasharray:none;stroke-opacity:1" />
    <path
       inkscape:connector-curvature="0"
       id="path42"
       d="m 238.07972,235.69866 c 0,-1.03912 0.84928,-1.8884 1.8984,-1.8884 0,0 0,0 0,0 v 0 h 18.87407 v 0 c 1.04912,0 1.88841,0.84928 1.88841,1.8884 0,0 0,0 0,0 v 0 7.56362 0 c 0,1.03913 -0.83929,1.88841 -1.88841,1.88841 0,0 0,0 0,0 v 0 h -18.87407 v 0 c -1.04912,0 -1.8984,-0.84928 -1.8984,-1.88841 0,0 0,0 0,0 z"
       style="fill:#c00000;fill-opacity:1;fill-rule:evenodd;stroke:#e5b70d;stroke-width:1.33333337;stroke-linejoin:round;stroke-miterlimit:4;stroke-dasharray:none;stroke-opacity:1" />
    <path
       inkscape:connector-curvature="0"
       id="path46"
       d="m 233.33372,152.37895 c 0.46961,-0.92921 1.60864,-1.2989 2.53786,-0.8193 0,0 0,0 0,0 v 0 l 13.63849,6.97411 v 0 c 0.92922,0.4796 1.29891,1.61864 0.8293,2.54785 0,0 0,0 0,0 v 0 l -3.44709,6.72433 v 0 c -0.4696,0.92922 -1.60864,1.2989 -2.53786,0.81931 0,0 0,0 0,0 v 0 l -13.63849,-6.97412 v 0 c -0.92922,-0.47959 -1.2989,-1.61863 -0.8293,-2.54785 0,0 0,0 0,0 z"
       style="fill:#c00000;fill-opacity:1;fill-rule:evenodd;stroke:none" />
    <path
       inkscape:connector-curvature="0"
       id="path48"
       d="m 232.74422,152.07921 0.24979,-0.37968 c 0.02,-0.03 0.04,-0.06 0.0699,-0.0899 l 0.24979,-0.26977 c 0.03,-0.04 0.0799,-0.0799 0.1199,-0.10991 l 0.30974,-0.19983 c 0.03,-0.01 0.06,-0.03 0.0899,-0.04 l 0.32972,-0.14988 c 0.04,-0.02 0.0799,-0.04 0.12989,-0.05 l 0.34971,-0.0799 c 0.04,-0.01 0.0799,-0.01 0.12989,-0.01 l 0.36969,-0.01 c 0.05,0 0.0899,0 0.13988,0.01 l 0.35969,0.0699 c 0.04,0.01 0.0799,0.02 0.1199,0.03 l 0.3597,0.13988 13.69844,7.00409 0.37968,0.24979 c 0.03,0.02 0.0699,0.05 0.0999,0.0699 l 0.26977,0.25978 c 0.03,0.03 0.06,0.0699 0.0799,0.0999 l 0.20983,0.29974 c 0.03,0.04 0.05,0.0899 0.0699,0.12989 l 0.13988,0.33972 c 0.02,0.03 0.03,0.0699 0.03,0.1099 l 0.0799,0.34971 c 0.01,0.04 0.02,0.0799 0.02,0.12989 l 0.01,0.36969 c 0,0.04 0,0.0799 -0.01,0.1199 l -0.06,0.35969 c -0.01,0.05 -0.02,0.0899 -0.03,0.13989 l -0.13989,0.35969 -3.47706,6.78428 -0.24979,0.37968 c -0.02,0.03 -0.04,0.0599 -0.0699,0.0899 l -0.24979,0.26978 c -0.03,0.04 -0.0699,0.0699 -0.1199,0.0999 l -0.29975,0.19983 c -0.03,0.02 -0.06,0.04 -0.0999,0.05 l -0.33972,0.14987 c -0.04,0.02 -0.0799,0.04 -0.1199,0.04 l -0.3497,0.0799 c -0.04,0.01 -0.0799,0.02 -0.12989,0.02 l -0.36969,0.01 c -0.05,0 -0.0899,0 -0.13988,-0.01 l -0.3597,-0.07 c -0.04,-0.01 -0.0799,-0.02 -0.1199,-0.03 l -0.35969,-0.13988 -13.69845,-7.00409 -0.37968,-0.24979 c -0.04,-0.02 -0.0699,-0.05 -0.0999,-0.0799 l -0.26978,-0.25978 c -0.03,-0.02 -0.0599,-0.06 -0.0799,-0.0899 l -0.20982,-0.29975 c -0.03,-0.04 -0.05,-0.0899 -0.0699,-0.12989 l -0.13988,-0.33971 c -0.02,-0.04 -0.03,-0.0699 -0.04,-0.10991 l -0.0799,-0.3497 c -0.01,-0.04 -0.01,-0.0799 -0.01,-0.12989 l -0.01,-0.36969 c 0,-0.04 0,-0.0799 0.01,-0.1199 l 0.06,-0.3597 c 0,-0.05 0.02,-0.0899 0.03,-0.13988 l 0.13988,-0.3597 z m -2.22812,7.27386 -0.13988,0.3597 0.03,-0.13988 -0.06,0.35969 0.01,-0.1199 0.01,0.36969 -0.02,-0.12989 0.0799,0.34971 -0.03,-0.10991 0.13988,0.33971 -0.0699,-0.12989 0.20982,0.29975 -0.0799,-0.0999 0.26977,0.25978 -0.0999,-0.0699 0.25978,0.16986 13.57854,6.94414 0.3597,0.13988 -0.1199,-0.03 0.3597,0.0699 -0.13988,-0.01 0.36968,-0.01 -0.12989,0.01 0.34971,-0.0799 -0.1199,0.04 0.33971,-0.14987 -0.1099,0.0599 0.29974,-0.19983 -0.1099,0.0999 0.24978,-0.26977 -0.0699,0.0899 0.16986,-0.25978 3.41712,-6.66437 0.13988,-0.3597 -0.03,0.13988 0.0599,-0.3597 -0.01,0.1199 -0.01,-0.36969 0.01,0.1299 -0.0799,-0.34971 0.04,0.10991 -0.13989,-0.33972 0.0699,0.12989 -0.20983,-0.29974 0.0799,0.0899 -0.26977,-0.25978 0.0999,0.0799 -0.25978,-0.16985 -13.57855,-6.94415 -0.35969,-0.13988 0.11989,0.03 -0.35969,-0.0699 0.13988,0.01 -0.36969,0.01 0.12989,-0.02 -0.3497,0.0799 0.12989,-0.04 -0.32972,0.14988 0.0899,-0.05 -0.30974,0.19983 0.1199,-0.0999 -0.24979,0.26978 0.0699,-0.0899 -0.16985,0.25978 z"
       style="fill:#e5b70d;fill-opacity:1;fill-rule:nonzero;stroke:#e5b70d;stroke-width:0.00999157px;stroke-linecap:butt;stroke-linejoin:round;stroke-miterlimit:4;stroke-dasharray:none;stroke-opacity:1" />
    <path
       inkscape:connector-curvature="0"
       id="path50"
       d="m 202.58966,152.58878 c 0,-3.13736 2.53786,-5.67521 5.67521,-5.67521 0,0 0,0 0,0 v 0 h 26.4277 v 0 c 3.12737,0 5.66523,2.53785 5.66523,5.67521 0,0 0,0 0,0 v 0 22.67087 0 c 0,3.12736 -2.53786,5.66522 -5.66523,5.66522 0,0 0,0 0,0 v 0 h -26.4277 v 0 c -3.13735,0 -5.67521,-2.53786 -5.67521,-5.66522 0,0 0,0 0,0 z"
       style="fill:#c00000;fill-opacity:1;fill-rule:evenodd;stroke:#984807;stroke-width:1.33333337;stroke-linejoin:round;stroke-miterlimit:4;stroke-dasharray:none;stroke-opacity:1" />
    <path
       inkscape:connector-curvature="0"
       id="path54"
       d="m 210.14329,137.47153 c 0,-7.30383 5.07571,-13.22884 11.33044,-13.22884 0,0 0,0 0,0 v 0 c 6.26471,0 11.33044,5.92501 11.33044,13.22884 v 0 c 0,7.30384 -5.06573,13.22884 -11.33044,13.22884 0,0 0,0 0,0 v 0 c -6.25473,0 -11.33044,-5.925 -11.33044,-13.22884 0,0 0,0 0,0 z"
       style="fill:#c00000;fill-opacity:1;fill-rule:evenodd;stroke:none" />
    <path
       inkscape:connector-curvature="0"
       id="path56"
       d="m 209.48384,137.50151 0.06,-1.39882 0.16986,-1.37884 0.28975,-1.32888 0.39967,-1.26893 0.49957,-1.20898 0.58951,-1.13904 0.67942,-1.06909 0.76936,-0.98917 0.84928,-0.90923 0.91922,-0.80932 0.98917,-0.69941 1.04911,-0.59949 1.09908,-0.46961 1.15902,-0.3497 1.19899,-0.21982 1.22896,-0.0799 1.23896,0.0699 1.20898,0.20982 1.15902,0.34971 1.10906,0.45961 1.05911,0.5895 0.98916,0.69941 0.92922,0.79933 0.84928,0.90923 0.76935,0.98917 0.68942,1.0591 0.5995,1.14904 0.49958,1.20898 0.39966,1.25893 0.29975,1.32888 0.17984,1.37884 0.06,1.40881 -0.06,1.39882 -0.16985,1.37884 -0.28976,1.32888 -0.39966,1.25893 -0.49958,1.21897 -0.57951,1.13904 -0.69941,1.07909 -0.75936,0.97918 -0.83929,0.90923 -0.92922,0.80932 -0.97917,0.69941 -1.04912,0.5895 -1.11905,0.47959 -1.13904,0.34971 -1.20898,0.21981 -1.23896,0.0799 -1.23895,-0.0699 -1.189,-0.20983 -1.16901,-0.3497 -1.10907,-0.45962 -1.04911,-0.59949 -0.99916,-0.68942 -0.91922,-0.79932 -0.85928,-0.90924 -0.76935,-0.98916 -0.68942,-1.0691 -0.59949,-1.13904 -0.49958,-1.20898 -0.39966,-1.26893 -0.29975,-1.31888 -0.17985,-1.37884 z m 1.38883,1.23895 0.15986,1.25894 0.25979,1.20898 0.35969,1.15902 0.45961,1.10907 0.53955,1.03912 0.60949,0.96918 0.68941,0.88925 0.75936,0.80932 0.81931,0.71939 0.87926,0.61948 0.91922,0.52955 0.97918,0.41965 1.00915,0.30974 1.03912,0.18984 1.07909,0.0699 1.08908,-0.06 1.04912,-0.17985 1.01914,-0.30974 0.97917,-0.40965 0.92922,-0.51957 0.87925,-0.61947 0.82931,-0.7094 0.75935,-0.80932 0.68942,-0.89924 0.62947,-0.95919 0.53955,-1.03913 0.45961,-1.10906 0.3597,-1.14903 0.26977,-1.20898 0.16985,-1.25894 0.06,-1.2989 -0.06,-1.28891 -0.15986,-1.25894 -0.25978,-1.21897 -0.3597,-1.14903 -0.45961,-1.10907 -0.52955,-1.02913 -0.61948,-0.97917 -0.68942,-0.88925 -0.74937,-0.80932 -0.8293,-0.71939 -0.86926,-0.62947 -0.91923,-0.51957 -0.98916,-0.41964 -0.99916,-0.30974 -1.05911,-0.18984 -1.07909,-0.0699 -1.07909,0.06 -1.03912,0.17985 -1.02913,0.30974 -0.96918,0.39966 -0.92922,0.52955 -0.88925,0.61948 -0.81931,0.7094 -0.76935,0.80932 -0.68942,0.88925 -0.61948,0.96918 -0.54953,1.03912 -0.45961,1.09908 -0.3597,1.15902 -0.26977,1.20898 -0.16986,1.25894 -0.06,1.2989 z"
       style="fill:#ffc000;fill-opacity:1;fill-rule:nonzero;stroke:#ffc000;stroke-width:0.00999157px;stroke-linecap:butt;stroke-linejoin:round;stroke-miterlimit:4;stroke-dasharray:none;stroke-opacity:1" />
    <path
       inkscape:connector-curvature="0"
       id="path168"
       d="m 213.9201,182.22378 3.77681,22.66088 h 7.55363 l 3.77681,-22.66088 z"
       style="fill:#c00000;fill-opacity:1;fill-rule:evenodd;stroke:#e5b70d;stroke-width:1.33333337;stroke-linejoin:round;stroke-miterlimit:4;stroke-dasharray:none;stroke-opacity:1" />
    <path
       inkscape:connector-curvature="0"
       id="path58"
       d="m 201.21082,205.57408 c -0.67943,-1.21897 -0.2398,-2.74768 0.97917,-3.42711 0,0 0,0 0,0 v 0 l 8.80258,-4.88588 v 0 c 1.20898,-0.67943 2.74768,-0.2398 3.41712,0.97918 0,0 0,0 0,0 v 0 l 12.22968,22.02142 v 0 c 0.67943,1.21897 0.2398,2.74768 -0.97918,3.42711 0,0 0,0 0,0 v 0 l -8.80257,4.88587 v 0 c -1.21897,0.67943 -2.74768,0.2398 -3.41712,-0.97917 0,0 0,0 0,0 z"
       style="fill:#c00000;fill-opacity:1;fill-rule:evenodd;stroke:#e5b70d;stroke-width:1.33333337;stroke-linejoin:round;stroke-miterlimit:4;stroke-dasharray:none;stroke-opacity:1" />
    <path
       inkscape:connector-curvature="0"
       id="path62"
       d="m 206.73616,246.10988 c -0.19983,1.37884 0.74937,2.65776 2.1282,2.85759 0,0 0,0 0,0 v 0 l 9.9616,1.46876 v 0 c 1.37884,0.19983 2.65776,-0.74937 2.85759,-2.1282 0,0 0,0 0,0 v 0 l 3.66691,-24.91898 v 0 c 0.20982,-1.37884 -0.73938,-2.65776 -2.11822,-2.85759 0,0 0,0 0,0 v 0 l -9.96159,-1.46876 v 0 c -1.37884,-0.19983 -2.65776,0.74937 -2.85759,2.1282 0,0 0,0 0,0 z"
       style="fill:#c00000;fill-opacity:1;fill-rule:evenodd;stroke:#e5b70d;stroke-width:1.33333337;stroke-linejoin:round;stroke-miterlimit:4;stroke-dasharray:none;stroke-opacity:1" />
    <path
       inkscape:connector-curvature="0"
       id="path66"
       d="m 206.36647,243.25229 c 0,-1.03912 0.84928,-1.8884 1.8984,-1.8884 0,0 0,0 0,0 v 0 h 18.87408 v 0 c 1.04911,0 1.8884,0.84928 1.8884,1.8884 0,0 0,0 0,0 v 0 7.56362 0 c 0,1.03912 -0.83929,1.88841 -1.8884,1.88841 0,0 0,0 0,0 v 0 h -18.87408 v 0 c -1.04912,0 -1.8984,-0.84929 -1.8984,-1.88841 0,0 0,0 0,0 z"
       style="fill:#c00000;fill-opacity:1;fill-rule:evenodd;stroke:#e5b70d;stroke-width:1.33333337;stroke-linejoin:round;stroke-miterlimit:4;stroke-dasharray:none;stroke-opacity:1" />
    <path
       inkscape:connector-curvature="0"
       id="path122"
       d="m 225.04072,133.17516 c 0.05,0.72938 1.52871,1.21897 3.29722,1.09907 v 0 c 1.7685,-0.1199 3.15733,-0.80932 3.10737,-1.5387 0,0 0,0 0,0 v 0 c -0.04,-0.72939 -1.51871,-1.21897 -3.28722,-1.09907 0,0 0,0 0,0 v 0 c -1.76851,0.11989 -3.15734,0.80931 -3.11737,1.5387 0,0 0,0 0,0 z"
       style="fill:#92d050;fill-opacity:1;fill-rule:evenodd;stroke:none" />
    <path
       inkscape:connector-curvature="0"
       id="path124"
       d="m 225.70016,133.30505 -0.02,-0.31973 0.0799,0.25978 -0.12989,-0.2398 0.20982,0.2398 -0.13988,-0.12989 0.30974,0.19983 -0.10991,-0.05 0.40966,0.16986 0.39966,0.0999 0.4696,0.0599 1.17901,0.02 0.54954,-0.0699 0.53954,-0.10991 0.48959,-0.13988 0.38967,-0.16986 -0.0899,0.04 0.36969,-0.21982 -0.0999,0.0799 0.27976,-0.24978 -0.10991,0.12989 0.16986,-0.25979 -0.0999,0.2398 0.05,-0.26977 0.02,0.31973 -0.0799,-0.25978 0.1199,0.22981 -0.19983,-0.2398 0.14987,0.12989 -0.30973,-0.19983 0.1099,0.0599 -0.40965,-0.16986 -0.39966,-0.0999 -0.46961,-0.0699 -1.179,-0.01 -0.54954,0.0699 -0.53955,0.10991 -0.48958,0.13988 -0.38967,0.16986 -0.29975,0.17985 0.10991,-0.0799 -0.27977,0.24979 0.10991,-0.12989 -0.16986,0.25978 0.0999,-0.23979 z m -1.25894,-0.51956 c 0.02,-0.0799 0.05,-0.16986 0.0999,-0.2398 l 0.16986,-0.25978 c 0.03,-0.05 0.0699,-0.0899 0.1099,-0.12989 l 0.27977,-0.24979 c 0.03,-0.03 0.0699,-0.0599 0.1099,-0.0799 l 0.45962,-0.25978 0.52955,-0.20983 0.5895,-0.17985 0.65945,-0.12989 0.72938,-0.0699 1.33887,0.02 0.62947,0.0999 0.55953,0.15987 0.40965,0.16985 c 0.04,0.01 0.0699,0.03 0.10991,0.05 l 0.30974,0.19983 c 0.05,0.04 0.0999,0.0899 0.14987,0.13988 l 0.19983,0.2398 c 0.05,0.0699 0.0999,0.13988 0.1199,0.22981 l 0.0799,0.25978 c 0.03,0.0999 0.04,0.20982 0.02,0.31973 l -0.05,0.26977 c -0.02,0.0799 -0.05,0.16986 -0.0999,0.2398 l -0.16985,0.25978 c -0.03,0.05 -0.0699,0.0899 -0.10991,0.12989 l -0.27976,0.24979 c -0.03,0.03 -0.0699,0.0599 -0.0999,0.0799 l -0.36969,0.21982 c -0.03,0.01 -0.0599,0.03 -0.0899,0.04 l -0.52955,0.20983 -0.58951,0.17984 -0.65944,0.1299 -0.72939,0.0699 -1.33887,-0.03 -0.62947,-0.0899 -0.55952,-0.15987 -0.40966,-0.16985 c -0.04,-0.01 -0.0699,-0.03 -0.1099,-0.0599 l -0.30974,-0.19984 c -0.05,-0.03 -0.0999,-0.0699 -0.13989,-0.11989 l -0.20982,-0.2398 c -0.06,-0.0699 -0.10991,-0.14988 -0.12989,-0.2398 l -0.0799,-0.25978 c -0.03,-0.0999 -0.04,-0.20982 -0.02,-0.31973 z"
       style="fill:#00b050;fill-opacity:1;fill-rule:nonzero;stroke:#00b050;stroke-width:0.00999157px;stroke-linecap:butt;stroke-linejoin:round;stroke-miterlimit:4;stroke-dasharray:none;stroke-opacity:1" />
    <path
       inkscape:connector-curvature="0"
       id="path126"
       d="m 221.47373,149.951 v -7.55362 0 c 0,-4.17648 1.69856,-7.55363 3.77681,-7.55363 2.08824,0 3.77681,3.37715 3.77681,7.55363 0,0 0,0 0,0 v 0 7.55362 z"
       style="fill:#000000;fill-opacity:1;fill-rule:evenodd;stroke:none" />
    <path
       inkscape:connector-curvature="0"
       id="path128"
       d="m 221.47373,150.62044 c -0.3597,0 -0.65945,-0.29975 -0.65945,-0.66944 v -7.55362 l 0.0799,-1.5487 0.2298,-1.48874 0.3597,-1.35885 0.48959,-1.19899 c 0.01,-0.03 0.03,-0.0599 0.0499,-0.0899 l 0.55953,-0.91922 0.3597,-0.45961 0.37968,-0.36969 c 0.02,-0.03 0.05,-0.05 0.0799,-0.0699 l 0.3497,-0.24979 0.42964,-0.22981 c 0.04,-0.03 0.0799,-0.04 0.1199,-0.05 l 0.36969,-0.1099 c 0.04,-0.02 0.0899,-0.02 0.12989,-0.03 l 0.38967,-0.04 c 0.04,0 0.0899,0 0.12989,0 l 0.38967,0.04 c 0.04,0.01 0.0799,0.01 0.1199,0.03 l 0.36969,0.1099 c 0.05,0.01 0.0899,0.02 0.12989,0.05 l 0.3597,0.18984 0.41964,0.28976 c 0.03,0.02 0.05,0.04 0.0799,0.0699 l 0.32972,0.31973 0.35969,0.42964 0.60949,0.99915 c 0.02,0.03 0.04,0.06 0.05,0.0899 l 0.4696,1.11905 0.36969,1.36885 0.22981,1.47875 0.0899,1.59865 v 7.5836 c 0,0.36969 -0.29975,0.66944 -0.66944,0.66944 z m 7.55362,-1.32888 -0.65944,0.65944 v -7.51366 l -0.0699,-1.45877 -0.20982,-1.34886 -0.30974,-1.19899 -0.46961,-1.11905 0.05,0.0899 -0.50957,-0.83929 -0.25978,-0.32972 -0.32972,-0.31973 0.0799,0.0699 -0.27976,-0.20982 -0.3597,-0.18984 0.1199,0.0499 -0.36969,-0.1099 0.12989,0.03 -0.38967,-0.04 h 0.12989 l -0.38967,0.04 0.1199,-0.03 -0.36969,0.1099 0.12989,-0.0499 -0.28975,0.14987 -0.34971,0.24979 0.0799,-0.0699 -0.27976,0.26977 -0.25978,0.29975 -0.55953,0.91922 0.05,-0.0899 -0.42964,1.03912 -0.33971,1.21897 -0.20983,1.34887 -0.0799,1.47875 v 7.55362 l -0.66943,-0.65944 z"
       style="fill:#ffc000;fill-opacity:1;fill-rule:nonzero;stroke:#ffc000;stroke-width:0.00999157px;stroke-linecap:butt;stroke-linejoin:round;stroke-miterlimit:4;stroke-dasharray:none;stroke-opacity:1" />
    <path
       inkscape:connector-curvature="0"
       id="path130"
       d="m 244.70413,161.16155 c 0,-1.04912 0.84928,-1.8984 1.88841,-1.8984 0,0 0,0 0,0 v 0 h 15.31707 v 0 c 1.04912,0 1.88841,0.84928 1.88841,1.8984 0,0 0,0 0,0 v 0 7.55362 0 c 0,1.03913 -0.83929,1.88841 -1.88841,1.88841 0,0 0,0 0,0 v 0 h -15.31707 v 0 c -1.03913,0 -1.88841,-0.84928 -1.88841,-1.88841 0,0 0,0 0,0 z"
       style="fill:#262626;fill-opacity:1;fill-rule:evenodd;stroke:none" />
    <path
       inkscape:connector-curvature="0"
       id="path132"
       d="m 244.04469,161.16155 0.04,-0.44963 c 0.01,-0.04 0.01,-0.0799 0.03,-0.11989 l 0.1099,-0.3597 c 0.01,-0.04 0.03,-0.0799 0.05,-0.1199 l 0.16986,-0.31973 c 0.02,-0.04 0.05,-0.0799 0.0799,-0.1199 l 0.2398,-0.27976 0.32972,-0.29975 c 0.04,-0.04 0.0899,-0.0699 0.13988,-0.0999 l 0.32972,-0.16985 c 0.03,-0.02 0.0699,-0.03 0.0999,-0.04 l 0.3497,-0.10991 c 0.05,-0.01 0.0899,-0.02 0.1299,-0.03 l 0.37967,-0.04 h 15.38702 l 0.44962,0.04 c 0.05,0.01 0.0899,0.01 0.1299,0.03 l 0.35969,0.10991 c 0.04,0.01 0.0799,0.03 0.1199,0.05 l 0.31973,0.16986 c 0.04,0.02 0.0799,0.05 0.1199,0.0799 l 0.27976,0.2398 c 0.03,0.02 0.06,0.0499 0.0799,0.0799 l 0.2298,0.27976 c 0.03,0.04 0.05,0.0699 0.0699,0.10991 l 0.16986,0.31973 c 0.02,0.04 0.04,0.0799 0.05,0.1199 l 0.10991,0.3597 c 0.01,0.04 0.02,0.0799 0.03,0.11989 l 0.04,0.37968 v 7.62357 l -0.04,0.44962 c -0.01,0.05 -0.02,0.0899 -0.03,0.12989 l -0.10991,0.34971 c -0.01,0.04 -0.03,0.0799 -0.04,0.10991 l -0.16986,0.32972 c -0.02,0.04 -0.05,0.0799 -0.0799,0.1199 l -0.2298,0.27976 c -0.03,0.03 -0.06,0.06 -0.0899,0.0899 l -0.27976,0.2298 c -0.04,0.03 -0.0699,0.05 -0.10991,0.0699 l -0.31973,0.16986 c -0.04,0.02 -0.0799,0.04 -0.1199,0.05 l -0.35969,0.1099 c -0.04,0.01 -0.0799,0.02 -0.1299,0.03 l -0.37968,0.04 h -15.38701 l -0.44962,-0.04 c -0.04,-0.01 -0.0799,-0.02 -0.1299,-0.03 l -0.3497,-0.1099 c -0.03,-0.01 -0.0699,-0.03 -0.0999,-0.04 l -0.32972,-0.16986 c -0.05,-0.03 -0.0899,-0.0499 -0.12989,-0.0899 l -0.26977,-0.22981 c -0.02,-0.02 -0.05,-0.05 -0.0699,-0.0699 l -0.2398,-0.27976 c -0.04,-0.04 -0.06,-0.0799 -0.0899,-0.12989 l -0.16986,-0.32972 c -0.02,-0.03 -0.03,-0.0699 -0.04,-0.10991 l -0.1099,-0.34971 c -0.01,-0.04 -0.02,-0.0799 -0.03,-0.12989 l -0.04,-0.37968 z m 1.32887,7.48368 0.04,0.37968 -0.03,-0.12989 0.1099,0.34971 -0.04,-0.0999 0.16985,0.32972 -0.0899,-0.12989 0.2398,0.27977 -0.0699,-0.0699 0.26977,0.2298 -0.12989,-0.0899 0.32972,0.16985 -0.10991,-0.04 0.34971,0.1099 -0.12989,-0.03 0.30974,0.04 h 15.24713 l 0.37968,-0.04 -0.1199,0.03 0.3597,-0.1099 -0.1199,0.05 0.31973,-0.16986 -0.10991,0.0699 0.27977,-0.22981 -0.0899,0.0899 0.22981,-0.27977 -0.0799,0.1199 0.16985,-0.32972 -0.04,0.0999 0.10991,-0.34971 -0.03,0.12989 0.04,-0.30974 v -7.48368 l -0.04,-0.37968 0.03,0.12989 -0.10991,-0.3597 0.05,0.1199 -0.16986,-0.31973 0.0699,0.10991 -0.22981,-0.27977 0.0799,0.0799 -0.27977,-0.2398 0.1199,0.0799 -0.31973,-0.16986 0.1199,0.05 -0.3597,-0.10991 0.1199,0.03 -0.30974,-0.04 h -15.24713 l -0.37968,0.04 0.12989,-0.03 -0.34971,0.10991 0.10991,-0.04 -0.32972,0.16986 0.13988,-0.0999 -0.20982,0.17984 -0.2398,0.27977 0.0799,-0.1199 -0.16985,0.31973 0.05,-0.1199 -0.1099,0.3597 0.03,-0.12989 -0.04,0.30974 z"
       style="fill:#7f7f7f;fill-opacity:1;fill-rule:nonzero;stroke:#7f7f7f;stroke-width:0.00999157px;stroke-linecap:butt;stroke-linejoin:round;stroke-miterlimit:4;stroke-dasharray:none;stroke-opacity:1" />
    <path
       inkscape:connector-curvature="0"
       id="path134"
       d="m 232.80417,167.69603 c 0,-3.12736 1.69857,-5.66522 3.77681,-5.66522 0,0 0,0 0,0 v 0 c 2.08824,0 3.77682,2.53786 3.77682,5.66522 v 0 c 0,3.13736 -1.68858,5.67522 -3.77682,5.67522 0,0 0,0 0,0 -2.07824,0 -3.77681,-2.53786 -3.77681,-5.67522 z"
       style="fill:#f8e088;fill-opacity:1;fill-rule:evenodd;stroke:#e5b70d;stroke-linejoin:round;stroke-opacity:1" />
    <path
       inkscape:connector-curvature="0"
       id="path138"
       d="m 213.9201,163.91922 c 0,-1.03912 0.84928,-1.88841 1.8984,-1.88841 0,0 0,0 0,0 v 0 h 15.31708 v 0 c 1.03912,0 1.8884,0.84929 1.8884,1.88841 0,0 0,0 0,0 v 0 7.56362 0 c 0,1.03912 -0.84928,1.88841 -1.8884,1.88841 0,0 0,0 0,0 v 0 H 215.8185 v 0 c -1.04912,0 -1.8984,-0.84929 -1.8984,-1.88841 0,0 0,0 0,0 z"
       style="fill:#262626;fill-opacity:1;fill-rule:evenodd;stroke:none" />
    <path
       inkscape:connector-curvature="0"
       id="path140"
       d="m 213.26066,163.91922 0.04,-0.44962 c 0.01,-0.04 0.02,-0.0799 0.03,-0.12989 l 0.1099,-0.34971 c 0.01,-0.03 0.02,-0.0699 0.04,-0.0999 l 0.16986,-0.32972 c 0.03,-0.05 0.0599,-0.0999 0.0999,-0.13989 l 0.2398,-0.26977 0.33971,-0.29975 c 0.04,-0.03 0.0799,-0.0599 0.1199,-0.0799 l 0.31973,-0.16986 c 0.04,-0.02 0.0799,-0.04 0.1199,-0.0499 l 0.3597,-0.10991 c 0.04,-0.02 0.0799,-0.02 0.1199,-0.03 l 0.37968,-0.04 h 15.38702 l 0.44962,0.04 c 0.0499,0.01 0.0899,0.02 0.12989,0.03 l 0.3497,0.10991 c 0.04,0.01 0.0799,0.02 0.10991,0.04 l 0.32972,0.16986 c 0.05,0.03 0.0899,0.05 0.12989,0.0899 l 0.27977,0.2398 c 0.02,0.02 0.05,0.05 0.0699,0.0699 l 0.2298,0.26978 c 0.04,0.04 0.06,0.0799 0.0899,0.12989 l 0.16985,0.32972 c 0.01,0.03 0.03,0.0699 0.04,0.0999 l 0.10991,0.34971 c 0.01,0.05 0.02,0.0899 0.03,0.12989 l 0.04,0.37968 v 7.63356 l -0.04,0.44962 c -0.01,0.05 -0.02,0.0899 -0.03,0.12989 l -0.10991,0.3497 c -0.01,0.04 -0.03,0.0799 -0.04,0.10991 l -0.16985,0.32972 c -0.02,0.04 -0.05,0.0799 -0.0799,0.1199 l -0.2298,0.27977 c -0.03,0.03 -0.0599,0.0599 -0.0899,0.0899 l -0.27976,0.22981 c -0.04,0.03 -0.0799,0.06 -0.1199,0.0799 l -0.32972,0.16986 c -0.03,0.01 -0.0699,0.03 -0.10991,0.04 l -0.3497,0.10991 c -0.04,0.01 -0.0799,0.02 -0.12989,0.03 l -0.37968,0.04 h -15.38702 l -0.44962,-0.04 c -0.04,-0.01 -0.0799,-0.02 -0.1199,-0.03 l -0.3597,-0.10991 c -0.04,-0.01 -0.0799,-0.03 -0.1199,-0.05 l -0.31973,-0.16985 c -0.04,-0.02 -0.0699,-0.04 -0.10991,-0.0699 l -0.27976,-0.22981 c -0.03,-0.02 -0.06,-0.05 -0.0799,-0.0799 l -0.2398,-0.27977 c -0.04,-0.04 -0.06,-0.0799 -0.0899,-0.12989 l -0.16986,-0.32972 c -0.02,-0.03 -0.03,-0.0699 -0.04,-0.10991 l -0.1099,-0.3497 c -0.01,-0.04 -0.02,-0.0799 -0.03,-0.12989 l -0.04,-0.37968 z m 1.32887,7.49368 0.04,0.37968 -0.03,-0.12989 0.1099,0.3497 -0.04,-0.0999 0.16985,0.32972 -0.0899,-0.12989 0.2398,0.27976 -0.0799,-0.0799 0.27977,0.2298 -0.10991,-0.0699 0.31973,0.16986 -0.1199,-0.05 0.3597,0.10991 -0.12989,-0.03 0.30974,0.04 h 15.24713 l 0.37968,-0.04 -0.12989,0.03 0.34971,-0.10991 -0.0999,0.04 0.32973,-0.16986 -0.1199,0.0799 0.27976,-0.2298 -0.0899,0.0899 0.2298,-0.27976 -0.0799,0.1199 0.16986,-0.32972 -0.04,0.0999 0.10991,-0.3497 -0.03,0.12989 0.04,-0.30974 v -7.49368 l -0.04,-0.37968 0.03,0.12989 -0.10991,-0.3497 0.04,0.1099 -0.16986,-0.32972 0.0899,0.12989 -0.2298,-0.26977 0.0699,0.0699 -0.27977,-0.2398 0.1299,0.0899 -0.32973,-0.16986 0.0999,0.04 -0.34971,-0.10991 0.12989,0.03 -0.30973,-0.04 h -15.24714 l -0.37968,0.04 0.12989,-0.03 -0.3597,0.10991 0.1199,-0.05 -0.31973,0.16986 0.1199,-0.0799 -0.21981,0.17985 -0.2398,0.26977 0.0999,-0.13988 -0.16985,0.32972 0.04,-0.1099 -0.1099,0.3497 0.03,-0.12989 -0.04,0.30974 z"
       style="fill:#7f7f7f;fill-opacity:1;fill-rule:nonzero;stroke:#7f7f7f;stroke-width:0.00999157px;stroke-linecap:butt;stroke-linejoin:round;stroke-miterlimit:4;stroke-dasharray:none;stroke-opacity:1" />
    <path
       inkscape:connector-curvature="0"
       id="path142"
       d="m 213.9201,127.05033 9.80173,4.79595 5.30552,-4.79595 z"
       style="fill:#c00000;fill-opacity:1;fill-rule:evenodd;stroke:none" />
    <path
       sodipodi:nodetypes="sccccccscccccccs"
       inkscape:connector-curvature="0"
       id="path144"
       d="m 213.91913,126.38154 c -0.28965,-0.10974 -0.56873,0.21979 -0.63868,0.51953 -0.0699,0.29975 0.0698,0.60817 0.34961,0.74805 l 9.80274,4.79688 c 0.24979,0.11989 0.53845,0.0805 0.73828,-0.10938 l 5.30664,-4.79687 c 0.20983,-0.17985 0.27961,0.0335 0.17969,-0.22632 -0.0999,-0.25978 -1.06425,-1.39084 -1.26522,-1.1962 l -0.96349,0.9331 -0.13457,0.6691 v 0 l -3.68164,3.32813 -6.79883,-3.32813 v 0 l -1.23496,-0.70907 z"
       style="fill:#ffc000;fill-opacity:1;fill-rule:nonzero;stroke:#ffc000;stroke-width:0.00999157px;stroke-linecap:butt;stroke-linejoin:round;stroke-miterlimit:4;stroke-dasharray:none;stroke-opacity:1" />
    <path
       inkscape:connector-curvature="0"
       id="path146"
       d="m 209.99341,153.08836 c 0.80932,-0.64946 1.99832,-0.52956 2.65776,0.27976 0,0 0,0 0,0 v 0 l 9.67184,11.89996 v 0 c 0.64945,0.80932 0.52955,1.99832 -0.27976,2.65776 0,0 0,0 0,0 v 0 l -5.86506,4.75599 v 0 c -0.80931,0.65944 -1.99831,0.53954 -2.64776,-0.26978 0,0 0,0 0,0 v 0 l -9.67184,-11.89996 v 0 c -0.65945,-0.80931 -0.52956,-1.99831 0.27976,-2.65775 0,0 0,0 0,0 z"
       style="fill:#c00000;fill-opacity:1;fill-rule:evenodd;stroke:none" />
    <path
       inkscape:connector-curvature="0"
       id="path148"
       d="m 209.57377,152.57879 0.37968,-0.24979 c 0.04,-0.03 0.0799,-0.05 0.12989,-0.0699 l 0.33971,-0.12989 c 0.03,-0.01 0.0699,-0.02 0.10991,-0.03 l 0.35969,-0.0699 c 0.04,-0.01 0.0799,-0.01 0.1199,-0.01 h 0.36969 c 0.05,0 0.0899,0 0.13988,0.01 l 0.34971,0.0699 c 0.04,0.01 0.0799,0.02 0.1199,0.04 l 0.33971,0.13988 c 0.04,0.02 0.0799,0.04 0.1199,0.0599 l 0.30974,0.20982 c 0.03,0.03 0.0699,0.05 0.0999,0.0799 l 0.26977,0.26978 9.71181,11.94992 0.24979,0.37967 c 0.03,0.04 0.05,0.0799 0.0699,0.1299 l 0.12989,0.33971 c 0.01,0.03 0.02,0.0699 0.03,0.10991 l 0.0699,0.35969 c 0.01,0.04 0.01,0.0799 0.01,0.1199 v 0.36969 c 0,0.05 0,0.0899 -0.01,0.13988 l -0.0699,0.34971 c -0.01,0.04 -0.02,0.0799 -0.04,0.1199 l -0.13988,0.33971 c -0.02,0.04 -0.04,0.0799 -0.0599,0.1199 l -0.20982,0.30974 c -0.03,0.03 -0.05,0.0699 -0.0799,0.0999 l -0.26977,0.26977 -5.925,4.79596 -0.36969,0.24979 c -0.03,0.03 -0.0699,0.05 -0.10991,0.06 l -0.33971,0.13988 c -0.04,0.02 -0.0799,0.03 -0.12989,0.04 l -0.3597,0.0699 c -0.04,0.01 -0.0799,0.01 -0.12989,0.01 h -0.35969 c -0.04,0 -0.0799,0 -0.1199,-0.01 l -0.3597,-0.0699 c -0.05,-0.01 -0.0899,-0.02 -0.12989,-0.04 l -0.33971,-0.13988 c -0.04,-0.02 -0.0899,-0.04 -0.12989,-0.0699 l -0.29975,-0.20983 c -0.03,-0.02 -0.0599,-0.0499 -0.0899,-0.0699 l -0.26978,-0.26977 -9.7118,-11.94992 -0.24979,-0.37968 c -0.03,-0.03 -0.05,-0.0699 -0.0599,-0.10991 l -0.13988,-0.33971 c -0.02,-0.04 -0.03,-0.0799 -0.04,-0.12989 l -0.0699,-0.3597 c -0.01,-0.0499 -0.01,-0.0899 -0.01,-0.13988 l 0.01,-0.36969 c 0,-0.04 0,-0.0799 0.01,-0.1199 l 0.0699,-0.3497 c 0.01,-0.04 0.02,-0.0799 0.04,-0.1199 l 0.13988,-0.33971 c 0.02,-0.04 0.04,-0.0799 0.06,-0.1199 l 0.20982,-0.30974 c 0.03,-0.03 0.05,-0.0699 0.0799,-0.0999 l 0.26978,-0.26977 z m -4.95582,5.75514 -0.26978,0.26977 0.0799,-0.0999 -0.20983,0.30974 0.0599,-0.1199 -0.13988,0.33971 0.04,-0.1199 -0.0699,0.34971 0.01,-0.1199 -0.01,0.36969 -0.01,-0.13989 0.07,0.3597 -0.04,-0.12989 0.13988,0.33971 -0.06,-0.1099 0.16986,0.25978 9.63187,11.85 0.26978,0.26977 -0.0899,-0.0699 0.29975,0.20982 -0.12989,-0.0699 0.33971,0.13989 -0.12989,-0.04 0.3597,0.0699 -0.12989,-0.01 h 0.35969 l -0.1199,0.01 0.3597,-0.0699 -0.12989,0.04 0.33971,-0.13989 -0.1099,0.0599 0.25978,-0.16985 5.81509,-4.71602 0.26977,-0.26978 -0.0799,0.0999 0.20983,-0.30974 -0.06,0.1199 0.13988,-0.33971 -0.04,0.11989 0.0699,-0.3497 -0.01,0.12989 v -0.36969 l 0.01,0.12989 -0.0699,-0.35969 0.03,0.1099 -0.12989,-0.33971 0.0699,0.12989 -0.16986,-0.25978 -9.63187,-11.85 -0.26978,-0.26978 0.0999,0.0799 -0.30974,-0.20983 0.1199,0.06 -0.33971,-0.13988 0.11989,0.04 -0.3497,-0.0699 0.12989,0.01 h -0.36969 l 0.12989,-0.01 -0.35969,0.0699 0.1099,-0.03 -0.33971,0.12989 0.12989,-0.0699 -0.25978,0.16986 z"
       style="fill:#e5b70d;fill-opacity:1;fill-rule:nonzero;stroke:#e5b70d;stroke-width:0.00999157px;stroke-linecap:butt;stroke-linejoin:round;stroke-miterlimit:4;stroke-dasharray:none;stroke-opacity:1" />
    <path
       id="path160"
       d="m 201.39067,166.70687 -7.38377,-8.59275 v 0 c -4.08655,-4.73601 -3.54701,-11.88997 1.19899,-15.97652 4.74599,-4.07656 11.89996,-3.53702 15.97652,1.19898 0,0 0,0 0,0 v 0 l 7.39376,8.59275 z"
       style="fill:#c00000;fill-opacity:1;fill-rule:evenodd;stroke:#e5b70d;stroke-width:2;stroke-linejoin:round;stroke-miterlimit:4;stroke-dasharray:none;stroke-opacity:1"
       inkscape:connector-curvature="0" />
    <path
       inkscape:connector-curvature="0"
       id="path164"
       d="m 215.16905,133.16517 c 0,0.72938 1.69856,1.31888 3.77681,1.31888 v 0 c 2.08824,0 3.77681,-0.5895 3.77681,-1.31888 0,0 0,0 0,0 v 0 c 0,-0.72939 -1.68857,-1.31889 -3.77681,-1.31889 0,0 0,0 0,0 v 0 c -2.07825,0 -3.77681,0.5895 -3.77681,1.31889 0,0 0,0 0,0 z"
       style="fill:#92d050;fill-opacity:1;fill-rule:evenodd;stroke:none" />
    <path
       inkscape:connector-curvature="0"
       id="path166"
       d="m 215.80851,133.35501 v -0.36969 l 0.0799,0.26977 -0.13988,-0.26977 0.21981,0.2398 -0.12989,-0.0999 0.34971,0.22981 -0.10991,-0.0599 0.45961,0.18984 0.48959,0.12989 0.5895,0.1199 0.63946,0.0599 0.71939,0.03 0.70941,-0.03 0.66943,-0.0699 0.56952,-0.11989 0.50957,-0.14988 0.39966,-0.15986 -0.1199,0.0599 0.33972,-0.22981 -0.1199,0.0999 0.21981,-0.2398 -0.13988,0.26977 0.0799,-0.26977 v 0.36969 l -0.0799,-0.26978 0.13988,0.26978 -0.21981,-0.2398 0.1199,0.0999 -0.33972,-0.2298 0.1199,0.0599 -0.4696,-0.18984 -0.48959,-0.12989 -0.5895,-0.1199 -0.63946,-0.0599 -0.71939,-0.03 -0.70941,0.03 -0.66943,0.0699 -0.56952,0.1199 -0.50957,0.14987 -0.38967,0.15987 0.10991,-0.0599 -0.34971,0.2298 0.12989,-0.0999 -0.21981,0.2398 0.13988,-0.26978 z m -1.189,-0.63946 c 0.02,-0.0999 0.0699,-0.18984 0.13988,-0.26978 l 0.21982,-0.23979 c 0.04,-0.04 0.0799,-0.07 0.12989,-0.0999 l 0.3497,-0.22981 c 0.03,-0.03 0.0699,-0.0499 0.10991,-0.0599 l 0.52955,-0.21981 0.60949,-0.16986 0.7094,-0.13988 0.74937,-0.0699 0.80931,-0.03 0.79933,0.03 0.77934,0.0799 0.68942,0.13988 0.61948,0.18984 0.4696,0.18984 c 0.05,0.01 0.0899,0.04 0.12989,0.0599 l 0.33972,0.22981 c 0.04,0.03 0.0799,0.0699 0.11989,0.0999 l 0.21982,0.23979 c 0.06,0.0799 0.1199,0.16986 0.13988,0.26978 l 0.0799,0.26977 c 0.04,0.1199 0.04,0.24979 0,0.36969 l -0.0799,0.26977 c -0.02,0.0999 -0.0799,0.18984 -0.13988,0.26977 l -0.21982,0.2398 c -0.04,0.03 -0.0799,0.0699 -0.11989,0.0999 l -0.33972,0.22981 c -0.04,0.02 -0.0799,0.05 -0.12989,0.06 l -0.52955,0.21981 -0.60949,0.16986 -0.7094,0.13988 -0.74937,0.0699 -0.80931,0.03 -0.79933,-0.03 -0.77934,-0.0799 -0.68942,-0.13988 -0.62947,-0.18984 -0.45961,-0.18984 c -0.04,-0.02 -0.0799,-0.04 -0.10991,-0.06 l -0.3497,-0.22981 c -0.05,-0.03 -0.0899,-0.0599 -0.12989,-0.0999 l -0.21982,-0.2398 c -0.0699,-0.0799 -0.1199,-0.16986 -0.13988,-0.26977 l -0.0799,-0.26977 c -0.04,-0.1199 -0.04,-0.24979 0,-0.36969 z"
       style="fill:#00b050;fill-opacity:1;fill-rule:nonzero;stroke:#00b050;stroke-width:0.00999157px;stroke-linecap:butt;stroke-linejoin:round;stroke-miterlimit:4;stroke-dasharray:none;stroke-opacity:1" />
    <g
       transform="translate(-25.79767,42.631542)"
       id="g246">
      <g
         id="g232">
        <g
           id="g220">
          <path
             inkscape:connector-curvature="0"
             style="fill:#a6a6a6;fill-opacity:1;fill-rule:evenodd;stroke:none"
             d="m 314.18495,87.366296 -23.08053,-3.586974 -1.02913,-11.280484 22.05139,-7.703501 z"
             id="path172" />
          <path
             inkscape:connector-curvature="0"
             style="fill:#7f7f7f;fill-opacity:1;fill-rule:nonzero;stroke:#7f7f7f;stroke-width:0.00999157px;stroke-linecap:butt;stroke-linejoin:round;stroke-miterlimit:4;stroke-dasharray:none;stroke-opacity:1"
             d="m 315.51383,87.246397 c 0.03,0.409654 -0.1199,0.809317 -0.41965,1.089081 -0.29975,0.279764 -0.7094,0.409655 -1.11906,0.349705 L 290.8946,85.098209 c -0.5995,-0.08992 -1.0691,-0.589502 -1.11906,-1.198988 l -1.02913,-11.280484 c -0.06,-0.609486 0.30974,-1.179005 0.88925,-1.378837 l 22.05139,-7.703501 c 0.38968,-0.12989 0.80932,-0.07993 1.15903,0.139882 0.33971,0.219815 0.56952,0.589503 0.60948,0.999157 z m -4.71603,-22.331161 1.76851,1.139039 -22.05139,7.703501 0.87925,-1.378836 1.02914,11.280483 -1.11906,-1.188997 23.08053,3.576983 -1.52871,1.438786 z"
             id="path174" />
        </g>
        <g
           id="g216">
          <g
             id="g204">
            <path
               inkscape:connector-curvature="0"
               id="path176"
               d="m 281.39261,68.742008 c -0.06,-0.629469 0.39966,-1.179006 1.02913,-1.228963 0,0 0,0 0,0 v 0 l 4.5062,-0.419646 v 0 c 0.62947,-0.04996 1.17901,0.409654 1.22896,1.029131 0,0 0,0 0,0 v 0 l 6.65439,72.96844 v 0 c 0.06,0.61948 -0.39966,1.16902 -1.01914,1.22897 0,0 0,0 0,0 v 0 l -4.51619,0.40965 v 0 c -0.61948,0.0599 -1.16901,-0.39966 -1.22896,-1.01914 0,0 0,0 0,0 z"
               style="fill:#4a452a;fill-opacity:1;fill-rule:evenodd;stroke:none" />
            <path
               inkscape:connector-curvature="0"
               id="path178"
               d="m 280.40345,68.841923 c -0.01,-0.06994 -0.01,-0.139882 0,-0.209823 l 0.0499,-0.44962 c 0.02,-0.129891 0.06,-0.249789 0.1199,-0.369688 l 0.20983,-0.37968 c 0.0599,-0.109907 0.13988,-0.199831 0.2298,-0.279764 l 0.32972,-0.279764 c 0.10991,-0.08992 0.2398,-0.159865 0.37968,-0.199831 l 0.43963,-0.119899 c 0.0599,-0.01998 0.10991,-0.02998 0.16986,-0.02998 l 4.5062,-0.419646 c 0.0699,-0.01 0.13988,-0.01 0.20982,0 l 0.44962,0.04996 c 0.12989,0.01998 0.24979,0.05995 0.36969,0.119899 l 0.37968,0.209823 c 0.10991,0.05995 0.20982,0.139882 0.28975,0.239797 l 0.27977,0.339714 c 0.0899,0.109907 0.14987,0.229806 0.18984,0.369688 l 0.1199,0.429638 c 0.01,0.04996 0.02,0.109907 0.03,0.169856 l 6.65439,72.968447 c 0.01,0.0699 0.01,0.13988 0,0.20982 l -0.05,0.44962 c -0.02,0.1199 -0.05,0.2398 -0.10991,0.34971 l -0.19983,0.37968 c -0.0699,0.1199 -0.14987,0.2298 -0.25978,0.31973 l -0.33971,0.26977 c -0.0999,0.0799 -0.21982,0.13988 -0.33972,0.16986 l -0.42963,0.12989 c -0.06,0.02 -0.12989,0.03 -0.19984,0.04 l -4.51619,0.40966 c -0.0599,0.01 -0.12989,0.01 -0.19983,0 l -0.44962,-0.05 c -0.1199,-0.02 -0.24979,-0.05 -0.35969,-0.1199 l -0.36969,-0.19983 c -0.10991,-0.0599 -0.21982,-0.13988 -0.29975,-0.2398 l -0.27976,-0.33971 c -0.0799,-0.0999 -0.13989,-0.21982 -0.17985,-0.34971 l -0.12989,-0.42963 c -0.02,-0.06 -0.04,-0.12989 -0.04,-0.18984 z m 8.6427,72.778607 -0.04,-0.18984 0.12989,0.42963 -0.17985,-0.3497 0.27976,0.33971 -0.29974,-0.24979 0.36969,0.19983 -0.3597,-0.1099 0.44962,0.0499 H 289.186 l 4.51619,-0.40965 -0.18984,0.04 0.42963,-0.12989 -0.33971,0.16985 0.33971,-0.26977 -0.25978,0.31973 0.19983,-0.37968 -0.1099,0.34971 0.05,-0.44962 v 0.20982 l -6.65439,-72.968444 0.03,0.169857 -0.11989,-0.429638 0.18983,0.369688 -0.27976,-0.339713 0.28976,0.239798 -0.37968,-0.209823 0.36968,0.119899 -0.44962,-0.04996 h 0.20983 l -4.5062,0.419646 0.16986,-0.02998 -0.43963,0.119899 0.37968,-0.199832 -0.32973,0.279764 0.22981,-0.279764 -0.20982,0.37968 0.1199,-0.369688 -0.05,0.449621 v -0.209823 z"
               style="fill:#372f28;fill-opacity:1;fill-rule:nonzero;stroke:#372f28;stroke-width:0.00999157px;stroke-linecap:butt;stroke-linejoin:round;stroke-miterlimit:4;stroke-dasharray:none;stroke-opacity:1" />
          </g>
          <g
             id="g208">
            <path
               inkscape:connector-curvature="0"
               id="path180"
               d="m 287.95707,143.49894 c -0.1199,-1.31889 1.46876,-2.53786 3.54701,-2.7277 v 0 c 2.07825,-0.18984 3.85675,0.72939 3.97665,2.04827 0,0 0,0 0,0 v 0 c 0.11989,1.31889 -1.46876,2.53786 -3.54701,2.7277 0,0 0,0 0,0 v 0 c -2.06826,0.18984 -3.85675,-0.72938 -3.97665,-2.04827 0,0 0,0 0,0 z"
               style="fill:#7f7f7f;fill-opacity:1;fill-rule:evenodd;stroke:none" />
            <path
               inkscape:connector-curvature="0"
               id="path182"
               d="m 286.99788,143.74873 c -0.03,-0.0999 -0.04,-0.19983 -0.03,-0.30974 l 0.03,-0.48959 c 0,-0.0999 0.02,-0.19983 0.06,-0.28975 l 0.17985,-0.4696 c 0.03,-0.0799 0.0699,-0.15987 0.1199,-0.22981 l 0.30974,-0.42964 c 0.04,-0.05 0.0899,-0.0999 0.12989,-0.14987 l 0.42964,-0.39966 c 0.0499,-0.04 0.0899,-0.0699 0.13988,-0.10991 l 0.52955,-0.33972 c 0.05,-0.02 0.0899,-0.0499 0.12989,-0.0699 l 0.61948,-0.27976 c 0.05,-0.02 0.0899,-0.03 0.13988,-0.05 l 0.69941,-0.19983 0.86927,-0.13988 0.88925,-0.04 0.83929,0.0799 c 0.05,0 0.0999,0.01 0.14987,0.03 l 0.65945,0.16986 0.71939,0.27976 c 0.0599,0.02 0.10991,0.05 0.15986,0.0799 l 0.48959,0.30974 c 0.0599,0.04 0.1199,0.0899 0.16986,0.13988 l 0.37968,0.37968 c 0.06,0.05 0.10991,0.1199 0.14987,0.18984 l 0.25978,0.42964 c 0.05,0.0799 0.0899,0.16986 0.10991,0.26977 l 0.1199,0.46961 c 0.03,0.0999 0.04,0.19983 0.03,0.30974 l -0.03,0.48958 c 0,0.0999 -0.03,0.19983 -0.06,0.28976 l -0.17985,0.4696 c -0.03,0.0799 -0.0699,0.15987 -0.1199,0.22981 l -0.30974,0.42964 c -0.04,0.0499 -0.0899,0.0999 -0.12989,0.14987 l -0.42963,0.39966 c -0.05,0.04 -0.0999,0.0699 -0.14988,0.10991 l -0.52955,0.33971 c -0.04,0.02 -0.0799,0.05 -0.1199,0.0699 l -0.61948,0.27977 c -0.05,0.02 -0.0899,0.03 -0.13988,0.05 l -0.69941,0.19983 -0.86927,0.13988 -0.88925,0.03 -0.83929,-0.0699 c -0.05,-0.01 -0.0999,-0.01 -0.14987,-0.03 l -0.65945,-0.16986 -0.71939,-0.27976 c -0.05,-0.02 -0.0999,-0.05 -0.14987,-0.0799 l -0.48959,-0.30973 c -0.06,-0.04 -0.10991,-0.0799 -0.15986,-0.12989 l -0.38968,-0.37968 c -0.0599,-0.06 -0.11989,-0.12989 -0.15986,-0.19984 l -0.25978,-0.42963 c -0.05,-0.0799 -0.0899,-0.16986 -0.10991,-0.26978 z m 2.04827,-0.02 -0.1099,-0.26978 0.25978,0.42964 -0.15987,-0.19983 0.38967,0.37968 -0.15986,-0.12989 0.48959,0.30974 -0.14988,-0.0799 0.43963,0.19983 0.65945,0.16985 -0.14988,-0.03 0.5995,0.0599 h 0.62946 l 0.62947,-0.0999 0.69941,-0.19983 -0.13988,0.05 0.61948,-0.27976 -0.12989,0.0699 0.52955,-0.33972 -0.13988,0.10991 0.42964,-0.39966 -0.12989,0.14987 0.30974,-0.42964 -0.1199,0.22981 0.17985,-0.4696 -0.06,0.28975 0.03,-0.48959 0.03,0.30974 -0.1199,-0.4696 0.1099,0.26977 -0.25978,-0.42964 0.14988,0.18984 -0.37968,-0.37968 0.16985,0.13989 -0.48958,-0.30974 0.15986,0.0799 -0.45961,-0.19983 -0.65944,-0.16986 0.14987,0.03 -0.59949,-0.0699 -0.62947,0.01 -0.62947,0.0999 -0.69941,0.19984 0.13988,-0.05 -0.61948,0.27976 0.1199,-0.0699 -0.52955,0.33971 0.14987,-0.1099 -0.42964,0.39966 0.12989,-0.14987 -0.30973,0.42963 0.11989,-0.2298 -0.17984,0.4696 0.06,-0.28975 -0.03,0.48958 -0.03,-0.30974 z"
               style="fill:#595959;fill-opacity:1;fill-rule:nonzero;stroke:#595959;stroke-width:0.00999157px;stroke-linecap:butt;stroke-linejoin:round;stroke-miterlimit:4;stroke-dasharray:none;stroke-opacity:1" />
          </g>
        </g>
      </g>
      <path
         inkscape:connector-curvature="0"
         style="fill:#f8e088;fill-opacity:1;fill-rule:evenodd;stroke:none"
         d="m 286.00872,122.14695 c -0.27977,-3.11737 1.16901,-5.8051 3.24726,-5.99494 0,0 0,0 0,0 v 0 c 2.07824,-0.18984 3.99663,2.18816 4.27639,5.30553 v 0 c 0.28976,3.11737 -1.16901,5.79511 -3.24726,5.98495 0,0 0,0 0,0 -2.07825,0.18984 -3.98664,-2.17817 -4.27639,-5.29554 z"
         id="path184" />
    </g>
    <path
       inkscape:connector-curvature="0"
       id="path186"
       d="m 259.56159,164.8884 -0.04,-1.23895 c 0,-0.03 0,-0.06 0,-0.0999 l 0.12989,-1.07909 0.27976,-1.0691 c 0.01,-0.04 0.02,-0.0699 0.03,-0.0999 l 0.37968,-0.87926 c 0.02,-0.04 0.04,-0.0699 0.0599,-0.0999 l 0.48958,-0.73937 c 0.03,-0.04 0.06,-0.0799 0.0899,-0.10991 l 0.59949,-0.57951 c 0.04,-0.04 0.0799,-0.0699 0.1199,-0.0999 l 0.66944,-0.39966 c 0.06,-0.03 0.1199,-0.0599 0.18984,-0.0699 l 0.74936,-0.17985 c 0.04,-0.01 0.0899,-0.02 0.13989,-0.02 l 0.38967,-0.01 c 0.04,0 0.0799,0 0.1199,0.01 l 0.37968,0.0599 c 0.04,0 0.0799,0.01 0.11989,0.03 l 0.73938,0.25978 c 0.05,0.01 0.0999,0.04 0.14987,0.0699 l 0.67943,0.45962 c 0.03,0.03 0.0699,0.06 0.0999,0.0899 l 0.62947,0.63946 c 0.03,0.03 0.06,0.0599 0.0799,0.0999 l 0.52955,0.79932 c 0.02,0.02 0.03,0.05 0.05,0.0799 l 0.43963,0.92922 c 0.01,0.03 0.02,0.0599 0.03,0.0899 l 0.30974,1.03912 0.19983,1.21897 0.04,1.23895 -0.1199,1.16902 c -0.01,0.03 -0.01,0.0599 -0.02,0.0899 l -0.25978,0.98917 c -0.01,0.04 -0.02,0.0699 -0.04,0.10991 l -0.38967,0.86926 c -0.01,0.03 -0.03,0.06 -0.05,0.0899 l -0.48959,0.73937 c -0.03,0.04 -0.05,0.0799 -0.0899,0.10991 l -0.5895,0.57951 c -0.04,0.04 -0.0799,0.0699 -0.12989,0.0999 l -0.67943,0.39966 c -0.05,0.03 -0.1199,0.0599 -0.17985,0.0699 l -0.74937,0.17985 c -0.06,0.02 -0.12989,0.02 -0.19983,0.02 l -0.76935,-0.05 c -0.06,0 -0.1199,-0.02 -0.17985,-0.04 l -0.73937,-0.25978 c -0.05,-0.02 -0.0999,-0.04 -0.14988,-0.0699 l -0.67942,-0.45962 c -0.04,-0.03 -0.0699,-0.06 -0.0999,-0.0899 l -0.61948,-0.63946 c -0.03,-0.03 -0.05,-0.0599 -0.0799,-0.0899 l -0.53954,-0.78933 c -0.02,-0.03 -0.04,-0.06 -0.05,-0.0999 l -0.42964,-0.92922 -0.3497,-1.11906 z m 1.46877,0.8293 0.28975,0.9492 0.42964,0.92922 -0.06,-0.0899 0.53954,0.78934 -0.0699,-0.0899 0.61948,0.63946 -0.0999,-0.0899 0.67943,0.45961 -0.14987,-0.0699 0.73937,0.25978 -0.17984,-0.04 0.76935,0.0499 -0.19983,0.02 0.74936,-0.17985 -0.17984,0.0699 0.67942,-0.39966 -0.12989,0.0999 0.5895,-0.57951 -0.0899,0.10991 0.48959,-0.73938 -0.05,0.0899 0.38967,-0.86927 -0.04,0.10991 0.25979,-0.98917 -0.02,0.0899 0.1199,-0.98917 -0.02,-1.05911 -0.15987,-1.03912 -0.30974,-1.03912 0.03,0.0899 -0.43963,-0.92922 0.05,0.0799 -0.52956,-0.79933 0.0799,0.0999 -0.62947,-0.63946 0.0999,0.0899 -0.67942,-0.45961 0.14987,0.0699 -0.73938,-0.25978 0.1199,0.03 -0.37968,-0.06 0.1199,0.01 -0.38967,0.01 0.13988,-0.02 -0.74937,0.17985 0.18984,-0.0699 -0.66943,0.39966 0.1199,-0.0999 -0.5995,0.57951 0.0899,-0.10991 -0.48959,0.73938 0.06,-0.0999 -0.37968,0.87926 0.03,-0.0999 -0.2398,0.89924 -0.12989,1.07909 v -0.0899 l 0.02,1.05911 z"
       style="fill:#e5b70d;fill-opacity:1;fill-rule:nonzero;stroke:#e5b70d;stroke-width:0.00999157px;stroke-linecap:butt;stroke-linejoin:round;stroke-miterlimit:4;stroke-dasharray:none;stroke-opacity:1" />
  </g>
</svg>
