<?xml version="1.0" encoding="UTF-8" standalone="no"?>
<svg
   xmlns:dc="http://purl.org/dc/elements/1.1/"
   xmlns:cc="http://creativecommons.org/ns#"
   xmlns:rdf="http://www.w3.org/1999/02/22-rdf-syntax-ns#"
   xmlns:svg="http://www.w3.org/2000/svg"
   xmlns="http://www.w3.org/2000/svg"
   xmlns:sodipodi="http://sodipodi.sourceforge.net/DTD/sodipodi-0.dtd"
   xmlns:inkscape="http://www.inkscape.org/namespaces/inkscape"
   version="1.0"
   width="127mm"
   height="95.110001mm"
   id="svg188"
   sodipodi:docname="idle1.svg"
   inkscape:version="0.92.3 (2405546, 2018-03-11)">
  <metadata
     id="metadata192">
    <rdf:RDF>
      <cc:Work
         rdf:about="">
        <dc:format>image/svg+xml</dc:format>
        <dc:type
           rdf:resource="http://purl.org/dc/dcmitype/StillImage" />
      </cc:Work>
    </rdf:RDF>
  </metadata>
  <sodipodi:namedview
     pagecolor="#ffffff"
     bordercolor="#666666"
     borderopacity="1"
     objecttolerance="10"
     gridtolerance="10"
     guidetolerance="10"
     inkscape:pageopacity="0"
     inkscape:pageshadow="2"
     inkscape:window-width="1920"
     inkscape:window-height="1017"
     id="namedview190"
     showgrid="false"
     inkscape:zoom="4.7291732"
     inkscape:cx="248.45814"
     inkscape:cy="179.76656"
     inkscape:window-x="-8"
     inkscape:window-y="-8"
     inkscape:window-maximized="1"
     inkscape:current-layer="svg188" />
  <defs
     id="defs14">
    <clipPath
       clipPathUnits="userSpaceOnUse"
       id="clipEmfPath1">
      <path
         d="M 0,0 L 479.5954,0 L 479.5954,359.85642 L 0,359.85642 z"
         id="path10" />
    </clipPath>
    <pattern
       id="EMFhbasepattern"
       patternUnits="userSpaceOnUse"
       width="6"
       height="6"
       x="0"
       y="0" />
  </defs>
  <path
     style="fill:#c00000;fill-opacity:1;fill-rule:evenodd;stroke:none"
     d="M 213.9201,131.84628 V 109.1854 l -7.55363,22.66088 z"
     id="path18"
     inkscape:connector-curvature="0" />
  <path
     style="fill:#ffc000;fill-opacity:1;fill-rule:nonzero;stroke:#ffc000;stroke-width:0.00999157px;stroke-linecap:butt;stroke-linejoin:round;stroke-miterlimit:4;stroke-dasharray:none;stroke-opacity:1"
     d="m 213.9201,131.17684 -0.65944,0.66944 V 109.1854 l 1.2989,0.20982 -7.55363,22.66088 -0.63946,-0.87926 z m -7.55363,1.33887 c -0.20982,0 -0.40965,-0.1099 -0.53954,-0.27976 -0.1199,-0.16986 -0.15987,-0.39966 -0.0899,-0.59949 l 7.55363,-22.66089 c 0.10991,-0.30974 0.41965,-0.49958 0.73938,-0.44962 0.31973,0.05 0.55952,0.32972 0.55952,0.65945 v 22.66088 c 0,0.36969 -0.29974,0.66943 -0.66943,0.66943 z"
     id="path20"
     inkscape:connector-curvature="0" />
  <path
     style="fill:#c00000;fill-opacity:1;fill-rule:evenodd;stroke:none"
     d="M 229.02735,131.84628 V 109.1854 l 7.55363,22.66088 z"
     id="path22"
     inkscape:connector-curvature="0" />
  <path
     style="fill:#ffc000;fill-opacity:1;fill-rule:nonzero;stroke:#ffc000;stroke-width:0.00999157px;stroke-linecap:butt;stroke-linejoin:round;stroke-miterlimit:4;stroke-dasharray:none;stroke-opacity:1"
     d="m 229.02735,132.51571 c -0.35969,0 -0.65944,-0.29974 -0.65944,-0.66943 V 109.1854 c 0,-0.32973 0.22981,-0.60949 0.55953,-0.65945 0.31973,-0.05 0.62947,0.13988 0.73937,0.44962 l 7.55363,22.66089 c 0.06,0.19983 0.03,0.42963 -0.0899,0.59949 -0.12989,0.16986 -0.32972,0.27976 -0.54954,0.27976 z m 7.55363,-1.33887 -0.62947,0.87926 -7.55362,-22.66088 1.2989,-0.20982 v 22.66088 l -0.66944,-0.66944 z"
     id="path24"
     inkscape:connector-curvature="0" />
  <path
     style="fill:#c00000;fill-opacity:1;fill-rule:evenodd;stroke:none"
     d="m 233.01399,165.29806 -7.38377,-8.58276 v 0 c -4.08655,-4.746 -3.54701,-11.89996 1.19899,-15.98651 4.74599,-4.07657 11.89996,-3.53702 15.97652,1.20898 0,0 0,0 0,0 v 0 l 7.38377,8.58275 z"
     id="path26"
     inkscape:connector-curvature="0" />
  <path
     style="fill:#ffc000;fill-opacity:1;fill-rule:nonzero;stroke:#ffc000;stroke-width:0.00999157px;stroke-linecap:butt;stroke-linejoin:round;stroke-miterlimit:4;stroke-dasharray:none;stroke-opacity:1"
     d="m 233.67343,166.05742 c -0.41964,0.35969 -1.04911,0.31973 -1.40881,-0.0999 l -7.38377,-8.58276 -0.74937,-0.95919 -0.65944,-1.03912 -0.54954,-1.09908 -0.42963,-1.12904 -0.30974,-1.15903 -0.19983,-1.16901 -0.0799,-1.189 0.01,-1.16901 0.14987,-1.189 0.24979,-1.14903 0.3597,-1.13904 0.47959,-1.08908 0.57951,-1.05911 0.7094,-1.00914 0.78934,-0.93921 0.90923,-0.87926 0.99916,-0.77934 1.03912,-0.64945 1.09907,-0.54954 1.12905,-0.42964 1.15902,-0.30973 1.16902,-0.19984 1.179,-0.0899 1.189,0.03 1.179,0.13989 1.14904,0.24979 1.13903,0.35969 1.08909,0.4796 1.0591,0.57951 1.00915,0.7094 0.93921,0.79933 0.86927,0.89924 7.41374,8.62272 c 0.3597,0.41965 0.31973,1.04912 -0.0999,1.40881 z m 15.86662,-16.28627 -0.0999,1.40882 -7.35379,-8.55279 -0.72939,-0.76935 -0.77934,-0.67942 -0.8293,-0.58951 -0.87926,-0.49957 -0.92921,-0.39967 -0.93921,-0.31973 -0.96918,-0.20982 -0.97918,-0.13988 -0.98916,-0.03 -0.99916,0.0699 -0.98917,0.15987 -0.95919,0.24979 -0.9492,0.3497 -0.92921,0.44962 -0.86927,0.54954 -0.84928,0.63946 -0.75936,0.71939 -0.68942,0.79933 -0.5895,0.8293 -0.49958,0.87926 -0.39966,0.92921 -0.31974,0.93921 -0.20982,0.96918 -0.13988,0.96918 -0.02,1.00915 0.06,0.98917 0.15986,0.98916 0.24979,0.95919 0.34971,0.9492 0.44962,0.91923 0.55952,0.87926 0.66944,0.87925 7.38377,8.58276 -1.40881,-0.0999 z"
     id="path28"
     inkscape:connector-curvature="0" />
  <path
     style="fill:#c00000;fill-opacity:1;fill-rule:evenodd;stroke:none"
     d="m 230.41618,198.89971 c -0.75936,-1.16901 -0.43963,-2.7277 0.7194,-3.49705 0,0 0,0 0,0 v 0 l 8.4129,-5.53533 v 0 c 1.15902,-0.76935 2.71771,-0.43963 3.48706,0.71939 0,0 0,0 0,0 v 0 l 13.85831,21.03226 v 0 c 0.75935,1.16901 0.43962,2.7277 -0.7194,3.48706 0,0 0,0 0,0 v 0 l -8.4129,5.54532 v 0 c -1.15902,0.75936 -2.71771,0.43963 -3.48706,-0.71939 0,0 0,0 0,0 z"
     id="path30"
     inkscape:connector-curvature="0" />
  <path
     style="fill:#e5b70d;fill-opacity:1;fill-rule:nonzero;stroke:#e5b70d;stroke-width:0.00999157px;stroke-linecap:butt;stroke-linejoin:round;stroke-miterlimit:4;stroke-dasharray:none;stroke-opacity:1"
     d="m 229.86665,199.2694 -0.26978,-0.50957 c -0.02,-0.04 -0.03,-0.0799 -0.0499,-0.1199 l -0.13989,-0.4796 c -0.01,-0.04 -0.02,-0.0899 -0.02,-0.12989 l -0.04,-0.48958 c 0,-0.04 0,-0.0799 0,-0.1199 l 0.05,-0.4796 c 0.01,-0.05 0.01,-0.0899 0.03,-0.12989 l 0.13988,-0.45961 c 0.01,-0.04 0.03,-0.0799 0.05,-0.1199 l 0.2298,-0.42964 c 0.02,-0.04 0.04,-0.0699 0.06,-0.0999 l 0.30974,-0.38968 c 0.03,-0.04 0.0699,-0.0699 0.10991,-0.1099 l 0.39966,-0.31973 8.46286,-5.56531 0.49958,-0.26977 c 0.04,-0.03 0.0799,-0.04 0.12989,-0.06 l 0.4796,-0.13988 c 0.04,-0.01 0.0799,-0.02 0.12989,-0.02 l 0.47959,-0.04 c 0.05,0 0.0899,0 0.13988,0 l 0.4796,0.0599 c 0.04,0.01 0.0699,0.02 0.10991,0.03 l 0.45961,0.13989 c 0.04,0.01 0.0799,0.03 0.1199,0.05 l 0.42964,0.22981 c 0.03,0.02 0.0699,0.04 0.0999,0.06 l 0.38967,0.30974 c 0.04,0.03 0.0699,0.0699 0.10991,0.1099 l 0.31973,0.39967 13.88828,21.08221 0.26978,0.50957 c 0.02,0.04 0.03,0.0799 0.04,0.1199 l 0.13988,0.4796 c 0.02,0.04 0.03,0.0899 0.03,0.12989 l 0.04,0.48958 c 0,0.04 0,0.0799 0,0.1199 l -0.05,0.4796 c -0.01,0.05 -0.02,0.0899 -0.03,0.12989 l -0.13988,0.45961 c -0.01,0.04 -0.03,0.0799 -0.05,0.1199 l -0.2298,0.42964 c -0.02,0.04 -0.04,0.0699 -0.0699,0.1099 l -0.30974,0.37968 c -0.03,0.03 -0.06,0.07 -0.0999,0.0999 l -0.39966,0.31973 -8.46286,5.5753 -0.50957,0.26977 c -0.04,0.02 -0.0799,0.03 -0.1199,0.04 l -0.4796,0.13988 c -0.04,0.02 -0.0899,0.03 -0.12989,0.03 l -0.47959,0.04 c -0.04,0 -0.0799,0 -0.1199,0 l -0.4796,-0.05 c -0.05,-0.01 -0.0899,-0.02 -0.12989,-0.03 l -0.45961,-0.13989 c -0.04,-0.01 -0.0799,-0.03 -0.1199,-0.0499 l -0.42964,-0.22981 c -0.04,-0.02 -0.0699,-0.04 -0.0999,-0.06 l -0.38967,-0.30974 c -0.04,-0.03 -0.0699,-0.0699 -0.10991,-0.10991 l -0.31973,-0.39966 z m 14.93739,20.25291 0.31973,0.39966 -0.1099,-0.1099 0.38967,0.30974 -0.0999,-0.06 0.42964,0.2298 -0.1199,-0.05 0.45961,0.13989 -0.12989,-0.03 0.4796,0.05 h -0.1199 l 0.4796,-0.04 -0.12989,0.02 0.47959,-0.13989 -0.1199,0.05 0.38967,-0.18984 8.36295,-5.51534 0.39966,-0.31974 -0.0999,0.0999 0.30973,-0.37968 -0.0699,0.10991 0.22981,-0.42964 -0.05,0.1199 0.13988,-0.45961 -0.03,0.12989 0.05,-0.4796 v 0.1199 l -0.04,-0.48959 0.02,0.12989 -0.13988,-0.47959 0.05,0.1199 -0.18984,-0.38967 -13.82834,-20.9823 -0.31973,-0.39967 0.10991,0.10991 -0.38967,-0.30974 0.0999,0.06 -0.42964,-0.2298 0.1199,0.0499 -0.45961,-0.13988 0.1099,0.03 -0.47959,-0.0599 h 0.13988 l -0.4796,0.04 0.12989,-0.03 -0.47959,0.13988 0.12989,-0.05 -0.39966,0.20983 -8.36295,5.50535 -0.39966,0.31973 0.10991,-0.1099 -0.30974,0.38967 0.06,-0.0999 -0.22981,0.42964 0.05,-0.1199 -0.13988,0.45961 0.03,-0.12989 -0.05,0.4796 v -0.1199 l 0.04,0.48958 -0.03,-0.12989 0.13989,0.4796 -0.04,-0.1199 0.18984,0.38967 z"
     id="path32"
     inkscape:connector-curvature="0" />
  <path
     style="fill:#262626;fill-opacity:1;fill-rule:evenodd;stroke:none"
     d="m 240.3578,180.92487 v 13.22884 0 c 0,7.30384 -8.45287,13.21885 -18.88407,13.21885 -10.42121,0 -18.88407,-5.91501 -18.88407,-13.21885 0,0 0,0 0,0 v 0 -13.22884 z"
     id="path34"
     inkscape:connector-curvature="0" />
  <path
     style="fill:#7f7f7f;fill-opacity:1;fill-rule:nonzero;stroke:#7f7f7f;stroke-width:0.00999157px;stroke-linecap:butt;stroke-linejoin:round;stroke-miterlimit:4;stroke-dasharray:none;stroke-opacity:1"
     d="m 240.3578,180.26543 c 0.36968,0 0.66943,0.29975 0.66943,0.65944 v 13.22884 l -0.0999,1.39882 -0.28976,1.40881 c -0.01,0.03 -0.02,0.07 -0.03,0.0999 l -0.4696,1.26893 -0.65944,1.27892 -0.84929,1.22896 -0.98916,1.14903 -1.13904,1.0691 -1.25894,0.97918 -1.39882,0.88925 -1.49873,0.78933 -1.60865,0.67943 -1.68857,0.57951 -1.78849,0.45961 -1.85844,0.32972 -1.91838,0.20983 -1.97833,0.0699 -1.97833,-0.0699 -1.92837,-0.19984 -1.84844,-0.32972 -1.7785,-0.45961 -1.70856,-0.56952 -1.59865,-0.67943 -1.49874,-0.77934 -1.38883,-0.87926 -1.26893,-0.97917 -1.13904,-1.05911 -0.99915,-1.13904 -0.83929,-1.21897 -0.66944,-1.26893 -0.50957,-1.34886 c -0.01,-0.03 -0.02,-0.0699 -0.03,-0.0999 l -0.27977,-1.31888 -0.10991,-1.43879 v -13.2788 c 0,-0.35969 0.29975,-0.65944 0.65945,-0.65944 z m -37.76814,1.32888 0.66943,-0.66944 v 13.18888 l 0.0899,1.25893 0.27976,1.31889 -0.03,-0.0999 0.42963,1.18899 0.60949,1.14903 0.73938,1.09908 0.89924,1.03912 1.03912,0.97917 1.16901,0.89925 1.28892,0.8193 1.4188,0.73938 1.49874,0.63946 1.60864,0.54954 1.67858,0.43963 1.76851,0.30973 1.82846,0.19984 1.87841,0.0699 1.87842,-0.0699 1.83845,-0.18984 1.75851,-0.30974 1.68858,-0.43963 1.59865,-0.53955 1.51872,-0.63946 1.39882,-0.72938 1.2989,-0.80932 1.15903,-0.89924 1.03912,-0.96918 0.90923,-1.02913 0.74937,-1.08909 0.59949,-1.13903 0.46961,-1.26893 -0.03,0.0999 0.26978,-1.22896 0.0999,-1.3089 v -13.22884 l 0.65945,0.66944 z"
     id="path36"
     inkscape:connector-curvature="0" />
  <path
     style="fill:#c00000;fill-opacity:1;fill-rule:evenodd;stroke:none"
     d="m 238.44941,238.55625 c -0.19984,1.37884 0.74936,2.65776 2.1282,2.85759 0,0 0,0 0,0 v 0 l 9.9616,1.46876 v 0 c 1.37883,0.19984 2.65775,-0.74936 2.85759,-2.1282 0,0 0,0 0,0 v 0 l 3.6669,-24.91898 v 0 c 0.20983,-1.37884 -0.74937,-2.65776 -2.11821,-2.85759 0,0 0,0 0,0 v 0 l -9.9616,-1.46876 v 0 c -1.37883,-0.19983 -2.65775,0.74937 -2.85759,2.12821 0,0 0,0 0,0 z"
     id="path38"
     inkscape:connector-curvature="0" />
  <path
     style="fill:#e5b70d;fill-opacity:1;fill-rule:nonzero;stroke:#e5b70d;stroke-width:0.00999157px;stroke-linecap:butt;stroke-linejoin:round;stroke-miterlimit:4;stroke-dasharray:none;stroke-opacity:1"
     d="m 239.10885,238.65617 -0.01,0.43963 -0.01,-0.1199 0.0699,0.48959 -0.03,-0.13989 0.16986,0.45962 -0.06,-0.10991 0.24979,0.40965 -0.0699,-0.1099 0.32972,0.35969 -0.0999,-0.0799 0.38968,0.28976 -0.0999,-0.0599 0.43963,0.21981 -0.13988,-0.05 0.49958,0.1199 9.90164,1.45877 0.43963,0.01 h -0.1199 l 0.48959,-0.0699 -0.13988,0.04 0.45961,-0.16986 -0.10991,0.06 0.40966,-0.24979 -0.10991,0.0699 0.3597,-0.32972 -0.0799,0.0999 0.28976,-0.38967 -0.06,0.0999 0.21981,-0.43963 -0.0499,0.13988 0.1199,-0.49957 3.65691,-24.85903 0.02,-0.44962 0.01,0.13988 -0.0799,-0.48959 0.03,0.12989 -0.16986,-0.45961 0.0599,0.10991 -0.24979,-0.40966 0.0699,0.0999 -0.31973,-0.3597 0.0999,0.0899 -0.38967,-0.28976 0.0999,0.0599 -0.44962,-0.21981 0.13988,0.0499 -0.48958,-0.1199 -9.90165,-1.45877 -0.43963,-0.01 0.1199,-0.01 -0.48959,0.0699 0.13988,-0.03 -0.45961,0.16985 0.10991,-0.0599 -0.40966,0.24978 0.10991,-0.0699 -0.3597,0.32973 0.0799,-0.0999 -0.28976,0.38967 0.06,-0.0999 -0.21981,0.43962 0.05,-0.13988 -0.11989,0.49958 z m 2.37799,-25.16877 0.1199,-0.49958 c 0.01,-0.0499 0.03,-0.0999 0.05,-0.13988 l 0.21981,-0.43963 c 0.02,-0.04 0.04,-0.0699 0.06,-0.0999 l 0.28976,-0.38967 c 0.02,-0.04 0.05,-0.07 0.0799,-0.0999 l 0.3597,-0.32972 c 0.04,-0.03 0.0699,-0.05 0.10991,-0.0699 l 0.40965,-0.24979 c 0.03,-0.03 0.0699,-0.05 0.10991,-0.06 l 0.45961,-0.16986 c 0.05,-0.02 0.0899,-0.03 0.13988,-0.04 l 0.48959,-0.0699 c 0.04,0 0.0799,0 0.1199,0 l 0.57951,0.03 10.02154,1.47875 0.48959,0.1199 c 0.05,0.01 0.0899,0.02 0.13988,0.05 l 0.44962,0.21981 c 0.03,0.01 0.0699,0.04 0.0999,0.06 l 0.38967,0.28976 c 0.04,0.03 0.0699,0.0599 0.0999,0.0899 l 0.31973,0.3597 c 0.03,0.03 0.05,0.06 0.0699,0.0999 l 0.24979,0.40966 c 0.03,0.03 0.05,0.0699 0.06,0.10991 l 0.16985,0.45961 c 0.01,0.04 0.03,0.0899 0.03,0.12989 l 0.0799,0.48959 c 0.01,0.0499 0.01,0.0899 0.01,0.13988 l -0.04,0.56952 -3.6769,24.97892 -0.1199,0.49958 c -0.01,0.05 -0.03,0.0999 -0.05,0.13988 l -0.21981,0.43963 c -0.02,0.04 -0.04,0.07 -0.06,0.0999 l -0.28976,0.38967 c -0.03,0.04 -0.05,0.0699 -0.0799,0.0999 l -0.3597,0.32972 c -0.04,0.03 -0.0699,0.05 -0.1099,0.0699 l -0.40966,0.24979 c -0.04,0.03 -0.0699,0.05 -0.10991,0.0599 l -0.45961,0.16986 c -0.05,0.02 -0.0899,0.03 -0.13988,0.03 l -0.48959,0.0699 c -0.04,0.01 -0.0799,0.01 -0.1199,0.01 l -0.57951,-0.03 -10.02154,-1.47875 -0.49958,-0.1199 c -0.05,-0.01 -0.0999,-0.03 -0.13988,-0.05 l -0.43963,-0.21982 c -0.04,-0.02 -0.0699,-0.04 -0.0999,-0.0599 l -0.38967,-0.28975 c -0.04,-0.03 -0.0699,-0.05 -0.0999,-0.0799 l -0.32972,-0.3597 c -0.03,-0.04 -0.05,-0.0699 -0.0699,-0.10991 l -0.24979,-0.40965 c -0.03,-0.04 -0.05,-0.0699 -0.0599,-0.10991 l -0.16985,-0.45961 c -0.02,-0.05 -0.03,-0.0899 -0.04,-0.13988 l -0.0699,-0.48959 c 0,-0.04 0,-0.0799 0,-0.1199 l 0.03,-0.57951 z"
     id="path40"
     inkscape:connector-curvature="0" />
  <path
     style="fill:#c00000;fill-opacity:1;fill-rule:evenodd;stroke:none"
     d="m 238.07972,235.69866 c 0,-1.03912 0.84928,-1.8884 1.8984,-1.8884 0,0 0,0 0,0 v 0 h 18.87407 v 0 c 1.04912,0 1.88841,0.84928 1.88841,1.8884 0,0 0,0 0,0 v 0 7.56362 0 c 0,1.03913 -0.83929,1.88841 -1.88841,1.88841 0,0 0,0 0,0 v 0 h -18.87407 v 0 c -1.04912,0 -1.8984,-0.84928 -1.8984,-1.88841 0,0 0,0 0,0 z"
     id="path42"
     inkscape:connector-curvature="0" />
  <path
     style="fill:#e5b70d;fill-opacity:1;fill-rule:nonzero;stroke:#e5b70d;stroke-width:0.00999157px;stroke-linecap:butt;stroke-linejoin:round;stroke-miterlimit:4;stroke-dasharray:none;stroke-opacity:1"
     d="m 237.42027,235.69866 0.04,-0.44962 c 0.01,-0.04 0.02,-0.0799 0.03,-0.12989 l 0.10991,-0.3497 c 0.01,-0.03 0.02,-0.0699 0.04,-0.0999 l 0.16985,-0.32972 c 0.03,-0.05 0.0599,-0.0999 0.0999,-0.13988 l 0.2398,-0.26977 0.33971,-0.29975 c 0.04,-0.03 0.0799,-0.06 0.1199,-0.0799 l 0.31973,-0.16986 c 0.04,-0.02 0.0799,-0.04 0.1199,-0.05 l 0.3597,-0.10991 c 0.04,-0.02 0.0799,-0.02 0.1199,-0.03 l 0.37967,-0.04 h 18.94402 l 0.44962,0.04 c 0.05,0.01 0.0899,0.01 0.12989,0.03 l 0.3597,0.10991 c 0.04,0.01 0.0799,0.03 0.1199,0.05 l 0.31973,0.16986 c 0.04,0.02 0.0799,0.0499 0.1199,0.0799 l 0.27976,0.2398 c 0.02,0.02 0.05,0.05 0.0699,0.0699 l 0.22981,0.26977 c 0.04,0.04 0.0599,0.0799 0.0899,0.12989 l 0.16986,0.32972 c 0.01,0.03 0.03,0.0699 0.04,0.0999 l 0.1099,0.3497 c 0.01,0.05 0.02,0.0899 0.03,0.12989 l 0.04,0.37968 v 7.63356 l -0.04,0.44962 c -0.01,0.05 -0.02,0.0899 -0.03,0.12989 l -0.1099,0.34971 c -0.01,0.04 -0.03,0.0799 -0.04,0.10991 l -0.16986,0.32972 c -0.02,0.04 -0.05,0.0799 -0.0799,0.1199 l -0.2298,0.27976 c -0.03,0.03 -0.06,0.06 -0.0899,0.0899 l -0.27976,0.2298 c -0.04,0.03 -0.0699,0.05 -0.10991,0.0699 l -0.31973,0.16986 c -0.04,0.02 -0.0799,0.04 -0.1199,0.05 l -0.3597,0.1099 c -0.04,0.01 -0.0799,0.02 -0.12989,0.03 l -0.37968,0.04 h -18.94401 l -0.44962,-0.04 c -0.04,-0.01 -0.0799,-0.02 -0.1199,-0.03 l -0.3597,-0.1099 c -0.04,-0.01 -0.0799,-0.03 -0.1199,-0.05 l -0.31973,-0.16986 c -0.04,-0.02 -0.0699,-0.04 -0.10991,-0.0699 l -0.27976,-0.2298 c -0.03,-0.02 -0.06,-0.05 -0.0799,-0.0799 l -0.2398,-0.27976 c -0.04,-0.04 -0.06,-0.0799 -0.0899,-0.12989 l -0.16985,-0.32972 c -0.02,-0.03 -0.03,-0.0699 -0.04,-0.10991 l -0.10991,-0.34971 c -0.01,-0.04 -0.02,-0.0799 -0.03,-0.12989 l -0.04,-0.37968 z m 1.32888,7.49368 0.04,0.37968 -0.03,-0.12989 0.10991,0.34971 -0.04,-0.0999 0.16985,0.32972 -0.0899,-0.12989 0.2398,0.27977 -0.0799,-0.0799 0.27977,0.22981 -0.10991,-0.0699 0.31973,0.16986 -0.1199,-0.05 0.3597,0.10991 -0.12989,-0.03 0.30974,0.04 h 18.80413 l 0.37968,-0.04 -0.1199,0.03 0.3597,-0.10991 -0.1199,0.05 0.31973,-0.16986 -0.10991,0.0699 0.27977,-0.22981 -0.0899,0.0899 0.22981,-0.27977 -0.0799,0.1199 0.16985,-0.32972 -0.04,0.0999 0.1099,-0.34971 -0.03,0.12989 0.04,-0.30974 v -7.49367 l -0.04,-0.37968 0.03,0.12989 -0.1099,-0.34971 0.04,0.10991 -0.16985,-0.32972 0.0899,0.12989 -0.2298,-0.26978 0.0699,0.0699 -0.27977,-0.2398 0.1199,0.0799 -0.31973,-0.16986 0.1199,0.05 -0.3597,-0.10991 0.1199,0.03 -0.30974,-0.04 h -18.80413 l -0.37968,0.04 0.12989,-0.03 -0.3597,0.10991 0.1199,-0.05 -0.31973,0.16986 0.1199,-0.0799 -0.21982,0.17985 -0.23979,0.26977 0.0999,-0.13988 -0.16985,0.32972 0.04,-0.10991 -0.10991,0.34971 0.03,-0.12989 -0.04,0.30973 z"
     id="path44"
     inkscape:connector-curvature="0" />
  <path
     style="fill:#c00000;fill-opacity:1;fill-rule:evenodd;stroke:none"
     d="m 233.33372,152.37895 c 0.46961,-0.92921 1.60864,-1.2989 2.53786,-0.8193 0,0 0,0 0,0 v 0 l 13.63849,6.97411 v 0 c 0.92922,0.4796 1.29891,1.61864 0.8293,2.54785 0,0 0,0 0,0 v 0 l -3.44709,6.72433 v 0 c -0.4696,0.92922 -1.60864,1.2989 -2.53786,0.81931 0,0 0,0 0,0 v 0 l -13.63849,-6.97412 v 0 c -0.92922,-0.47959 -1.2989,-1.61863 -0.8293,-2.54785 0,0 0,0 0,0 z"
     id="path46"
     inkscape:connector-curvature="0" />
  <path
     style="fill:#e5b70d;fill-opacity:1;fill-rule:nonzero;stroke:#e5b70d;stroke-width:0.00999157px;stroke-linecap:butt;stroke-linejoin:round;stroke-miterlimit:4;stroke-dasharray:none;stroke-opacity:1"
     d="m 232.74422,152.07921 0.24979,-0.37968 c 0.02,-0.03 0.04,-0.06 0.0699,-0.0899 l 0.24979,-0.26977 c 0.03,-0.04 0.0799,-0.0799 0.1199,-0.10991 l 0.30974,-0.19983 c 0.03,-0.01 0.06,-0.03 0.0899,-0.04 l 0.32972,-0.14988 c 0.04,-0.02 0.0799,-0.04 0.12989,-0.05 l 0.34971,-0.0799 c 0.04,-0.01 0.0799,-0.01 0.12989,-0.01 l 0.36969,-0.01 c 0.05,0 0.0899,0 0.13988,0.01 l 0.35969,0.0699 c 0.04,0.01 0.0799,0.02 0.1199,0.03 l 0.3597,0.13988 13.69844,7.00409 0.37968,0.24979 c 0.03,0.02 0.0699,0.05 0.0999,0.0699 l 0.26977,0.25978 c 0.03,0.03 0.06,0.0699 0.0799,0.0999 l 0.20983,0.29974 c 0.03,0.04 0.05,0.0899 0.0699,0.12989 l 0.13988,0.33972 c 0.02,0.03 0.03,0.0699 0.03,0.1099 l 0.0799,0.34971 c 0.01,0.04 0.02,0.0799 0.02,0.12989 l 0.01,0.36969 c 0,0.04 0,0.0799 -0.01,0.1199 l -0.06,0.35969 c -0.01,0.05 -0.02,0.0899 -0.03,0.13989 l -0.13989,0.35969 -3.47706,6.78428 -0.24979,0.37968 c -0.02,0.03 -0.04,0.0599 -0.0699,0.0899 l -0.24979,0.26978 c -0.03,0.04 -0.0699,0.0699 -0.1199,0.0999 l -0.29975,0.19983 c -0.03,0.02 -0.06,0.04 -0.0999,0.05 l -0.33972,0.14987 c -0.04,0.02 -0.0799,0.04 -0.1199,0.04 l -0.3497,0.0799 c -0.04,0.01 -0.0799,0.02 -0.12989,0.02 l -0.36969,0.01 c -0.05,0 -0.0899,0 -0.13988,-0.01 l -0.3597,-0.07 c -0.04,-0.01 -0.0799,-0.02 -0.1199,-0.03 l -0.35969,-0.13988 -13.69845,-7.00409 -0.37968,-0.24979 c -0.04,-0.02 -0.0699,-0.05 -0.0999,-0.0799 l -0.26978,-0.25978 c -0.03,-0.02 -0.0599,-0.06 -0.0799,-0.0899 l -0.20982,-0.29975 c -0.03,-0.04 -0.05,-0.0899 -0.0699,-0.12989 l -0.13988,-0.33971 c -0.02,-0.04 -0.03,-0.0699 -0.04,-0.10991 l -0.0799,-0.3497 c -0.01,-0.04 -0.01,-0.0799 -0.01,-0.12989 l -0.01,-0.36969 c 0,-0.04 0,-0.0799 0.01,-0.1199 l 0.06,-0.3597 c 0,-0.05 0.02,-0.0899 0.03,-0.13988 l 0.13988,-0.3597 z m -2.22812,7.27386 -0.13988,0.3597 0.03,-0.13988 -0.06,0.35969 0.01,-0.1199 0.01,0.36969 -0.02,-0.12989 0.0799,0.34971 -0.03,-0.10991 0.13988,0.33971 -0.0699,-0.12989 0.20982,0.29975 -0.0799,-0.0999 0.26977,0.25978 -0.0999,-0.0699 0.25978,0.16986 13.57854,6.94414 0.3597,0.13988 -0.1199,-0.03 0.3597,0.0699 -0.13988,-0.01 0.36968,-0.01 -0.12989,0.01 0.34971,-0.0799 -0.1199,0.04 0.33971,-0.14987 -0.1099,0.0599 0.29974,-0.19983 -0.1099,0.0999 0.24978,-0.26977 -0.0699,0.0899 0.16986,-0.25978 3.41712,-6.66437 0.13988,-0.3597 -0.03,0.13988 0.0599,-0.3597 -0.01,0.1199 -0.01,-0.36969 0.01,0.1299 -0.0799,-0.34971 0.04,0.10991 -0.13989,-0.33972 0.0699,0.12989 -0.20983,-0.29974 0.0799,0.0899 -0.26977,-0.25978 0.0999,0.0799 -0.25978,-0.16985 -13.57855,-6.94415 -0.35969,-0.13988 0.11989,0.03 -0.35969,-0.0699 0.13988,0.01 -0.36969,0.01 0.12989,-0.02 -0.3497,0.0799 0.12989,-0.04 -0.32972,0.14988 0.0899,-0.05 -0.30974,0.19983 0.1199,-0.0999 -0.24979,0.26978 0.0699,-0.0899 -0.16985,0.25978 z"
     id="path48"
     inkscape:connector-curvature="0" />
  <path
     style="fill:#c00000;fill-opacity:1;fill-rule:evenodd;stroke:none"
     d="m 202.58966,152.58878 c 0,-3.13736 2.53786,-5.67521 5.67521,-5.67521 0,0 0,0 0,0 v 0 h 26.4277 v 0 c 3.12737,0 5.66523,2.53785 5.66523,5.67521 0,0 0,0 0,0 v 0 22.67087 0 c 0,3.12736 -2.53786,5.66522 -5.66523,5.66522 0,0 0,0 0,0 v 0 h -26.4277 v 0 c -3.13735,0 -5.67521,-2.53786 -5.67521,-5.66522 0,0 0,0 0,0 z"
     id="path50"
     inkscape:connector-curvature="0" />
  <path
     style="fill:#984807;fill-opacity:1;fill-rule:nonzero;stroke:#984807;stroke-width:0.00999157px;stroke-linecap:butt;stroke-linejoin:round;stroke-miterlimit:4;stroke-dasharray:none;stroke-opacity:1"
     d="m 201.93021,152.58878 0.1199,-1.20898 c 0.01,-0.05 0.01,-0.0899 0.03,-0.12989 l 0.32972,-1.05911 c 0.01,-0.04 0.03,-0.0799 0.05,-0.1199 l 0.51956,-0.96918 c 0.02,-0.04 0.04,-0.0699 0.0699,-0.10991 l 0.68942,-0.83929 c 0.03,-0.03 0.0599,-0.06 0.0899,-0.0899 l 0.83929,-0.68942 c 0.04,-0.03 0.0699,-0.05 0.10991,-0.0699 l 0.96918,-0.51956 c 0.04,-0.02 0.0799,-0.04 0.1199,-0.05 l 1.05911,-0.32972 c 0.04,-0.01 0.0799,-0.02 0.12989,-0.03 l 1.14903,-0.1199 h 26.48765 l 1.20898,0.1199 c 0.05,0.01 0.0899,0.01 0.1299,0.03 l 1.06909,0.32972 c 0.04,0.01 0.0799,0.03 0.1199,0.05 l 0.95919,0.51956 c 0.04,0.02 0.0699,0.04 0.10991,0.0699 l 0.83929,0.68942 c 0.03,0.03 0.06,0.0599 0.0899,0.0899 l 0.68941,0.83929 c 0.03,0.04 0.05,0.0699 0.0699,0.10991 l 0.51956,0.96918 c 0.02,0.04 0.04,0.0799 0.05,0.1199 l 0.32972,1.05911 c 0.01,0.04 0.02,0.0799 0.03,0.12989 l 0.1199,1.14903 v 22.73082 l -0.1199,1.20898 c -0.01,0.05 -0.02,0.0899 -0.03,0.12989 l -0.32972,1.0691 c -0.01,0.04 -0.03,0.0799 -0.05,0.1199 l -0.51956,0.95919 c -0.02,0.04 -0.04,0.0699 -0.0699,0.10991 l -0.68941,0.83929 c -0.03,0.03 -0.06,0.06 -0.0899,0.0899 l -0.83929,0.68942 c -0.04,0.03 -0.0699,0.05 -0.10991,0.0699 l -0.95919,0.51956 c -0.04,0.02 -0.0799,0.04 -0.1199,0.05 l -1.06909,0.32972 c -0.04,0.01 -0.0799,0.02 -0.1299,0.03 l -1.13903,0.1199 h -26.49765 l -1.20898,-0.1199 c -0.05,-0.01 -0.0899,-0.02 -0.12989,-0.03 l -1.05911,-0.32972 c -0.04,-0.01 -0.0799,-0.03 -0.1199,-0.05 l -0.96918,-0.51956 c -0.04,-0.02 -0.0799,-0.04 -0.10991,-0.0699 l -0.83929,-0.68942 c -0.03,-0.03 -0.06,-0.06 -0.0899,-0.0899 l -0.68942,-0.83929 c -0.03,-0.04 -0.05,-0.0699 -0.0699,-0.10991 l -0.51956,-0.95919 c -0.02,-0.04 -0.04,-0.0799 -0.05,-0.1199 l -0.32972,-1.0691 c -0.02,-0.04 -0.02,-0.0799 -0.03,-0.12989 l -0.1199,-1.13904 z m 1.32888,22.60093 0.1199,1.13904 -0.03,-0.1199 0.32972,1.0691 -0.05,-0.1199 0.51956,0.95919 -0.0699,-0.10991 0.68942,0.8393 -0.0899,-0.0899 0.83929,0.68942 -0.10991,-0.0699 0.96918,0.51956 -0.1199,-0.05 1.05911,0.32972 -0.12989,-0.03 1.07909,0.1199 h 26.35776 l 1.13904,-0.1199 -0.1199,0.03 1.0691,-0.32972 -0.1199,0.05 0.95919,-0.51956 -0.1099,0.0699 0.83929,-0.68942 -0.0899,0.0899 0.68942,-0.8393 -0.0699,0.10991 0.51956,-0.95919 -0.05,0.1199 0.32972,-1.0691 -0.03,0.1199 0.1199,-1.0691 v -22.60093 l -0.1199,-1.14903 0.03,0.12989 -0.32972,-1.05911 0.05,0.1199 -0.51956,-0.96918 0.0699,0.10991 -0.68942,-0.8393 0.0899,0.0899 -0.83929,-0.68942 0.1099,0.0699 -0.95919,-0.51956 0.1199,0.05 -1.0691,-0.32973 0.1199,0.03 -1.0691,-0.1199 H 208.3348 l -1.14903,0.1199 0.12989,-0.03 -1.05911,0.32973 0.1199,-0.05 -0.96918,0.51956 0.10991,-0.0699 -0.83929,0.68942 0.0899,-0.0899 -0.68942,0.8393 0.0699,-0.10991 -0.51956,0.96918 0.05,-0.1199 -0.32972,1.05911 0.03,-0.12989 -0.1199,1.07909 z"
     id="path52"
     inkscape:connector-curvature="0" />
  <path
     style="fill:#c00000;fill-opacity:1;fill-rule:evenodd;stroke:none"
     d="m 210.14329,137.47153 c 0,-7.30383 5.07571,-13.22884 11.33044,-13.22884 0,0 0,0 0,0 v 0 c 6.26471,0 11.33044,5.92501 11.33044,13.22884 v 0 c 0,7.30384 -5.06573,13.22884 -11.33044,13.22884 0,0 0,0 0,0 v 0 c -6.25473,0 -11.33044,-5.925 -11.33044,-13.22884 0,0 0,0 0,0 z"
     id="path54"
     inkscape:connector-curvature="0" />
  <path
     style="fill:#ffc000;fill-opacity:1;fill-rule:nonzero;stroke:#ffc000;stroke-width:0.00999157px;stroke-linecap:butt;stroke-linejoin:round;stroke-miterlimit:4;stroke-dasharray:none;stroke-opacity:1"
     d="m 209.48384,137.50151 0.06,-1.39882 0.16986,-1.37884 0.28975,-1.32888 0.39967,-1.26893 0.49957,-1.20898 0.58951,-1.13904 0.67942,-1.06909 0.76936,-0.98917 0.84928,-0.90923 0.91922,-0.80932 0.98917,-0.69941 1.04911,-0.59949 1.09908,-0.46961 1.15902,-0.3497 1.19899,-0.21982 1.22896,-0.0799 1.23896,0.0699 1.20898,0.20982 1.15902,0.34971 1.10906,0.45961 1.05911,0.5895 0.98916,0.69941 0.92922,0.79933 0.84928,0.90923 0.76935,0.98917 0.68942,1.0591 0.5995,1.14904 0.49958,1.20898 0.39966,1.25893 0.29975,1.32888 0.17984,1.37884 0.06,1.40881 -0.06,1.39882 -0.16985,1.37884 -0.28976,1.32888 -0.39966,1.25893 -0.49958,1.21897 -0.57951,1.13904 -0.69941,1.07909 -0.75936,0.97918 -0.83929,0.90923 -0.92922,0.80932 -0.97917,0.69941 -1.04912,0.5895 -1.11905,0.47959 -1.13904,0.34971 -1.20898,0.21981 -1.23896,0.0799 -1.23895,-0.0699 -1.189,-0.20983 -1.16901,-0.3497 -1.10907,-0.45962 -1.04911,-0.59949 -0.99916,-0.68942 -0.91922,-0.79932 -0.85928,-0.90924 -0.76935,-0.98916 -0.68942,-1.0691 -0.59949,-1.13904 -0.49958,-1.20898 -0.39966,-1.26893 -0.29975,-1.31888 -0.17985,-1.37884 z m 1.38883,1.23895 0.15986,1.25894 0.25979,1.20898 0.35969,1.15902 0.45961,1.10907 0.53955,1.03912 0.60949,0.96918 0.68941,0.88925 0.75936,0.80932 0.81931,0.71939 0.87926,0.61948 0.91922,0.52955 0.97918,0.41965 1.00915,0.30974 1.03912,0.18984 1.07909,0.0699 1.08908,-0.06 1.04912,-0.17985 1.01914,-0.30974 0.97917,-0.40965 0.92922,-0.51957 0.87925,-0.61947 0.82931,-0.7094 0.75935,-0.80932 0.68942,-0.89924 0.62947,-0.95919 0.53955,-1.03913 0.45961,-1.10906 0.3597,-1.14903 0.26977,-1.20898 0.16985,-1.25894 0.06,-1.2989 -0.06,-1.28891 -0.15986,-1.25894 -0.25978,-1.21897 -0.3597,-1.14903 -0.45961,-1.10907 -0.52955,-1.02913 -0.61948,-0.97917 -0.68942,-0.88925 -0.74937,-0.80932 -0.8293,-0.71939 -0.86926,-0.62947 -0.91923,-0.51957 -0.98916,-0.41964 -0.99916,-0.30974 -1.05911,-0.18984 -1.07909,-0.0699 -1.07909,0.06 -1.03912,0.17985 -1.02913,0.30974 -0.96918,0.39966 -0.92922,0.52955 -0.88925,0.61948 -0.81931,0.7094 -0.76935,0.80932 -0.68942,0.88925 -0.61948,0.96918 -0.54953,1.03912 -0.45961,1.09908 -0.3597,1.15902 -0.26977,1.20898 -0.16986,1.25894 -0.06,1.2989 z"
     id="path56"
     inkscape:connector-curvature="0" />
  <path
     style="fill:#c00000;fill-opacity:1;fill-rule:evenodd;stroke:none"
     d="m 201.21082,205.57408 c -0.67943,-1.21897 -0.2398,-2.74768 0.97917,-3.42711 0,0 0,0 0,0 v 0 l 8.80258,-4.88588 v 0 c 1.20898,-0.67943 2.74768,-0.2398 3.41712,0.97918 0,0 0,0 0,0 v 0 l 12.22968,22.02142 v 0 c 0.67943,1.21897 0.2398,2.74768 -0.97918,3.42711 0,0 0,0 0,0 v 0 l -8.80257,4.88587 v 0 c -1.21897,0.67943 -2.74768,0.2398 -3.41712,-0.97917 0,0 0,0 0,0 z"
     id="path58"
     inkscape:connector-curvature="0" />
  <path
     style="fill:#e5b70d;fill-opacity:1;fill-rule:nonzero;stroke:#e5b70d;stroke-width:0.00999157px;stroke-linecap:butt;stroke-linejoin:round;stroke-miterlimit:4;stroke-dasharray:none;stroke-opacity:1"
     d="m 200.63131,205.9038 -0.22981,-0.52955 c -0.01,-0.04 -0.03,-0.0799 -0.04,-0.1199 l -0.10991,-0.4796 c -0.01,-0.05 -0.01,-0.0999 -0.01,-0.14987 v -0.48959 c 0,-0.04 0,-0.0799 0.01,-0.1199 l 0.0899,-0.47959 c 0.01,-0.04 0.02,-0.0699 0.03,-0.10991 l 0.16986,-0.44962 c 0.02,-0.05 0.04,-0.0899 0.0699,-0.12989 l 0.26977,-0.40966 c 0.02,-0.03 0.04,-0.0599 0.0699,-0.0899 l 0.33971,-0.3597 c 0.03,-0.04 0.0699,-0.0699 0.10991,-0.0899 l 0.41965,-0.28976 8.85253,-4.92584 0.52955,-0.22981 c 0.04,-0.01 0.0799,-0.03 0.1199,-0.04 l 0.4796,-0.10991 c 0.04,-0.01 0.0899,-0.01 0.13988,-0.01 h 0.48958 c 0.05,0 0.0899,0 0.1299,0.01 l 0.4696,0.0899 c 0.04,0.01 0.0699,0.02 0.10991,0.03 l 0.44962,0.16986 c 0.0499,0.02 0.0899,0.04 0.12989,0.0699 l 0.40965,0.26977 c 0.03,0.02 0.0599,0.04 0.0899,0.0699 l 0.35969,0.33971 c 0.04,0.03 0.0699,0.0699 0.0899,0.10991 l 0.28975,0.41965 12.26965,22.07138 0.22981,0.52955 c 0.01,0.04 0.03,0.0799 0.04,0.1199 l 0.10991,0.48959 c 0.01,0.05 0.01,0.0999 0.01,0.13988 v 0.47959 c 0,0.05 0,0.0899 -0.01,0.12989 l -0.0899,0.4796 c -0.01,0.04 -0.02,0.0699 -0.03,0.10991 l -0.16985,0.44962 c -0.02,0.05 -0.04,0.0899 -0.07,0.12989 l -0.26977,0.40965 c -0.02,0.03 -0.04,0.0599 -0.0699,0.0899 l -0.33971,0.35969 c -0.03,0.04 -0.0699,0.0699 -0.10991,0.0899 l -0.41965,0.28975 -8.85253,4.92585 -0.52955,0.2298 c -0.04,0.01 -0.0799,0.03 -0.1199,0.03 l -0.47959,0.10991 c -0.05,0.02 -0.0999,0.02 -0.14988,0.02 h -0.48959 c -0.04,0 -0.0799,0 -0.11989,-0.01 l -0.4796,-0.0899 c -0.04,-0.01 -0.0699,-0.02 -0.10991,-0.03 l -0.44962,-0.16986 c -0.05,-0.02 -0.0999,-0.04 -0.13988,-0.0699 l -0.39966,-0.26977 c -0.03,-0.02 -0.06,-0.05 -0.0799,-0.0699 l -0.35969,-0.33972 c -0.04,-0.03 -0.0699,-0.0699 -0.0899,-0.1099 l -0.28975,-0.41965 z m 13.35873,21.32201 0.28976,0.41965 -0.0899,-0.10991 0.3597,0.33971 -0.0799,-0.0699 0.39966,0.26978 -0.13988,-0.07 0.44962,0.16986 -0.10991,-0.03 0.4796,0.0899 -0.1299,-0.01 h 0.48959 l -0.13988,0.01 0.47959,-0.10991 -0.11989,0.04 0.40965,-0.16986 8.75262,-4.84591 0.41964,-0.28975 -0.1099,0.0899 0.33971,-0.3597 -0.0699,0.0899 0.26977,-0.40966 -0.0699,0.12989 0.16986,-0.44962 -0.03,0.10991 0.0899,-0.4796 -0.01,0.1199 v -0.47959 l 0.01,0.14987 -0.10991,-0.48959 0.04,0.1199 -0.16985,-0.40965 -12.18972,-21.97147 -0.28975,-0.41964 0.0899,0.10991 -0.3597,-0.33972 0.0899,0.0699 -0.40966,-0.26977 0.12989,0.0699 -0.44962,-0.16985 0.10991,0.03 -0.4696,-0.0899 0.11989,0.01 h -0.48958 l 0.14987,-0.02 -0.47959,0.10991 0.11989,-0.03 -0.40965,0.16985 -8.75262,4.84592 -0.41964,0.28975 0.10991,-0.0899 -0.33972,0.35969 0.0699,-0.0899 -0.26977,0.40965 0.0699,-0.12989 -0.16985,0.44962 0.03,-0.1099 -0.0899,0.47959 0.01,-0.12989 v 0.48959 l -0.02,-0.13988 0.10991,0.47959 -0.03,-0.1199 0.16985,0.40966 z"
     id="path60"
     inkscape:connector-curvature="0" />
  <path
     style="fill:#c00000;fill-opacity:1;fill-rule:evenodd;stroke:none"
     d="m 206.73616,246.10988 c -0.19983,1.37884 0.74937,2.65776 2.1282,2.85759 0,0 0,0 0,0 v 0 l 9.9616,1.46876 v 0 c 1.37884,0.19983 2.65776,-0.74937 2.85759,-2.1282 0,0 0,0 0,0 v 0 l 3.66691,-24.91898 v 0 c 0.20982,-1.37884 -0.73938,-2.65776 -2.11822,-2.85759 0,0 0,0 0,0 v 0 l -9.96159,-1.46876 v 0 c -1.37884,-0.19983 -2.65776,0.74937 -2.85759,2.1282 0,0 0,0 0,0 z"
     id="path62"
     inkscape:connector-curvature="0" />
  <path
     style="fill:#e5b70d;fill-opacity:1;fill-rule:nonzero;stroke:#e5b70d;stroke-width:0.00999157px;stroke-linecap:butt;stroke-linejoin:round;stroke-miterlimit:4;stroke-dasharray:none;stroke-opacity:1"
     d="m 207.3956,246.2098 -0.01,0.43963 -0.01,-0.1199 0.0699,0.48958 -0.03,-0.13988 0.16985,0.45961 -0.0599,-0.1099 0.24979,0.40965 -0.0699,-0.10991 0.32972,0.3597 -0.0999,-0.0799 0.38967,0.28975 -0.0999,-0.0599 0.43963,0.21982 -0.13988,-0.05 0.49958,0.1199 9.90165,1.45877 0.43963,0.01 h -0.1199 l 0.48958,-0.0699 -0.13988,0.04 0.45961,-0.16986 -0.1099,0.06 0.40965,-0.24979 -0.10991,0.0699 0.3597,-0.32972 -0.0799,0.0999 0.28975,-0.38967 -0.06,0.0999 0.21982,-0.43963 -0.05,0.13988 0.1199,-0.49958 3.65691,-24.85903 0.02,-0.44962 0.01,0.13989 -0.0799,-0.48959 0.02,0.10991 -0.15987,-0.45962 0.07,0.12989 -0.24979,-0.40965 0.0699,0.10991 -0.32973,-0.3597 0.0999,0.0799 -0.38967,-0.28975 0.0999,0.06 -0.43963,-0.21982 0.13988,0.05 -0.49958,-0.1199 -9.90165,-1.45877 -0.43963,-0.01 0.1199,-0.01 -0.48958,0.0699 0.13988,-0.03 -0.45961,0.16985 0.1099,-0.0599 -0.40965,0.24979 0.10991,-0.0699 -0.3597,0.32972 0.0799,-0.0999 -0.28975,0.38967 0.0599,-0.0999 -0.21982,0.43963 0.05,-0.13988 -0.1199,0.49958 z m 2.378,-25.16877 0.1199,-0.49958 c 0.01,-0.05 0.03,-0.0999 0.0499,-0.13988 l 0.21982,-0.43963 c 0.02,-0.04 0.04,-0.0699 0.06,-0.0999 l 0.28975,-0.38967 c 0.02,-0.04 0.05,-0.0699 0.0799,-0.0999 l 0.35969,-0.32972 c 0.04,-0.03 0.0699,-0.05 0.10991,-0.07 l 0.40965,-0.24978 c 0.03,-0.03 0.0699,-0.05 0.10991,-0.06 l 0.45961,-0.16986 c 0.05,-0.02 0.0899,-0.03 0.13989,-0.04 l 0.48958,-0.0699 c 0.04,0 0.0799,0 0.1199,0 l 0.57951,0.03 10.02155,1.47875 0.49958,0.1199 c 0.0499,0.01 0.0999,0.03 0.13988,0.05 l 0.43963,0.21981 c 0.04,0.02 0.0699,0.04 0.0999,0.06 l 0.38967,0.28976 c 0.04,0.02 0.0699,0.0499 0.0999,0.0799 l 0.32972,0.35969 c 0.03,0.04 0.05,0.07 0.0699,0.10991 l 0.24979,0.40966 c 0.03,0.04 0.05,0.0799 0.0599,0.12989 l 0.15987,0.45961 c 0.02,0.03 0.03,0.0699 0.03,0.10991 l 0.0799,0.48958 c 0.01,0.05 0.01,0.0899 0.01,0.13989 l -0.04,0.56951 -3.6769,24.97893 -0.1199,0.49958 c -0.01,0.05 -0.03,0.0999 -0.05,0.13988 l -0.21981,0.43963 c -0.02,0.04 -0.04,0.0699 -0.06,0.0999 l -0.28975,0.38967 c -0.03,0.04 -0.05,0.0699 -0.0799,0.0999 l -0.35969,0.32973 c -0.04,0.03 -0.0699,0.05 -0.10991,0.0699 l -0.40966,0.24979 c -0.04,0.03 -0.0699,0.0499 -0.1099,0.0599 l -0.45961,0.16985 c -0.05,0.02 -0.0899,0.03 -0.13989,0.03 l -0.48958,0.0699 c -0.04,0.01 -0.0799,0.01 -0.1199,0.01 l -0.57951,-0.03 -10.02155,-1.47876 -0.49958,-0.1199 c -0.05,-0.01 -0.0999,-0.03 -0.13988,-0.0499 l -0.43963,-0.21982 c -0.04,-0.02 -0.0699,-0.04 -0.0999,-0.0599 l -0.38968,-0.28975 c -0.04,-0.03 -0.0699,-0.05 -0.0999,-0.0799 l -0.32972,-0.35969 c -0.03,-0.04 -0.05,-0.0699 -0.0699,-0.10991 l -0.24979,-0.40965 c -0.03,-0.04 -0.05,-0.07 -0.0599,-0.10991 l -0.16986,-0.45961 c -0.02,-0.05 -0.03,-0.0899 -0.04,-0.13989 l -0.0699,-0.48958 c 0,-0.04 0,-0.0799 0,-0.1199 l 0.03,-0.57951 z"
     id="path64"
     inkscape:connector-curvature="0" />
  <path
     style="fill:#c00000;fill-opacity:1;fill-rule:evenodd;stroke:none"
     d="m 206.36647,243.25229 c 0,-1.03912 0.84928,-1.8884 1.8984,-1.8884 0,0 0,0 0,0 v 0 h 18.87408 v 0 c 1.04911,0 1.8884,0.84928 1.8884,1.8884 0,0 0,0 0,0 v 0 7.56362 0 c 0,1.03912 -0.83929,1.88841 -1.8884,1.88841 0,0 0,0 0,0 v 0 h -18.87408 v 0 c -1.04912,0 -1.8984,-0.84929 -1.8984,-1.88841 0,0 0,0 0,0 z"
     id="path66"
     inkscape:connector-curvature="0" />
  <path
     style="fill:#e5b70d;fill-opacity:1;fill-rule:nonzero;stroke:#e5b70d;stroke-width:0.00999157px;stroke-linecap:butt;stroke-linejoin:round;stroke-miterlimit:4;stroke-dasharray:none;stroke-opacity:1"
     d="m 205.70703,243.25229 0.04,-0.44962 c 0.01,-0.04 0.02,-0.0799 0.03,-0.12989 l 0.10991,-0.3497 c 0.01,-0.03 0.02,-0.07 0.04,-0.0999 l 0.16986,-0.32972 c 0.03,-0.05 0.0599,-0.0999 0.0999,-0.13988 l 0.2398,-0.26978 0.33972,-0.29974 c 0.04,-0.03 0.0799,-0.06 0.11989,-0.0799 l 0.31973,-0.16985 c 0.04,-0.02 0.0799,-0.04 0.1199,-0.05 l 0.3597,-0.10991 c 0.04,-0.02 0.0799,-0.02 0.1199,-0.03 l 0.37968,-0.04 h 18.94402 l 0.44962,0.04 c 0.05,0.01 0.0899,0.01 0.12989,0.03 l 0.35969,0.10991 c 0.04,0.01 0.0799,0.03 0.1199,0.05 l 0.31973,0.16985 c 0.04,0.02 0.0799,0.05 0.1199,0.0799 l 0.27977,0.23979 c 0.02,0.02 0.0499,0.05 0.0699,0.0699 l 0.2298,0.26977 c 0.04,0.04 0.06,0.0799 0.0899,0.12989 l 0.16985,0.32972 c 0.01,0.03 0.03,0.0699 0.04,0.0999 l 0.10991,0.3497 c 0.01,0.05 0.02,0.0899 0.03,0.12989 l 0.04,0.37968 v 7.63356 l -0.04,0.44962 c -0.01,0.05 -0.02,0.0899 -0.03,0.12989 l -0.10991,0.34971 c -0.01,0.04 -0.03,0.0799 -0.04,0.1099 l -0.16985,0.32973 c -0.02,0.04 -0.05,0.0799 -0.0799,0.1199 l -0.22981,0.27976 c -0.03,0.03 -0.06,0.06 -0.0899,0.0899 l -0.27977,0.22981 c -0.04,0.03 -0.0699,0.05 -0.10991,0.0699 l -0.31973,0.16986 c -0.04,0.02 -0.0799,0.04 -0.1199,0.05 l -0.35969,0.1099 c -0.04,0.01 -0.0799,0.02 -0.12989,0.03 l -0.37968,0.04 h -18.94402 l -0.44962,-0.04 c -0.04,-0.01 -0.0799,-0.02 -0.1199,-0.03 l -0.3597,-0.1099 c -0.04,-0.01 -0.0799,-0.03 -0.1199,-0.05 l -0.31973,-0.16986 c -0.04,-0.02 -0.0699,-0.04 -0.1099,-0.0699 l -0.27977,-0.22981 c -0.03,-0.02 -0.06,-0.0499 -0.0799,-0.0799 l -0.2398,-0.27976 c -0.04,-0.04 -0.0599,-0.0799 -0.0899,-0.12989 l -0.16986,-0.32973 c -0.02,-0.03 -0.03,-0.0699 -0.04,-0.1099 l -0.10991,-0.34971 c -0.01,-0.04 -0.02,-0.0799 -0.03,-0.12989 l -0.04,-0.37968 z m 1.32888,7.49368 0.04,0.37968 -0.03,-0.12989 0.10991,0.3497 -0.04,-0.0999 0.16986,0.32972 -0.0899,-0.12989 0.2398,0.27976 -0.0799,-0.0799 0.27976,0.22981 -0.10991,-0.0699 0.31973,0.16985 -0.11989,-0.0499 0.35969,0.1099 -0.12989,-0.03 0.30974,0.04 h 18.80414 l 0.37968,-0.04 -0.1199,0.03 0.35969,-0.1099 -0.1199,0.0499 0.31974,-0.16985 -0.10991,0.0699 0.27976,-0.22981 -0.0899,0.0899 0.2298,-0.27977 -0.0799,0.1199 0.16986,-0.32972 -0.04,0.0999 0.10991,-0.3497 -0.03,0.12989 0.04,-0.30974 v -7.49368 l -0.04,-0.37968 0.03,0.12989 -0.10991,-0.3497 0.04,0.10991 -0.16986,-0.32973 0.0899,0.12989 -0.22981,-0.26977 0.0699,0.0699 -0.27976,-0.23979 0.1199,0.0799 -0.31974,-0.16986 0.1199,0.05 -0.35969,-0.10991 0.1199,0.03 -0.30974,-0.04 h -18.80414 l -0.37968,0.04 0.12989,-0.03 -0.35969,0.10991 0.11989,-0.05 -0.31973,0.16986 0.1199,-0.0799 -0.21981,0.17984 -0.2398,0.26978 0.0999,-0.13989 -0.16986,0.32973 0.04,-0.10991 -0.10991,0.3497 0.03,-0.12989 -0.04,0.30974 z"
     id="path68"
     inkscape:connector-curvature="0" />
  <path
     style="fill:#92d050;fill-opacity:1;fill-rule:evenodd;stroke:none"
     d="m 225.04072,133.17516 c 0.05,0.72938 1.52871,1.21897 3.29722,1.09907 v 0 c 1.7685,-0.1199 3.15733,-0.80932 3.10737,-1.5387 0,0 0,0 0,0 v 0 c -0.04,-0.72939 -1.51871,-1.21897 -3.28722,-1.09907 0,0 0,0 0,0 v 0 c -1.76851,0.11989 -3.15734,0.80931 -3.11737,1.5387 0,0 0,0 0,0 z"
     id="path122"
     inkscape:connector-curvature="0" />
  <path
     style="fill:#00b050;fill-opacity:1;fill-rule:nonzero;stroke:#00b050;stroke-width:0.00999157px;stroke-linecap:butt;stroke-linejoin:round;stroke-miterlimit:4;stroke-dasharray:none;stroke-opacity:1"
     d="m 225.70016,133.30505 -0.02,-0.31973 0.0799,0.25978 -0.12989,-0.2398 0.20982,0.2398 -0.13988,-0.12989 0.30974,0.19983 -0.10991,-0.05 0.40966,0.16986 0.39966,0.0999 0.4696,0.0599 1.17901,0.02 0.54954,-0.0699 0.53954,-0.10991 0.48959,-0.13988 0.38967,-0.16986 -0.0899,0.04 0.36969,-0.21982 -0.0999,0.0799 0.27976,-0.24978 -0.10991,0.12989 0.16986,-0.25979 -0.0999,0.2398 0.05,-0.26977 0.02,0.31973 -0.0799,-0.25978 0.1199,0.22981 -0.19983,-0.2398 0.14987,0.12989 -0.30973,-0.19983 0.1099,0.0599 -0.40965,-0.16986 -0.39966,-0.0999 -0.46961,-0.0699 -1.179,-0.01 -0.54954,0.0699 -0.53955,0.10991 -0.48958,0.13988 -0.38967,0.16986 -0.29975,0.17985 0.10991,-0.0799 -0.27977,0.24979 0.10991,-0.12989 -0.16986,0.25978 0.0999,-0.23979 z m -1.25894,-0.51956 c 0.02,-0.0799 0.05,-0.16986 0.0999,-0.2398 l 0.16986,-0.25978 c 0.03,-0.05 0.0699,-0.0899 0.1099,-0.12989 l 0.27977,-0.24979 c 0.03,-0.03 0.0699,-0.0599 0.1099,-0.0799 l 0.45962,-0.25978 0.52955,-0.20983 0.5895,-0.17985 0.65945,-0.12989 0.72938,-0.0699 1.33887,0.02 0.62947,0.0999 0.55953,0.15987 0.40965,0.16985 c 0.04,0.01 0.0699,0.03 0.10991,0.05 l 0.30974,0.19983 c 0.05,0.04 0.0999,0.0899 0.14987,0.13988 l 0.19983,0.2398 c 0.05,0.0699 0.0999,0.13988 0.1199,0.22981 l 0.0799,0.25978 c 0.03,0.0999 0.04,0.20982 0.02,0.31973 l -0.05,0.26977 c -0.02,0.0799 -0.05,0.16986 -0.0999,0.2398 l -0.16985,0.25978 c -0.03,0.05 -0.0699,0.0899 -0.10991,0.12989 l -0.27976,0.24979 c -0.03,0.03 -0.0699,0.0599 -0.0999,0.0799 l -0.36969,0.21982 c -0.03,0.01 -0.0599,0.03 -0.0899,0.04 l -0.52955,0.20983 -0.58951,0.17984 -0.65944,0.1299 -0.72939,0.0699 -1.33887,-0.03 -0.62947,-0.0899 -0.55952,-0.15987 -0.40966,-0.16985 c -0.04,-0.01 -0.0699,-0.03 -0.1099,-0.0599 l -0.30974,-0.19984 c -0.05,-0.03 -0.0999,-0.0699 -0.13989,-0.11989 l -0.20982,-0.2398 c -0.06,-0.0699 -0.10991,-0.14988 -0.12989,-0.2398 l -0.0799,-0.25978 c -0.03,-0.0999 -0.04,-0.20982 -0.02,-0.31973 z"
     id="path124"
     inkscape:connector-curvature="0" />
  <path
     style="fill:#000000;fill-opacity:1;fill-rule:evenodd;stroke:none"
     d="m 221.47373,149.951 v -7.55362 0 c 0,-4.17648 1.69856,-7.55363 3.77681,-7.55363 2.08824,0 3.77681,3.37715 3.77681,7.55363 0,0 0,0 0,0 v 0 7.55362 z"
     id="path126"
     inkscape:connector-curvature="0" />
  <path
     style="fill:#ffc000;fill-opacity:1;fill-rule:nonzero;stroke:#ffc000;stroke-width:0.00999157px;stroke-linecap:butt;stroke-linejoin:round;stroke-miterlimit:4;stroke-dasharray:none;stroke-opacity:1"
     d="m 221.47373,150.62044 c -0.3597,0 -0.65945,-0.29975 -0.65945,-0.66944 v -7.55362 l 0.0799,-1.5487 0.2298,-1.48874 0.3597,-1.35885 0.48959,-1.19899 c 0.01,-0.03 0.03,-0.0599 0.0499,-0.0899 l 0.55953,-0.91922 0.3597,-0.45961 0.37968,-0.36969 c 0.02,-0.03 0.05,-0.05 0.0799,-0.0699 l 0.3497,-0.24979 0.42964,-0.22981 c 0.04,-0.03 0.0799,-0.04 0.1199,-0.05 l 0.36969,-0.1099 c 0.04,-0.02 0.0899,-0.02 0.12989,-0.03 l 0.38967,-0.04 c 0.04,0 0.0899,0 0.12989,0 l 0.38967,0.04 c 0.04,0.01 0.0799,0.01 0.1199,0.03 l 0.36969,0.1099 c 0.05,0.01 0.0899,0.02 0.12989,0.05 l 0.3597,0.18984 0.41964,0.28976 c 0.03,0.02 0.05,0.04 0.0799,0.0699 l 0.32972,0.31973 0.35969,0.42964 0.60949,0.99915 c 0.02,0.03 0.04,0.06 0.05,0.0899 l 0.4696,1.11905 0.36969,1.36885 0.22981,1.47875 0.0899,1.59865 v 7.5836 c 0,0.36969 -0.29975,0.66944 -0.66944,0.66944 z m 7.55362,-1.32888 -0.65944,0.65944 v -7.51366 l -0.0699,-1.45877 -0.20982,-1.34886 -0.30974,-1.19899 -0.46961,-1.11905 0.05,0.0899 -0.50957,-0.83929 -0.25978,-0.32972 -0.32972,-0.31973 0.0799,0.0699 -0.27976,-0.20982 -0.3597,-0.18984 0.1199,0.0499 -0.36969,-0.1099 0.12989,0.03 -0.38967,-0.04 h 0.12989 l -0.38967,0.04 0.1199,-0.03 -0.36969,0.1099 0.12989,-0.0499 -0.28975,0.14987 -0.34971,0.24979 0.0799,-0.0699 -0.27976,0.26977 -0.25978,0.29975 -0.55953,0.91922 0.05,-0.0899 -0.42964,1.03912 -0.33971,1.21897 -0.20983,1.34887 -0.0799,1.47875 v 7.55362 l -0.66943,-0.65944 z"
     id="path128"
     inkscape:connector-curvature="0" />
  <path
     style="fill:#262626;fill-opacity:1;fill-rule:evenodd;stroke:none"
     d="m 244.70413,161.16155 c 0,-1.04912 0.84928,-1.8984 1.88841,-1.8984 0,0 0,0 0,0 v 0 h 15.31707 v 0 c 1.04912,0 1.88841,0.84928 1.88841,1.8984 0,0 0,0 0,0 v 0 7.55362 0 c 0,1.03913 -0.83929,1.88841 -1.88841,1.88841 0,0 0,0 0,0 v 0 h -15.31707 v 0 c -1.03913,0 -1.88841,-0.84928 -1.88841,-1.88841 0,0 0,0 0,0 z"
     id="path130"
     inkscape:connector-curvature="0" />
  <path
     style="fill:#7f7f7f;fill-opacity:1;fill-rule:nonzero;stroke:#7f7f7f;stroke-width:0.00999157px;stroke-linecap:butt;stroke-linejoin:round;stroke-miterlimit:4;stroke-dasharray:none;stroke-opacity:1"
     d="m 244.04469,161.16155 0.04,-0.44963 c 0.01,-0.04 0.01,-0.0799 0.03,-0.11989 l 0.1099,-0.3597 c 0.01,-0.04 0.03,-0.0799 0.05,-0.1199 l 0.16986,-0.31973 c 0.02,-0.04 0.05,-0.0799 0.0799,-0.1199 l 0.2398,-0.27976 0.32972,-0.29975 c 0.04,-0.04 0.0899,-0.0699 0.13988,-0.0999 l 0.32972,-0.16985 c 0.03,-0.02 0.0699,-0.03 0.0999,-0.04 l 0.3497,-0.10991 c 0.05,-0.01 0.0899,-0.02 0.1299,-0.03 l 0.37967,-0.04 h 15.38702 l 0.44962,0.04 c 0.05,0.01 0.0899,0.01 0.1299,0.03 l 0.35969,0.10991 c 0.04,0.01 0.0799,0.03 0.1199,0.05 l 0.31973,0.16986 c 0.04,0.02 0.0799,0.05 0.1199,0.0799 l 0.27976,0.2398 c 0.03,0.02 0.06,0.0499 0.0799,0.0799 l 0.2298,0.27976 c 0.03,0.04 0.05,0.0699 0.0699,0.10991 l 0.16986,0.31973 c 0.02,0.04 0.04,0.0799 0.05,0.1199 l 0.10991,0.3597 c 0.01,0.04 0.02,0.0799 0.03,0.11989 l 0.04,0.37968 v 7.62357 l -0.04,0.44962 c -0.01,0.05 -0.02,0.0899 -0.03,0.12989 l -0.10991,0.34971 c -0.01,0.04 -0.03,0.0799 -0.04,0.10991 l -0.16986,0.32972 c -0.02,0.04 -0.05,0.0799 -0.0799,0.1199 l -0.2298,0.27976 c -0.03,0.03 -0.06,0.06 -0.0899,0.0899 l -0.27976,0.2298 c -0.04,0.03 -0.0699,0.05 -0.10991,0.0699 l -0.31973,0.16986 c -0.04,0.02 -0.0799,0.04 -0.1199,0.05 l -0.35969,0.1099 c -0.04,0.01 -0.0799,0.02 -0.1299,0.03 l -0.37968,0.04 h -15.38701 l -0.44962,-0.04 c -0.04,-0.01 -0.0799,-0.02 -0.1299,-0.03 l -0.3497,-0.1099 c -0.03,-0.01 -0.0699,-0.03 -0.0999,-0.04 l -0.32972,-0.16986 c -0.05,-0.03 -0.0899,-0.0499 -0.12989,-0.0899 l -0.26977,-0.22981 c -0.02,-0.02 -0.05,-0.05 -0.0699,-0.0699 l -0.2398,-0.27976 c -0.04,-0.04 -0.06,-0.0799 -0.0899,-0.12989 l -0.16986,-0.32972 c -0.02,-0.03 -0.03,-0.0699 -0.04,-0.10991 l -0.1099,-0.34971 c -0.01,-0.04 -0.02,-0.0799 -0.03,-0.12989 l -0.04,-0.37968 z m 1.32887,7.48368 0.04,0.37968 -0.03,-0.12989 0.1099,0.34971 -0.04,-0.0999 0.16985,0.32972 -0.0899,-0.12989 0.2398,0.27977 -0.0699,-0.0699 0.26977,0.2298 -0.12989,-0.0899 0.32972,0.16985 -0.10991,-0.04 0.34971,0.1099 -0.12989,-0.03 0.30974,0.04 h 15.24713 l 0.37968,-0.04 -0.1199,0.03 0.3597,-0.1099 -0.1199,0.05 0.31973,-0.16986 -0.10991,0.0699 0.27977,-0.22981 -0.0899,0.0899 0.22981,-0.27977 -0.0799,0.1199 0.16985,-0.32972 -0.04,0.0999 0.10991,-0.34971 -0.03,0.12989 0.04,-0.30974 v -7.48368 l -0.04,-0.37968 0.03,0.12989 -0.10991,-0.3597 0.05,0.1199 -0.16986,-0.31973 0.0699,0.10991 -0.22981,-0.27977 0.0799,0.0799 -0.27977,-0.2398 0.1199,0.0799 -0.31973,-0.16986 0.1199,0.05 -0.3597,-0.10991 0.1199,0.03 -0.30974,-0.04 h -15.24713 l -0.37968,0.04 0.12989,-0.03 -0.34971,0.10991 0.10991,-0.04 -0.32972,0.16986 0.13988,-0.0999 -0.20982,0.17984 -0.2398,0.27977 0.0799,-0.1199 -0.16985,0.31973 0.05,-0.1199 -0.1099,0.3597 0.03,-0.12989 -0.04,0.30974 z"
     id="path132"
     inkscape:connector-curvature="0" />
  <path
     style="fill:#f8e088;fill-opacity:1;fill-rule:evenodd;stroke:none"
     d="m 232.80417,167.69603 c 0,-3.12736 1.69857,-5.66522 3.77681,-5.66522 0,0 0,0 0,0 v 0 c 2.08824,0 3.77682,2.53786 3.77682,5.66522 v 0 c 0,3.13736 -1.68858,5.67522 -3.77682,5.67522 0,0 0,0 0,0 -2.07824,0 -3.77681,-2.53786 -3.77681,-5.67522 z"
     id="path134"
     inkscape:connector-curvature="0" />
  <path
     style="fill:#e5b70d;fill-opacity:1;fill-rule:nonzero;stroke:#e5b70d;stroke-width:0.00999157px;stroke-linecap:butt;stroke-linejoin:round;stroke-miterlimit:4;stroke-dasharray:none;stroke-opacity:1"
     d="m 232.14472,167.74599 0.0799,-1.22896 0.2298,-1.15902 c 0.01,-0.03 0.02,-0.06 0.03,-0.0899 l 0.3497,-0.95919 c 0.01,-0.04 0.02,-0.0699 0.04,-0.0999 l 0.45961,-0.83929 c 0.02,-0.03 0.04,-0.0599 0.0699,-0.0999 l 0.55953,-0.68942 c 0.03,-0.03 0.06,-0.06 0.0899,-0.0899 l 0.63946,-0.51956 c 0.05,-0.04 0.0899,-0.0699 0.13989,-0.0899 l 0.7094,-0.32972 c 0.0599,-0.03 0.1199,-0.04 0.17985,-0.05 l 0.75936,-0.1199 c 0.0699,-0.01 0.13988,-0.01 0.20982,0 l 0.75936,0.1199 c 0.0599,0.01 0.1199,0.02 0.17985,0.05 l 0.7094,0.32972 c 0.05,0.02 0.0899,0.05 0.13988,0.0899 l 0.63946,0.51956 c 0.03,0.03 0.0599,0.0599 0.0899,0.0899 l 0.55953,0.68942 c 0.03,0.03 0.05,0.0699 0.0699,0.0999 l 0.46961,0.83929 c 0.01,0.03 0.03,0.07 0.04,0.0999 l 0.33972,0.95919 0.24979,1.15902 0.0899,1.22897 -0.0799,1.23895 -0.22981,1.14903 -0.36969,1.05911 c -0.01,0.03 -0.02,0.0699 -0.04,0.0999 l -0.46961,0.8393 c -0.02,0.03 -0.04,0.0699 -0.0699,0.0899 l -0.55953,0.68942 c -0.03,0.04 -0.0599,0.0699 -0.0899,0.0999 l -0.63946,0.51957 c -0.05,0.04 -0.0899,0.0699 -0.13988,0.0899 l -0.7094,0.32972 c -0.06,0.03 -0.1199,0.04 -0.17985,0.05 l -0.75936,0.1199 c -0.0699,0.01 -0.13988,0.01 -0.20982,0 l -0.75936,-0.1199 c -0.06,-0.01 -0.1199,-0.02 -0.17985,-0.05 l -0.7094,-0.32972 c -0.05,-0.02 -0.0899,-0.05 -0.13989,-0.0899 l -0.63946,-0.51957 c -0.03,-0.03 -0.0599,-0.0599 -0.0899,-0.0999 l -0.55953,-0.68942 c -0.03,-0.03 -0.05,-0.06 -0.0699,-0.0999 l -0.45961,-0.83929 c -0.02,-0.03 -0.03,-0.06 -0.04,-0.0899 l -0.3497,-0.96918 c -0.01,-0.03 -0.02,-0.06 -0.03,-0.0899 l -0.21981,-1.0591 z m 1.39882,0.96918 0.21982,1.05911 -0.03,-0.0899 0.34971,0.96918 -0.04,-0.0999 0.45962,0.83929 -0.07,-0.0999 0.55953,0.68942 -0.0899,-0.0899 0.63946,0.51956 -0.13988,-0.0899 0.7094,0.32972 -0.17985,-0.05 0.75936,0.1199 h -0.20982 l 0.75936,-0.1199 -0.17985,0.05 0.7094,-0.32972 -0.13988,0.0899 0.63946,-0.51956 -0.0899,0.0899 0.55953,-0.68942 -0.0699,0.0999 0.4696,-0.83929 -0.04,0.0999 0.30974,-0.87926 0.20982,-0.96918 0.0799,-1.05911 -0.0699,-1.04911 -0.18984,-0.97918 -0.33971,-0.95919 0.04,0.0999 -0.4696,-0.8393 0.0699,0.0899 -0.55953,-0.68942 0.0899,0.0999 -0.63946,-0.51957 0.13988,0.0899 -0.7094,-0.32972 0.17985,0.0499 -0.75936,-0.11989 h 0.20982 l -0.75936,0.11989 0.17985,-0.0499 -0.7094,0.32972 0.13988,-0.0899 -0.63946,0.51957 0.0899,-0.0999 -0.55953,0.68942 0.07,-0.0999 -0.45962,0.8393 0.04,-0.0899 -0.34971,0.95919 0.03,-0.0899 -0.20982,0.97917 -0.0799,1.04912 z"
     id="path136"
     inkscape:connector-curvature="0" />
  <path
     style="fill:#262626;fill-opacity:1;fill-rule:evenodd;stroke:none"
     d="m 213.9201,163.91922 c 0,-1.03912 0.84928,-1.88841 1.8984,-1.88841 0,0 0,0 0,0 v 0 h 15.31708 v 0 c 1.03912,0 1.8884,0.84929 1.8884,1.88841 0,0 0,0 0,0 v 0 7.56362 0 c 0,1.03912 -0.84928,1.88841 -1.8884,1.88841 0,0 0,0 0,0 v 0 H 215.8185 v 0 c -1.04912,0 -1.8984,-0.84929 -1.8984,-1.88841 0,0 0,0 0,0 z"
     id="path138"
     inkscape:connector-curvature="0" />
  <path
     style="fill:#7f7f7f;fill-opacity:1;fill-rule:nonzero;stroke:#7f7f7f;stroke-width:0.00999157px;stroke-linecap:butt;stroke-linejoin:round;stroke-miterlimit:4;stroke-dasharray:none;stroke-opacity:1"
     d="m 213.26066,163.91922 0.04,-0.44962 c 0.01,-0.04 0.02,-0.0799 0.03,-0.12989 l 0.1099,-0.34971 c 0.01,-0.03 0.02,-0.0699 0.04,-0.0999 l 0.16986,-0.32972 c 0.03,-0.05 0.0599,-0.0999 0.0999,-0.13989 l 0.2398,-0.26977 0.33971,-0.29975 c 0.04,-0.03 0.0799,-0.0599 0.1199,-0.0799 l 0.31973,-0.16986 c 0.04,-0.02 0.0799,-0.04 0.1199,-0.0499 l 0.3597,-0.10991 c 0.04,-0.02 0.0799,-0.02 0.1199,-0.03 l 0.37968,-0.04 h 15.38702 l 0.44962,0.04 c 0.0499,0.01 0.0899,0.02 0.12989,0.03 l 0.3497,0.10991 c 0.04,0.01 0.0799,0.02 0.10991,0.04 l 0.32972,0.16986 c 0.05,0.03 0.0899,0.05 0.12989,0.0899 l 0.27977,0.2398 c 0.02,0.02 0.05,0.05 0.0699,0.0699 l 0.2298,0.26978 c 0.04,0.04 0.06,0.0799 0.0899,0.12989 l 0.16985,0.32972 c 0.01,0.03 0.03,0.0699 0.04,0.0999 l 0.10991,0.34971 c 0.01,0.05 0.02,0.0899 0.03,0.12989 l 0.04,0.37968 v 7.63356 l -0.04,0.44962 c -0.01,0.05 -0.02,0.0899 -0.03,0.12989 l -0.10991,0.3497 c -0.01,0.04 -0.03,0.0799 -0.04,0.10991 l -0.16985,0.32972 c -0.02,0.04 -0.05,0.0799 -0.0799,0.1199 l -0.2298,0.27977 c -0.03,0.03 -0.0599,0.0599 -0.0899,0.0899 l -0.27976,0.22981 c -0.04,0.03 -0.0799,0.06 -0.1199,0.0799 l -0.32972,0.16986 c -0.03,0.01 -0.0699,0.03 -0.10991,0.04 l -0.3497,0.10991 c -0.04,0.01 -0.0799,0.02 -0.12989,0.03 l -0.37968,0.04 h -15.38702 l -0.44962,-0.04 c -0.04,-0.01 -0.0799,-0.02 -0.1199,-0.03 l -0.3597,-0.10991 c -0.04,-0.01 -0.0799,-0.03 -0.1199,-0.05 l -0.31973,-0.16985 c -0.04,-0.02 -0.0699,-0.04 -0.10991,-0.0699 l -0.27976,-0.22981 c -0.03,-0.02 -0.06,-0.05 -0.0799,-0.0799 l -0.2398,-0.27977 c -0.04,-0.04 -0.06,-0.0799 -0.0899,-0.12989 l -0.16986,-0.32972 c -0.02,-0.03 -0.03,-0.0699 -0.04,-0.10991 l -0.1099,-0.3497 c -0.01,-0.04 -0.02,-0.0799 -0.03,-0.12989 l -0.04,-0.37968 z m 1.32887,7.49368 0.04,0.37968 -0.03,-0.12989 0.1099,0.3497 -0.04,-0.0999 0.16985,0.32972 -0.0899,-0.12989 0.2398,0.27976 -0.0799,-0.0799 0.27977,0.2298 -0.10991,-0.0699 0.31973,0.16986 -0.1199,-0.05 0.3597,0.10991 -0.12989,-0.03 0.30974,0.04 h 15.24713 l 0.37968,-0.04 -0.12989,0.03 0.34971,-0.10991 -0.0999,0.04 0.32973,-0.16986 -0.1199,0.0799 0.27976,-0.2298 -0.0899,0.0899 0.2298,-0.27976 -0.0799,0.1199 0.16986,-0.32972 -0.04,0.0999 0.10991,-0.3497 -0.03,0.12989 0.04,-0.30974 v -7.49368 l -0.04,-0.37968 0.03,0.12989 -0.10991,-0.3497 0.04,0.1099 -0.16986,-0.32972 0.0899,0.12989 -0.2298,-0.26977 0.0699,0.0699 -0.27977,-0.2398 0.1299,0.0899 -0.32973,-0.16986 0.0999,0.04 -0.34971,-0.10991 0.12989,0.03 -0.30973,-0.04 h -15.24714 l -0.37968,0.04 0.12989,-0.03 -0.3597,0.10991 0.1199,-0.05 -0.31973,0.16986 0.1199,-0.0799 -0.21981,0.17985 -0.2398,0.26977 0.0999,-0.13988 -0.16985,0.32972 0.04,-0.1099 -0.1099,0.3497 0.03,-0.12989 -0.04,0.30974 z"
     id="path140"
     inkscape:connector-curvature="0" />
  <path
     style="fill:#c00000;fill-opacity:1;fill-rule:evenodd;stroke:none"
     d="m 213.9201,127.05033 9.80173,4.79595 5.30552,-4.79595 z"
     id="path142"
     inkscape:connector-curvature="0" />
  <path
     style="fill:#ffc000;fill-opacity:1;fill-rule:nonzero;stroke:#ffc000;stroke-width:0.00999157px;stroke-linecap:butt;stroke-linejoin:round;stroke-miterlimit:4;stroke-dasharray:none;stroke-opacity:1"
     d="m 213.91913,126.38154 c -0.28965,-0.10974 -0.56873,0.21979 -0.63868,0.51953 -0.0699,0.29975 0.0698,0.60817 0.34961,0.74805 l 9.80274,4.79688 c 0.24979,0.11989 0.53845,0.0805 0.73828,-0.10938 l 5.30664,-4.79687 c 0.20983,-0.17985 0.27961,0.0335 0.17969,-0.22632 -0.0999,-0.25978 -1.06425,-1.39084 -1.26522,-1.1962 l -0.96349,0.9331 -0.13457,0.6691 v 0 l -3.68164,3.32813 -6.79883,-3.32813 v 0 l -1.23496,-0.70907 z"
     id="path144"
     inkscape:connector-curvature="0"
     sodipodi:nodetypes="sccccccscccccccs" />
  <path
     style="fill:#c00000;fill-opacity:1;fill-rule:evenodd;stroke:none"
     d="m 209.99341,153.08836 c 0.80932,-0.64946 1.99832,-0.52956 2.65776,0.27976 0,0 0,0 0,0 v 0 l 9.67184,11.89996 v 0 c 0.64945,0.80932 0.52955,1.99832 -0.27976,2.65776 0,0 0,0 0,0 v 0 l -5.86506,4.75599 v 0 c -0.80931,0.65944 -1.99831,0.53954 -2.64776,-0.26978 0,0 0,0 0,0 v 0 l -9.67184,-11.89996 v 0 c -0.65945,-0.80931 -0.52956,-1.99831 0.27976,-2.65775 0,0 0,0 0,0 z"
     id="path146"
     inkscape:connector-curvature="0" />
  <path
     style="fill:#e5b70d;fill-opacity:1;fill-rule:nonzero;stroke:#e5b70d;stroke-width:0.00999157px;stroke-linecap:butt;stroke-linejoin:round;stroke-miterlimit:4;stroke-dasharray:none;stroke-opacity:1"
     d="m 209.57377,152.57879 0.37968,-0.24979 c 0.04,-0.03 0.0799,-0.05 0.12989,-0.0699 l 0.33971,-0.12989 c 0.03,-0.01 0.0699,-0.02 0.10991,-0.03 l 0.35969,-0.0699 c 0.04,-0.01 0.0799,-0.01 0.1199,-0.01 h 0.36969 c 0.05,0 0.0899,0 0.13988,0.01 l 0.34971,0.0699 c 0.04,0.01 0.0799,0.02 0.1199,0.04 l 0.33971,0.13988 c 0.04,0.02 0.0799,0.04 0.1199,0.0599 l 0.30974,0.20982 c 0.03,0.03 0.0699,0.05 0.0999,0.0799 l 0.26977,0.26978 9.71181,11.94992 0.24979,0.37967 c 0.03,0.04 0.05,0.0799 0.0699,0.1299 l 0.12989,0.33971 c 0.01,0.03 0.02,0.0699 0.03,0.10991 l 0.0699,0.35969 c 0.01,0.04 0.01,0.0799 0.01,0.1199 v 0.36969 c 0,0.05 0,0.0899 -0.01,0.13988 l -0.0699,0.34971 c -0.01,0.04 -0.02,0.0799 -0.04,0.1199 l -0.13988,0.33971 c -0.02,0.04 -0.04,0.0799 -0.0599,0.1199 l -0.20982,0.30974 c -0.03,0.03 -0.05,0.0699 -0.0799,0.0999 l -0.26977,0.26977 -5.925,4.79596 -0.36969,0.24979 c -0.03,0.03 -0.0699,0.05 -0.10991,0.06 l -0.33971,0.13988 c -0.04,0.02 -0.0799,0.03 -0.12989,0.04 l -0.3597,0.0699 c -0.04,0.01 -0.0799,0.01 -0.12989,0.01 h -0.35969 c -0.04,0 -0.0799,0 -0.1199,-0.01 l -0.3597,-0.0699 c -0.05,-0.01 -0.0899,-0.02 -0.12989,-0.04 l -0.33971,-0.13988 c -0.04,-0.02 -0.0899,-0.04 -0.12989,-0.0699 l -0.29975,-0.20983 c -0.03,-0.02 -0.0599,-0.0499 -0.0899,-0.0699 l -0.26978,-0.26977 -9.7118,-11.94992 -0.24979,-0.37968 c -0.03,-0.03 -0.05,-0.0699 -0.0599,-0.10991 l -0.13988,-0.33971 c -0.02,-0.04 -0.03,-0.0799 -0.04,-0.12989 l -0.0699,-0.3597 c -0.01,-0.0499 -0.01,-0.0899 -0.01,-0.13988 l 0.01,-0.36969 c 0,-0.04 0,-0.0799 0.01,-0.1199 l 0.0699,-0.3497 c 0.01,-0.04 0.02,-0.0799 0.04,-0.1199 l 0.13988,-0.33971 c 0.02,-0.04 0.04,-0.0799 0.06,-0.1199 l 0.20982,-0.30974 c 0.03,-0.03 0.05,-0.0699 0.0799,-0.0999 l 0.26978,-0.26977 z m -4.95582,5.75514 -0.26978,0.26977 0.0799,-0.0999 -0.20983,0.30974 0.0599,-0.1199 -0.13988,0.33971 0.04,-0.1199 -0.0699,0.34971 0.01,-0.1199 -0.01,0.36969 -0.01,-0.13989 0.07,0.3597 -0.04,-0.12989 0.13988,0.33971 -0.06,-0.1099 0.16986,0.25978 9.63187,11.85 0.26978,0.26977 -0.0899,-0.0699 0.29975,0.20982 -0.12989,-0.0699 0.33971,0.13989 -0.12989,-0.04 0.3597,0.0699 -0.12989,-0.01 h 0.35969 l -0.1199,0.01 0.3597,-0.0699 -0.12989,0.04 0.33971,-0.13989 -0.1099,0.0599 0.25978,-0.16985 5.81509,-4.71602 0.26977,-0.26978 -0.0799,0.0999 0.20983,-0.30974 -0.06,0.1199 0.13988,-0.33971 -0.04,0.11989 0.0699,-0.3497 -0.01,0.12989 v -0.36969 l 0.01,0.12989 -0.0699,-0.35969 0.03,0.1099 -0.12989,-0.33971 0.0699,0.12989 -0.16986,-0.25978 -9.63187,-11.85 -0.26978,-0.26978 0.0999,0.0799 -0.30974,-0.20983 0.1199,0.06 -0.33971,-0.13988 0.11989,0.04 -0.3497,-0.0699 0.12989,0.01 h -0.36969 l 0.12989,-0.01 -0.35969,0.0699 0.1099,-0.03 -0.33971,0.12989 0.12989,-0.0699 -0.25978,0.16986 z"
     id="path148"
     inkscape:connector-curvature="0" />
  <path
     style="fill:#c00000;fill-opacity:1;fill-rule:evenodd;stroke:none"
     d="m 198.81284,154.47718 c 0,-4.17647 3.38715,-7.56361 7.55363,-7.56361 0,0 0,0 0,0 v 0 c 4.17648,0 7.55363,3.38714 7.55363,7.56361 0,0 0,0 0,0 v 0 c 0,4.16649 -3.37715,7.55363 -7.55363,7.55363 0,0 0,0 0,0 v 0 c -4.16648,0 -7.55363,-3.38714 -7.55363,-7.55363 0,0 0,0 0,0 z"
     id="path150"
     inkscape:connector-curvature="0" />
  <path
     style="fill:#e5b70d;fill-opacity:1;fill-rule:nonzero;stroke:#e5b70d;stroke-width:0.00999157px;stroke-linecap:butt;stroke-linejoin:round;stroke-miterlimit:4;stroke-dasharray:none;stroke-opacity:1"
     d="m 198.1534,154.51715 0.04,-0.83929 0.1099,-0.81931 0.20983,-0.79933 0.26977,-0.74936 0.33971,-0.72939 0.41965,-0.66943 c 0.01,-0.03 0.03,-0.06 0.05,-0.0799 l 0.92921,-1.11905 c 0.03,-0.03 0.0599,-0.06 0.0899,-0.0899 l 1.11905,-0.92921 c 0.02,-0.02 0.05,-0.04 0.0799,-0.05 l 0.61947,-0.37968 0.7194,-0.3497 0.73937,-0.27977 0.79933,-0.20982 0.81931,-0.1199 0.8293,-0.05 0.83929,0.04 0.80932,0.1199 0.79932,0.19983 0.75936,0.27976 0.7094,0.32972 0.68942,0.41965 c 0.03,0.01 0.0599,0.03 0.0799,0.05 l 1.11906,0.92921 c 0.03,0.03 0.06,0.06 0.0899,0.0899 l 0.91923,1.11905 0.42964,0.69941 0.3497,0.70941 0.27976,0.76935 0.20983,0.76935 0.1199,0.83929 0.0499,0.8293 -0.04,0.83929 -0.1199,0.80932 -0.19983,0.79932 -0.26977,0.74937 -0.34971,0.72939 -0.40965,0.66943 -0.96919,1.19899 c -0.03,0.03 -0.0599,0.0599 -0.0899,0.0899 l -1.11906,0.92921 c -0.02,0.02 -0.0499,0.04 -0.0799,0.05 l -0.61948,0.37968 -0.72938,0.3597 -0.74937,0.26977 -0.78933,0.20982 -0.81931,0.1199 -0.8293,0.05 -0.83929,-0.04 -0.80932,-0.1199 -0.79933,-0.19983 -0.74937,-0.26977 -0.72938,-0.34971 -0.66943,-0.40965 c -0.03,-0.01 -0.06,-0.03 -0.0799,-0.05 l -1.11905,-0.92921 c -0.03,-0.03 -0.0599,-0.0599 -0.0899,-0.0899 l -0.92921,-1.11905 c -0.02,-0.02 -0.04,-0.05 -0.05,-0.0799 l -0.37968,-0.61947 -0.3597,-0.70941 -0.26977,-0.75936 -0.20982,-0.78933 -0.12989,-0.81931 z m 1.35885,0.63946 0.0999,0.67943 0.16986,0.66943 0.21981,0.61948 0.28976,0.60949 0.37968,0.61947 -0.05,-0.0799 0.92921,1.11906 -0.0899,-0.0899 1.11906,0.92922 -0.0799,-0.05 0.56952,0.33972 0.58951,0.29974 0.62946,0.22981 0.65945,0.17985 0.68942,0.0999 0.69941,0.04 0.7094,-0.03 0.67943,-0.0999 0.66943,-0.16986 0.62947,-0.2298 0.60949,-0.27977 0.61947,-0.37968 -0.0799,0.05 1.11906,-0.92922 -0.0899,0.0899 0.86927,-1.03913 0.33971,-0.56952 0.29975,-0.5895 0.22981,-0.62947 0.16985,-0.65944 0.10991,-0.68942 0.04,-0.69941 -0.04,-0.7094 -0.0899,-0.68942 -0.16985,-0.65944 -0.22981,-0.62947 -0.27976,-0.60949 -0.32972,-0.53954 -0.91923,-1.11906 0.0899,0.0899 -1.11906,-0.92922 0.0799,0.05 -0.55953,-0.33972 -0.61947,-0.28975 -0.61948,-0.2398 -0.65944,-0.17985 -0.68942,-0.0999 -0.69941,-0.04 -0.7094,0.03 -0.67943,0.0999 -0.65944,0.16986 -0.63946,0.2398 -0.5995,0.26977 -0.61948,0.37968 0.0799,-0.05 -1.11906,0.92922 0.0899,-0.0899 -0.92921,1.11906 0.05,-0.0799 -0.34971,0.56951 -0.28975,0.58951 -0.22981,0.63946 -0.17985,0.64945 -0.0999,0.69941 -0.04,0.69941 z"
     id="path152"
     inkscape:connector-curvature="0" />
  <text
     xml:space="preserve"
     style="font-style:normal;font-variant:normal;font-weight:400;font-size:12px;line-height:125%;font-family:'Brush Script MT';text-align:start;letter-spacing:0px;word-spacing:0px;text-anchor:start;fill:#000000;fill-opacity:1;stroke:none"
     x="202.78293"
     y="157.74718"
     id="text158"><tspan
       sodipodi:role="line"
       x="202.78293"
       y="157.74718"
       id="tspan156"><tspan
         dx="0"
         dy="0"
         style="font-style:normal;font-variant:normal;font-weight:400;font-size:12px;font-family:'Brush Script MT';fill:#ffffff"
         id="tspan154">E</tspan></tspan></text>
  <g
     id="g196"
     transform="translate(-25.79767,42.631542)">
    <path
       id="path160"
       d="m 227.18834,124.07533 -7.38377,-8.59275 v 0 c -4.08655,-4.73601 -3.54701,-11.88997 1.19899,-15.976525 4.74599,-4.076561 11.89996,-3.537017 15.97652,1.198985 0,0 0,0 0,0 v 0 l 7.39376,8.59275 z"
       style="fill:#c00000;fill-opacity:1;fill-rule:evenodd;stroke:none"
       inkscape:connector-curvature="0" />
    <path
       id="path162"
       d="m 227.84778,124.83469 c -0.41964,0.35969 -1.04911,0.31973 -1.40881,-0.0999 l -7.38377,-8.59275 -0.74937,-0.95919 -0.65944,-1.03912 -0.54954,-1.09908 -0.42964,-1.11905 -0.30973,-1.16902 -0.19984,-1.15902 -0.0799,-1.189 0.01,-1.16901 0.14988,-1.189 0.24979,-1.14903 0.35969,-1.13904 0.4796,-1.08908 0.57951,-1.0591 0.7094,-1.00915 0.78934,-0.93921 0.90923,-0.879259 0.99916,-0.779342 1.03912,-0.649452 1.09907,-0.549537 1.12905,-0.429637 1.15902,-0.309739 1.16902,-0.199831 1.179,-0.08992 1.189,0.02997 1.179,0.139882 1.14903,0.24979 1.13904,0.359696 1.08908,0.479596 1.05911,0.579511 1.00915,0.689418 0.93921,0.809317 0.86926,0.899237 7.42374,8.63272 c 0.3597,0.41965 0.31973,1.04912 -0.0999,1.40881 z m 15.87661,-16.28626 -0.0999,1.40881 -7.36378,-8.56278 -0.72939,-0.76935 -0.77934,-0.669435 -0.8293,-0.589502 -0.87926,-0.499579 -0.92922,-0.399663 -0.9392,-0.31973 -0.96919,-0.209823 -0.97917,-0.139882 -0.98917,-0.02997 -0.99915,0.06994 -0.98917,0.159865 -0.95919,0.24979 -0.9492,0.349705 -0.92921,0.44962 -0.86927,0.549537 -0.84928,0.639457 -0.75936,0.71939 -0.68942,0.79933 -0.58951,0.8293 -0.49957,0.87926 -0.39967,0.92921 -0.31973,0.93921 -0.20982,0.96918 -0.13988,0.96919 -0.02,1.00914 0.0599,0.98917 0.15987,0.97917 0.24979,0.96919 0.3497,0.9392 0.44962,0.91923 0.55953,0.87926 0.66944,0.87925 7.38377,8.59276 -1.40881,-0.0999 z"
       style="fill:#e5b70d;fill-opacity:1;fill-rule:nonzero;stroke:#e5b70d;stroke-width:0.00999157px;stroke-linecap:butt;stroke-linejoin:round;stroke-miterlimit:4;stroke-dasharray:none;stroke-opacity:1"
       inkscape:connector-curvature="0" />
  </g>
  <path
     style="fill:#92d050;fill-opacity:1;fill-rule:evenodd;stroke:none"
     d="m 215.16905,133.16517 c 0,0.72938 1.69856,1.31888 3.77681,1.31888 v 0 c 2.08824,0 3.77681,-0.5895 3.77681,-1.31888 0,0 0,0 0,0 v 0 c 0,-0.72939 -1.68857,-1.31889 -3.77681,-1.31889 0,0 0,0 0,0 v 0 c -2.07825,0 -3.77681,0.5895 -3.77681,1.31889 0,0 0,0 0,0 z"
     id="path164"
     inkscape:connector-curvature="0" />
  <path
     style="fill:#00b050;fill-opacity:1;fill-rule:nonzero;stroke:#00b050;stroke-width:0.00999157px;stroke-linecap:butt;stroke-linejoin:round;stroke-miterlimit:4;stroke-dasharray:none;stroke-opacity:1"
     d="m 215.80851,133.35501 v -0.36969 l 0.0799,0.26977 -0.13988,-0.26977 0.21981,0.2398 -0.12989,-0.0999 0.34971,0.22981 -0.10991,-0.0599 0.45961,0.18984 0.48959,0.12989 0.5895,0.1199 0.63946,0.0599 0.71939,0.03 0.70941,-0.03 0.66943,-0.0699 0.56952,-0.11989 0.50957,-0.14988 0.39966,-0.15986 -0.1199,0.0599 0.33972,-0.22981 -0.1199,0.0999 0.21981,-0.2398 -0.13988,0.26977 0.0799,-0.26977 v 0.36969 l -0.0799,-0.26978 0.13988,0.26978 -0.21981,-0.2398 0.1199,0.0999 -0.33972,-0.2298 0.1199,0.0599 -0.4696,-0.18984 -0.48959,-0.12989 -0.5895,-0.1199 -0.63946,-0.0599 -0.71939,-0.03 -0.70941,0.03 -0.66943,0.0699 -0.56952,0.1199 -0.50957,0.14987 -0.38967,0.15987 0.10991,-0.0599 -0.34971,0.2298 0.12989,-0.0999 -0.21981,0.2398 0.13988,-0.26978 z m -1.189,-0.63946 c 0.02,-0.0999 0.0699,-0.18984 0.13988,-0.26978 l 0.21982,-0.23979 c 0.04,-0.04 0.0799,-0.07 0.12989,-0.0999 l 0.3497,-0.22981 c 0.03,-0.03 0.0699,-0.0499 0.10991,-0.0599 l 0.52955,-0.21981 0.60949,-0.16986 0.7094,-0.13988 0.74937,-0.0699 0.80931,-0.03 0.79933,0.03 0.77934,0.0799 0.68942,0.13988 0.61948,0.18984 0.4696,0.18984 c 0.05,0.01 0.0899,0.04 0.12989,0.0599 l 0.33972,0.22981 c 0.04,0.03 0.0799,0.0699 0.11989,0.0999 l 0.21982,0.23979 c 0.06,0.0799 0.1199,0.16986 0.13988,0.26978 l 0.0799,0.26977 c 0.04,0.1199 0.04,0.24979 0,0.36969 l -0.0799,0.26977 c -0.02,0.0999 -0.0799,0.18984 -0.13988,0.26977 l -0.21982,0.2398 c -0.04,0.03 -0.0799,0.0699 -0.11989,0.0999 l -0.33972,0.22981 c -0.04,0.02 -0.0799,0.05 -0.12989,0.06 l -0.52955,0.21981 -0.60949,0.16986 -0.7094,0.13988 -0.74937,0.0699 -0.80931,0.03 -0.79933,-0.03 -0.77934,-0.0799 -0.68942,-0.13988 -0.62947,-0.18984 -0.45961,-0.18984 c -0.04,-0.02 -0.0799,-0.04 -0.10991,-0.06 l -0.3497,-0.22981 c -0.05,-0.03 -0.0899,-0.0599 -0.12989,-0.0999 l -0.21982,-0.2398 c -0.0699,-0.0799 -0.1199,-0.16986 -0.13988,-0.26977 l -0.0799,-0.26977 c -0.04,-0.1199 -0.04,-0.24979 0,-0.36969 z"
     id="path166"
     inkscape:connector-curvature="0" />
  <path
     style="fill:#c00000;fill-opacity:1;fill-rule:evenodd;stroke:none"
     d="m 213.9201,182.22378 3.77681,22.66088 h 7.55363 l 3.77681,-22.66088 z"
     id="path168"
     inkscape:connector-curvature="0" />
  <path
     style="fill:#e5b70d;fill-opacity:1;fill-rule:nonzero;stroke:#e5b70d;stroke-width:0.00999157px;stroke-linecap:butt;stroke-linejoin:round;stroke-miterlimit:4;stroke-dasharray:none;stroke-opacity:1"
     d="m 213.9201,182.89321 0.65944,-0.77934 3.77682,22.66088 -0.65945,-0.55953 h 7.55363 l -0.64945,0.55953 3.77681,-22.66088 0.64945,0.77934 z m 15.10725,-1.33887 c 0.19984,0 0.38968,0.0899 0.50957,0.2398 0.12989,0.14987 0.17985,0.3497 0.14988,0.53954 l -3.77682,22.66089 c -0.0499,0.31973 -0.32972,0.55953 -0.65944,0.55953 h -7.55363 c -0.31973,0 -0.59949,-0.2398 -0.64945,-0.55953 l -3.77681,-22.66089 c -0.04,-0.18984 0.02,-0.38967 0.14987,-0.53954 0.1199,-0.14987 0.30974,-0.2398 0.49958,-0.2398 z"
     id="path170"
     inkscape:connector-curvature="0" />
  <g
     id="g246"
     transform="translate(-25.79767,42.631542)">
    <g
       id="g232">
      <g
         id="g220">
        <path
           id="path172"
           d="m 314.18495,87.366296 -23.08053,-3.586974 -1.02913,-11.280484 22.05139,-7.703501 z"
           style="fill:#a6a6a6;fill-opacity:1;fill-rule:evenodd;stroke:none"
           inkscape:connector-curvature="0" />
        <path
           id="path174"
           d="m 315.51383,87.246397 c 0.03,0.409654 -0.1199,0.809317 -0.41965,1.089081 -0.29975,0.279764 -0.7094,0.409655 -1.11906,0.349705 L 290.8946,85.098209 c -0.5995,-0.08992 -1.0691,-0.589502 -1.11906,-1.198988 l -1.02913,-11.280484 c -0.06,-0.609486 0.30974,-1.179005 0.88925,-1.378837 l 22.05139,-7.703501 c 0.38968,-0.12989 0.80932,-0.07993 1.15903,0.139882 0.33971,0.219815 0.56952,0.589503 0.60948,0.999157 z m -4.71603,-22.331161 1.76851,1.139039 -22.05139,7.703501 0.87925,-1.378836 1.02914,11.280483 -1.11906,-1.188997 23.08053,3.576983 -1.52871,1.438786 z"
           style="fill:#7f7f7f;fill-opacity:1;fill-rule:nonzero;stroke:#7f7f7f;stroke-width:0.00999157px;stroke-linecap:butt;stroke-linejoin:round;stroke-miterlimit:4;stroke-dasharray:none;stroke-opacity:1"
           inkscape:connector-curvature="0" />
      </g>
      <g
         id="g216">
        <g
           id="g204">
          <path
             style="fill:#4a452a;fill-opacity:1;fill-rule:evenodd;stroke:none"
             d="m 281.39261,68.742008 c -0.06,-0.629469 0.39966,-1.179006 1.02913,-1.228963 0,0 0,0 0,0 v 0 l 4.5062,-0.419646 v 0 c 0.62947,-0.04996 1.17901,0.409654 1.22896,1.029131 0,0 0,0 0,0 v 0 l 6.65439,72.96844 v 0 c 0.06,0.61948 -0.39966,1.16902 -1.01914,1.22897 0,0 0,0 0,0 v 0 l -4.51619,0.40965 v 0 c -0.61948,0.0599 -1.16901,-0.39966 -1.22896,-1.01914 0,0 0,0 0,0 z"
             id="path176"
             inkscape:connector-curvature="0" />
          <path
             style="fill:#372f28;fill-opacity:1;fill-rule:nonzero;stroke:#372f28;stroke-width:0.00999157px;stroke-linecap:butt;stroke-linejoin:round;stroke-miterlimit:4;stroke-dasharray:none;stroke-opacity:1"
             d="m 280.40345,68.841923 c -0.01,-0.06994 -0.01,-0.139882 0,-0.209823 l 0.0499,-0.44962 c 0.02,-0.129891 0.06,-0.249789 0.1199,-0.369688 l 0.20983,-0.37968 c 0.0599,-0.109907 0.13988,-0.199831 0.2298,-0.279764 l 0.32972,-0.279764 c 0.10991,-0.08992 0.2398,-0.159865 0.37968,-0.199831 l 0.43963,-0.119899 c 0.0599,-0.01998 0.10991,-0.02998 0.16986,-0.02998 l 4.5062,-0.419646 c 0.0699,-0.01 0.13988,-0.01 0.20982,0 l 0.44962,0.04996 c 0.12989,0.01998 0.24979,0.05995 0.36969,0.119899 l 0.37968,0.209823 c 0.10991,0.05995 0.20982,0.139882 0.28975,0.239797 l 0.27977,0.339714 c 0.0899,0.109907 0.14987,0.229806 0.18984,0.369688 l 0.1199,0.429638 c 0.01,0.04996 0.02,0.109907 0.03,0.169856 l 6.65439,72.968447 c 0.01,0.0699 0.01,0.13988 0,0.20982 l -0.05,0.44962 c -0.02,0.1199 -0.05,0.2398 -0.10991,0.34971 l -0.19983,0.37968 c -0.0699,0.1199 -0.14987,0.2298 -0.25978,0.31973 l -0.33971,0.26977 c -0.0999,0.0799 -0.21982,0.13988 -0.33972,0.16986 l -0.42963,0.12989 c -0.06,0.02 -0.12989,0.03 -0.19984,0.04 l -4.51619,0.40966 c -0.0599,0.01 -0.12989,0.01 -0.19983,0 l -0.44962,-0.05 c -0.1199,-0.02 -0.24979,-0.05 -0.35969,-0.1199 l -0.36969,-0.19983 c -0.10991,-0.0599 -0.21982,-0.13988 -0.29975,-0.2398 l -0.27976,-0.33971 c -0.0799,-0.0999 -0.13989,-0.21982 -0.17985,-0.34971 l -0.12989,-0.42963 c -0.02,-0.06 -0.04,-0.12989 -0.04,-0.18984 z m 8.6427,72.778607 -0.04,-0.18984 0.12989,0.42963 -0.17985,-0.3497 0.27976,0.33971 -0.29974,-0.24979 0.36969,0.19983 -0.3597,-0.1099 0.44962,0.0499 H 289.186 l 4.51619,-0.40965 -0.18984,0.04 0.42963,-0.12989 -0.33971,0.16985 0.33971,-0.26977 -0.25978,0.31973 0.19983,-0.37968 -0.1099,0.34971 0.05,-0.44962 v 0.20982 l -6.65439,-72.968444 0.03,0.169857 -0.11989,-0.429638 0.18983,0.369688 -0.27976,-0.339713 0.28976,0.239798 -0.37968,-0.209823 0.36968,0.119899 -0.44962,-0.04996 h 0.20983 l -4.5062,0.419646 0.16986,-0.02998 -0.43963,0.119899 0.37968,-0.199832 -0.32973,0.279764 0.22981,-0.279764 -0.20982,0.37968 0.1199,-0.369688 -0.05,0.449621 v -0.209823 z"
             id="path178"
             inkscape:connector-curvature="0" />
        </g>
        <g
           id="g208">
          <path
             style="fill:#7f7f7f;fill-opacity:1;fill-rule:evenodd;stroke:none"
             d="m 287.95707,143.49894 c -0.1199,-1.31889 1.46876,-2.53786 3.54701,-2.7277 v 0 c 2.07825,-0.18984 3.85675,0.72939 3.97665,2.04827 0,0 0,0 0,0 v 0 c 0.11989,1.31889 -1.46876,2.53786 -3.54701,2.7277 0,0 0,0 0,0 v 0 c -2.06826,0.18984 -3.85675,-0.72938 -3.97665,-2.04827 0,0 0,0 0,0 z"
             id="path180"
             inkscape:connector-curvature="0" />
          <path
             style="fill:#595959;fill-opacity:1;fill-rule:nonzero;stroke:#595959;stroke-width:0.00999157px;stroke-linecap:butt;stroke-linejoin:round;stroke-miterlimit:4;stroke-dasharray:none;stroke-opacity:1"
             d="m 286.99788,143.74873 c -0.03,-0.0999 -0.04,-0.19983 -0.03,-0.30974 l 0.03,-0.48959 c 0,-0.0999 0.02,-0.19983 0.06,-0.28975 l 0.17985,-0.4696 c 0.03,-0.0799 0.0699,-0.15987 0.1199,-0.22981 l 0.30974,-0.42964 c 0.04,-0.05 0.0899,-0.0999 0.12989,-0.14987 l 0.42964,-0.39966 c 0.0499,-0.04 0.0899,-0.0699 0.13988,-0.10991 l 0.52955,-0.33972 c 0.05,-0.02 0.0899,-0.0499 0.12989,-0.0699 l 0.61948,-0.27976 c 0.05,-0.02 0.0899,-0.03 0.13988,-0.05 l 0.69941,-0.19983 0.86927,-0.13988 0.88925,-0.04 0.83929,0.0799 c 0.05,0 0.0999,0.01 0.14987,0.03 l 0.65945,0.16986 0.71939,0.27976 c 0.0599,0.02 0.10991,0.05 0.15986,0.0799 l 0.48959,0.30974 c 0.0599,0.04 0.1199,0.0899 0.16986,0.13988 l 0.37968,0.37968 c 0.06,0.05 0.10991,0.1199 0.14987,0.18984 l 0.25978,0.42964 c 0.05,0.0799 0.0899,0.16986 0.10991,0.26977 l 0.1199,0.46961 c 0.03,0.0999 0.04,0.19983 0.03,0.30974 l -0.03,0.48958 c 0,0.0999 -0.03,0.19983 -0.06,0.28976 l -0.17985,0.4696 c -0.03,0.0799 -0.0699,0.15987 -0.1199,0.22981 l -0.30974,0.42964 c -0.04,0.0499 -0.0899,0.0999 -0.12989,0.14987 l -0.42963,0.39966 c -0.05,0.04 -0.0999,0.0699 -0.14988,0.10991 l -0.52955,0.33971 c -0.04,0.02 -0.0799,0.05 -0.1199,0.0699 l -0.61948,0.27977 c -0.05,0.02 -0.0899,0.03 -0.13988,0.05 l -0.69941,0.19983 -0.86927,0.13988 -0.88925,0.03 -0.83929,-0.0699 c -0.05,-0.01 -0.0999,-0.01 -0.14987,-0.03 l -0.65945,-0.16986 -0.71939,-0.27976 c -0.05,-0.02 -0.0999,-0.05 -0.14987,-0.0799 l -0.48959,-0.30973 c -0.06,-0.04 -0.10991,-0.0799 -0.15986,-0.12989 l -0.38968,-0.37968 c -0.0599,-0.06 -0.11989,-0.12989 -0.15986,-0.19984 l -0.25978,-0.42963 c -0.05,-0.0799 -0.0899,-0.16986 -0.10991,-0.26978 z m 2.04827,-0.02 -0.1099,-0.26978 0.25978,0.42964 -0.15987,-0.19983 0.38967,0.37968 -0.15986,-0.12989 0.48959,0.30974 -0.14988,-0.0799 0.43963,0.19983 0.65945,0.16985 -0.14988,-0.03 0.5995,0.0599 h 0.62946 l 0.62947,-0.0999 0.69941,-0.19983 -0.13988,0.05 0.61948,-0.27976 -0.12989,0.0699 0.52955,-0.33972 -0.13988,0.10991 0.42964,-0.39966 -0.12989,0.14987 0.30974,-0.42964 -0.1199,0.22981 0.17985,-0.4696 -0.06,0.28975 0.03,-0.48959 0.03,0.30974 -0.1199,-0.4696 0.1099,0.26977 -0.25978,-0.42964 0.14988,0.18984 -0.37968,-0.37968 0.16985,0.13989 -0.48958,-0.30974 0.15986,0.0799 -0.45961,-0.19983 -0.65944,-0.16986 0.14987,0.03 -0.59949,-0.0699 -0.62947,0.01 -0.62947,0.0999 -0.69941,0.19984 0.13988,-0.05 -0.61948,0.27976 0.1199,-0.0699 -0.52955,0.33971 0.14987,-0.1099 -0.42964,0.39966 0.12989,-0.14987 -0.30973,0.42963 0.11989,-0.2298 -0.17984,0.4696 0.06,-0.28975 -0.03,0.48958 -0.03,-0.30974 z"
             id="path182"
             inkscape:connector-curvature="0" />
        </g>
      </g>
    </g>
    <path
       id="path184"
       d="m 286.00872,122.14695 c -0.27977,-3.11737 1.16901,-5.8051 3.24726,-5.99494 0,0 0,0 0,0 v 0 c 2.07824,-0.18984 3.99663,2.18816 4.27639,5.30553 v 0 c 0.28976,3.11737 -1.16901,5.79511 -3.24726,5.98495 0,0 0,0 0,0 -2.07825,0.18984 -3.98664,-2.17817 -4.27639,-5.29554 z"
       style="fill:#f8e088;fill-opacity:1;fill-rule:evenodd;stroke:none"
       inkscape:connector-curvature="0" />
  </g>
  <path
     style="fill:#e5b70d;fill-opacity:1;fill-rule:nonzero;stroke:#e5b70d;stroke-width:0.00999157px;stroke-linecap:butt;stroke-linejoin:round;stroke-miterlimit:4;stroke-dasharray:none;stroke-opacity:1"
     d="m 259.56159,164.8884 -0.04,-1.23895 c 0,-0.03 0,-0.06 0,-0.0999 l 0.12989,-1.07909 0.27976,-1.0691 c 0.01,-0.04 0.02,-0.0699 0.03,-0.0999 l 0.37968,-0.87926 c 0.02,-0.04 0.04,-0.0699 0.0599,-0.0999 l 0.48958,-0.73937 c 0.03,-0.04 0.06,-0.0799 0.0899,-0.10991 l 0.59949,-0.57951 c 0.04,-0.04 0.0799,-0.0699 0.1199,-0.0999 l 0.66944,-0.39966 c 0.06,-0.03 0.1199,-0.0599 0.18984,-0.0699 l 0.74936,-0.17985 c 0.04,-0.01 0.0899,-0.02 0.13989,-0.02 l 0.38967,-0.01 c 0.04,0 0.0799,0 0.1199,0.01 l 0.37968,0.0599 c 0.04,0 0.0799,0.01 0.11989,0.03 l 0.73938,0.25978 c 0.05,0.01 0.0999,0.04 0.14987,0.0699 l 0.67943,0.45962 c 0.03,0.03 0.0699,0.06 0.0999,0.0899 l 0.62947,0.63946 c 0.03,0.03 0.06,0.0599 0.0799,0.0999 l 0.52955,0.79932 c 0.02,0.02 0.03,0.05 0.05,0.0799 l 0.43963,0.92922 c 0.01,0.03 0.02,0.0599 0.03,0.0899 l 0.30974,1.03912 0.19983,1.21897 0.04,1.23895 -0.1199,1.16902 c -0.01,0.03 -0.01,0.0599 -0.02,0.0899 l -0.25978,0.98917 c -0.01,0.04 -0.02,0.0699 -0.04,0.10991 l -0.38967,0.86926 c -0.01,0.03 -0.03,0.06 -0.05,0.0899 l -0.48959,0.73937 c -0.03,0.04 -0.05,0.0799 -0.0899,0.10991 l -0.5895,0.57951 c -0.04,0.04 -0.0799,0.0699 -0.12989,0.0999 l -0.67943,0.39966 c -0.05,0.03 -0.1199,0.0599 -0.17985,0.0699 l -0.74937,0.17985 c -0.06,0.02 -0.12989,0.02 -0.19983,0.02 l -0.76935,-0.05 c -0.06,0 -0.1199,-0.02 -0.17985,-0.04 l -0.73937,-0.25978 c -0.05,-0.02 -0.0999,-0.04 -0.14988,-0.0699 l -0.67942,-0.45962 c -0.04,-0.03 -0.0699,-0.06 -0.0999,-0.0899 l -0.61948,-0.63946 c -0.03,-0.03 -0.05,-0.0599 -0.0799,-0.0899 l -0.53954,-0.78933 c -0.02,-0.03 -0.04,-0.06 -0.05,-0.0999 l -0.42964,-0.92922 -0.3497,-1.11906 z m 1.46877,0.8293 0.28975,0.9492 0.42964,0.92922 -0.06,-0.0899 0.53954,0.78934 -0.0699,-0.0899 0.61948,0.63946 -0.0999,-0.0899 0.67943,0.45961 -0.14987,-0.0699 0.73937,0.25978 -0.17984,-0.04 0.76935,0.0499 -0.19983,0.02 0.74936,-0.17985 -0.17984,0.0699 0.67942,-0.39966 -0.12989,0.0999 0.5895,-0.57951 -0.0899,0.10991 0.48959,-0.73938 -0.05,0.0899 0.38967,-0.86927 -0.04,0.10991 0.25979,-0.98917 -0.02,0.0899 0.1199,-0.98917 -0.02,-1.05911 -0.15987,-1.03912 -0.30974,-1.03912 0.03,0.0899 -0.43963,-0.92922 0.05,0.0799 -0.52956,-0.79933 0.0799,0.0999 -0.62947,-0.63946 0.0999,0.0899 -0.67942,-0.45961 0.14987,0.0699 -0.73938,-0.25978 0.1199,0.03 -0.37968,-0.06 0.1199,0.01 -0.38967,0.01 0.13988,-0.02 -0.74937,0.17985 0.18984,-0.0699 -0.66943,0.39966 0.1199,-0.0999 -0.5995,0.57951 0.0899,-0.10991 -0.48959,0.73938 0.06,-0.0999 -0.37968,0.87926 0.03,-0.0999 -0.2398,0.89924 -0.12989,1.07909 v -0.0899 l 0.02,1.05911 z"
     id="path186"
     inkscape:connector-curvature="0" />
</svg>
