<?xml version="1.0" encoding="UTF-8" standalone="no"?>
<svg
   xmlns:dc="http://purl.org/dc/elements/1.1/"
   xmlns:cc="http://creativecommons.org/ns#"
   xmlns:rdf="http://www.w3.org/1999/02/22-rdf-syntax-ns#"
   xmlns:svg="http://www.w3.org/2000/svg"
   xmlns="http://www.w3.org/2000/svg"
   xml:space="preserve"
   style="enable-background:new 0 0 360.1 270.1;"
   viewBox="0 0 360.1 270.1"
   height="270.1px"
   width="360.1px"
   y="0px"
   x="0px"
   id="svg159"
   version="1.1"><metadata
   id="metadata170"><rdf:RDF><cc:Work
       rdf:about=""><dc:format>image/svg+xml</dc:format><dc:type
         rdf:resource="http://purl.org/dc/dcmitype/StillImage" /><dc:title></dc:title></cc:Work></rdf:RDF></metadata><defs
   id="defs168" />
<style
   id="style91"
   type="text/css">
	.st0{fill:#C00000;}
	.st1{fill:none;stroke:#E5B70D;stroke-width:1.3303;stroke-linejoin:round;}
	.st2{fill:#262626;}
	.st3{fill:none;stroke:#7F7F7F;stroke-width:1.3303;stroke-linejoin:round;}
	.st4{fill:none;stroke:#FFC000;stroke-width:2.0004;stroke-linejoin:round;}
	.st5{fill:none;stroke:#984807;stroke-width:1.3303;stroke-linejoin:round;}
	.st6{fill:none;stroke:#FFC000;stroke-width:1.3303;stroke-linejoin:round;}
	.st7{fill:#7F7F7F;}
	.st8{fill:none;stroke:#7F7F7F;stroke-width:8.001589e-02;stroke-linejoin:round;}
	.st9{fill:none;stroke:#262626;stroke-width:8.001589e-02;stroke-linejoin:round;}
	.st10{fill:#404040;}
	.st11{fill:#FFFFFF;}
	.st12{fill:#404040;stroke:#7F7F7F;stroke-miterlimit:8;}
	.st13{fill:none;stroke:#7F7F7F;stroke-width:1.0002;stroke-linejoin:round;stroke-miterlimit:10;}
	.st14{fill:#F8E088;}
	.st15{fill:none;stroke:#E5B70D;stroke-width:1.3303;stroke-linejoin:round;stroke-miterlimit:10;}
	.st16{fill:none;stroke:#7F7F7F;stroke-width:1.3303;stroke-linejoin:round;stroke-miterlimit:10;}
	.st17{fill:#92D050;}
	.st18{fill:none;stroke:#00B050;stroke-width:1.3303;stroke-linejoin:round;stroke-miterlimit:10;}
	.st19{fill:none;stroke:#E5B70D;stroke-width:2.0004;stroke-linejoin:round;stroke-miterlimit:10;}
	.st20{fill:#C00000;stroke:#FFC000;stroke-miterlimit:10;}
	.st21{fill:#FFC000;}
</style>
<path
   style="stroke:#e5b70d;stroke-opacity:1"
   d="M253.3,151.1c-0.8-1.2-0.5-2.7,0.7-3.5l8.4-5.5c1.2-0.8,2.7-0.5,3.5,0.7l13.9,21.1  c0.8,1.2,0.5,2.7-0.7,3.5l-8.4,5.6c-1.2,0.8-2.7,0.4-3.5-0.7L253.3,151.1z"
   class="st0"
   id="path15" />

<path
   style="stroke:#e5b70d;stroke-opacity:1"
   d="M261.4,190.8c-0.2,1.4,0.7,2.7,2.1,2.9l10,1.5c1.4,0.2,2.7-0.8,2.9-2.1l3.7-24.9  c0.2-1.4-0.8-2.7-2.1-2.9l-10-1.5c-1.4-0.2-2.7,0.8-2.9,2.1L261.4,190.8z"
   class="st0"
   id="path19" />

<path
   style="stroke:#e5b70d;stroke-opacity:1"
   d="M261,188c0-1,0.9-1.9,1.9-1.9h18.9c1,0,1.9,0.9,1.9,1.9v7.6c0,1.1-0.9,1.9-1.9,1.9h-18.9  c-1,0-1.9-0.9-1.9-1.9V188z"
   class="st0"
   id="path23" />

<path
   style="stroke:#7f7f7f;stroke-opacity:1;stroke-linejoin:round"
   d="M232.5,139.9l5.7,22.7h19.3l5.7-22.7H232.5z"
   class="st2"
   id="path27" />

<path
   d="M259.2,122.9l-7.4-8.6c-4.1-4.7-3.6-11.9,1.2-16c4.8-4.1,11.9-3.5,16,1.2l7.4,8.6L259.2,122.9z"
   class="st0"
   id="path31" />
<path
   d="M259.2,122.9l-7.4-8.6c-4.1-4.7-3.6-11.9,1.2-16c4.8-4.1,11.9-3.5,16,1.2l7.4,8.6L259.2,122.9z"
   class="st4"
   id="path33" />
<path
   d="M259.5,110c0.5-0.9,1.6-1.3,2.5-0.8l13.7,7c0.9,0.5,1.3,1.6,0.8,2.5l-3.5,6.7  c-0.5,0.9-1.6,1.3-2.5,0.8l-13.7-7c-0.9-0.5-1.3-1.6-0.8-2.6L259.5,110z"
   class="st0"
   id="path35" />
<path
   d="M259.5,110c0.5-0.9,1.6-1.3,2.5-0.8l13.7,7c0.9,0.5,1.3,1.6,0.8,2.5l-3.5,6.7  c-0.5,0.9-1.6,1.3-2.5,0.8l-13.7-7c-0.9-0.5-1.3-1.6-0.8-2.6L259.5,110z"
   class="st1"
   id="path37" />
<path
   d="M228.7,110.2c0-3.1,2.5-5.7,5.7-5.7h26.5c3.1,0,5.7,2.5,5.7,5.7v22.7c0,3.1-2.5,5.7-5.7,5.7h-26.5  c-3.1,0-5.7-2.5-5.7-5.7V110.2z"
   class="st0"
   id="path39" />
<path
   d="M228.7,110.2c0-3.1,2.5-5.7,5.7-5.7h26.5c3.1,0,5.7,2.5,5.7,5.7v22.7c0,3.1-2.5,5.7-5.7,5.7h-26.5  c-3.1,0-5.7-2.5-5.7-5.7V110.2z"
   class="st5"
   id="path41" />
<path
   style="stroke:#ffc000;stroke-opacity:1"
   d="M236.3,95.1c0-7.3,5.1-13.2,11.3-13.2c6.3,0,11.3,5.9,11.3,13.2s-5.1,13.2-11.3,13.2  C241.4,108.3,236.3,102.4,236.3,95.1z"
   class="st0"
   id="path43" />

<path
   style="stroke:#ffc000;stroke-opacity:1;stroke-width:1.33066667;stroke-miterlimit:4;stroke-dasharray:none"
   d="M247.6,105.7v-5.3c0-2.9,1.7-5.3,3.8-5.3c2.1,0,3.8,2.4,3.8,5.3v5.3H247.6z"
   id="path47" />

<path
   d="M270.9,118.8c0-1,0.9-1.9,1.9-1.9h15.3c1.1,0,1.9,0.9,1.9,1.9v7.6c0,1-0.8,1.9-1.9,1.9h-15.3  c-1,0-1.9-0.9-1.9-1.9V118.8z"
   class="st2"
   id="path51" />
<path
   d="M270.9,118.8c0-1,0.9-1.9,1.9-1.9h15.3c1.1,0,1.9,0.9,1.9,1.9v7.6c0,1-0.8,1.9-1.9,1.9h-15.3  c-1,0-1.9-0.9-1.9-1.9V118.8z"
   class="st3"
   id="path53" />
<path
   style="stroke:#7f7f7f;stroke-opacity:1;stroke-linejoin:round"
   d="M266,119.7l12.3-2.7l0,0c-1.4,0.3-1.5,4.7-0.4,9.8c1.1,5.1,3.1,9,4.5,8.7l0,0l-12.3,2.7l0,0  c-1.4,0.3-3.4-3.6-4.5-8.7C264.5,124.3,264.7,120,266,119.7z"
   class="st2"
   id="path55" />

<path
   style="stroke:#7f7f7f;stroke-opacity:1;stroke-linejoin:round"
   d="M257.9,138c-0.6-0.2-0.6-2.1,0.1-4.4c0.6-2.3,1.6-3.9,2.2-3.8l0,0c0.6,0.2,1.6-1.5,2.2-3.8  c0.6-2.3,0.6-4.3,0.1-4.4l0,0l0,0l-8.8-2.5l0,0c0.6,0.2,0.6,2.1,0,4.4c-0.6,2.3-1.6,4-2.2,3.8l0,0l0,0c-0.6-0.2-1.6,1.5-2.2,3.8  c-0.6,2.3-0.7,4.2-0.1,4.4l0,0L257.9,138z"
   class="st2"
   id="path59" />

<path
   d="M244.6,113.2l5.3-7.6H271l-5.3,7.6H244.6z"
   class="st2"
   id="path63" />
<path
   d="M244.6,113.9c-0.3,0-0.5-0.1-0.6-0.4c-0.1-0.2-0.1-0.5,0.1-0.7l5.3-7.6c0.1-0.2,0.3-0.3,0.6-0.3  h21.2c0.3,0,0.5,0.2,0.6,0.4c0.1,0.3,0.1,0.5,0,0.7l-5.3,7.6c-0.1,0.2-0.3,0.3-0.6,0.3H244.6z M265.8,112.6l-0.5,0.3l5.3-7.6  l0.5,1.1h-21.2l0.5-0.3l-5.3,7.6l-0.5-1H265.8z"
   class="st7"
   id="path65" />
<path
   d="M244.6,113.9c-0.3,0-0.5-0.1-0.6-0.4c-0.1-0.2-0.1-0.5,0.1-0.7l5.3-7.6c0.1-0.2,0.3-0.3,0.6-0.3  h21.2c0.3,0,0.5,0.2,0.6,0.4c0.1,0.3,0.1,0.5,0,0.7l-5.3,7.6c-0.1,0.2-0.3,0.3-0.6,0.3H244.6z M265.8,112.6l-0.5,0.3l5.3-7.6  l0.5,1.1h-21.2l0.5-0.3l-5.3,7.6l-0.5-1H265.8z"
   class="st8"
   id="path67" />
<path
   d="M244.6,113.2v7.6h13.2v-7.6H244.6z"
   class="st2"
   id="path69" />
<path
   d="M244,113.2c0-0.4,0.3-0.7,0.7-0.7h13.1c0.4,0,0.7,0.3,0.7,0.7v7.5c0,0.4-0.3,0.6-0.7,0.6h-13.1  c-0.4,0-0.7-0.3-0.7-0.6V113.2z M245.3,120.7l-0.6-0.7h13.1l-0.7,0.7v-7.5l0.7,0.6h-13.1l0.6-0.6V120.7z"
   class="st7"
   id="path71" />
<path
   d="M244,113.2c0-0.4,0.3-0.7,0.7-0.7h13.1c0.4,0,0.7,0.3,0.7,0.7v7.5c0,0.4-0.3,0.6-0.7,0.6h-13.1  c-0.4,0-0.7-0.3-0.7-0.6V113.2z M245.3,120.7l-0.6-0.7h13.1l-0.7,0.7v-7.5l0.7,0.6h-13.1l0.6-0.6V120.7z"
   class="st8"
   id="path73" />
<path
   d="M256,105.6v15.2h41.6v-15.2H256z"
   class="st2"
   id="path75" />
<path
   d="M255.3,105.6c0-0.4,0.3-0.7,0.7-0.7h41.6c0.4,0,0.6,0.3,0.6,0.7v15.1c0,0.4-0.3,0.6-0.6,0.6H256  c-0.4,0-0.7-0.3-0.7-0.6V105.6z M256.6,120.7l-0.6-0.7h41.6l-0.7,0.7v-15.1l0.7,0.7H256l0.6-0.7V120.7z"
   class="st7"
   id="path77" />
<path
   d="M255.3,105.6c0-0.4,0.3-0.7,0.7-0.7h41.6c0.4,0,0.6,0.3,0.6,0.7v15.1c0,0.4-0.3,0.6-0.6,0.6H256  c-0.4,0-0.7-0.3-0.7-0.6V105.6z M256.6,120.7l-0.6-0.7h41.6l-0.7,0.7v-15.1l0.7,0.7H256l0.6-0.7V120.7z"
   class="st8"
   id="path79" />
<path
   d="M251.7,109.4v7.6h2.8v-7.6H251.7z"
   class="st2"
   id="path81" />
<path
   d="M251.1,109.4c0-0.4,0.3-0.6,0.6-0.6h2.8c0.4,0,0.7,0.3,0.7,0.6v7.5c0,0.4-0.3,0.7-0.7,0.7h-2.8  c-0.4,0-0.6-0.3-0.6-0.7V109.4z M252.4,117l-0.7-0.7h2.8l-0.6,0.7v-7.5l0.6,0.7h-2.8l0.7-0.7V117z"
   class="st2"
   id="path83" />
<path
   d="M251.1,109.4c0-0.4,0.3-0.6,0.6-0.6h2.8c0.4,0,0.7,0.3,0.7,0.6v7.5c0,0.4-0.3,0.7-0.7,0.7h-2.8  c-0.4,0-0.6-0.3-0.6-0.7V109.4z M252.4,117l-0.7-0.7h2.8l-0.6,0.7v-7.5l0.6,0.7h-2.8l0.7-0.7V117z"
   class="st9"
   id="path85" />
<path
   d="M282.4,118.2c0-0.7,0.6-1.3,1.3-1.3l0,0l0,0h12.6l0,0c0.7,0,1.3,0.6,1.3,1.3l0,0l0,0v5l0,0  c0,0.7-0.6,1.3-1.3,1.3l0,0l0,0h-12.6l0,0c-0.7,0-1.3-0.6-1.3-1.3l0,0V118.2z"
   class="st10"
   id="path87" />
<path
   d="M281.7,118.2l0-0.3c0,0,0-0.1,0-0.2l0-0.2c0,0,0-0.1,0.1-0.1l0.1-0.3c0,0,0-0.1,0-0.1l0.2-0.2  c0,0,0.1-0.1,0.1-0.1l0.2-0.2c0,0,0.1,0,0.1-0.1l0.2-0.1c0,0,0.1,0,0.1,0l0.2-0.1c0,0,0.1,0,0.1,0h0.3h12.7h0.3c0,0,0.1,0,0.2,0  l0.2,0.1c0,0,0.1,0,0.1,0l0.2,0.1c0.1,0,0.1,0,0.1,0.1l0.2,0.2c0,0,0.1,0,0.1,0.1l0.2,0.2c0,0,0,0,0.1,0.1l0.1,0.3c0,0,0,0.1,0,0.1  l0.1,0.2c0,0.1,0,0.1,0,0.2v0.2v5.1v0.3c0,0,0,0.1,0,0.1l-0.1,0.3c0,0,0,0.1,0,0.1l-0.1,0.2c0,0,0,0.1-0.1,0.1l-0.2,0.2  c0,0,0,0-0.1,0.1l-0.2,0.2c0,0,0,0-0.1,0l-0.2,0.1c0,0-0.1,0-0.1,0l-0.2,0.1c-0.1,0-0.1,0-0.2,0l-0.2,0h-12.7l-0.3,0  c0,0-0.1,0-0.1,0l-0.2-0.1c0,0-0.1,0-0.1,0l-0.2-0.1c0,0-0.1,0-0.1,0l-0.2-0.2c0,0,0-0.1-0.1-0.1l-0.2-0.2c0,0,0-0.1,0-0.1l-0.1-0.2  c0,0,0-0.1-0.1-0.1l0-0.3c0,0,0-0.1,0-0.1l0-0.3V118.2z M283,123.2l0,0.2l0-0.1l0.1,0.2l0-0.1l0.1,0.2l-0.1-0.1l0.2,0.2l-0.1-0.1  l0.2,0.2l-0.1-0.1l0.2,0.1l-0.1-0.1l0.2,0.1l-0.1,0h0.2l12.6,0l0.3,0l-0.2,0l0.2-0.1l-0.1,0.1l0.2-0.1l-0.1,0.1l0.2-0.2l-0.1,0.1  l0.1-0.2l0,0.1l0.1-0.2l0,0.1l0.1-0.2l0,0.1l0-0.2v-5l0-0.2l0,0.2l-0.1-0.2l0,0.1l-0.1-0.2l0,0.1l-0.1-0.2l0.1,0.1l-0.2-0.1l0.1,0  l-0.2-0.1l0.1,0l-0.2-0.1l0.2,0l-0.2,0h-12.6l-0.3,0l0.1,0l-0.2,0.1l0.1,0l-0.2,0.1l0.1,0l-0.2,0.1l0.1-0.1l-0.2,0.2l0.1-0.1  l-0.1,0.2l0-0.1l-0.1,0.2l0-0.2v0.2L283,123.2z"
   class="st7"
   id="path89" />
<path
   d="M281.7,118.2l0-0.3c0,0,0-0.1,0-0.2l0-0.2c0,0,0-0.1,0.1-0.1l0.1-0.3c0,0,0-0.1,0-0.1l0.2-0.2  c0,0,0.1-0.1,0.1-0.1l0.2-0.2c0,0,0.1,0,0.1-0.1l0.2-0.1c0,0,0.1,0,0.1,0l0.2-0.1c0,0,0.1,0,0.1,0h0.3h12.7h0.3c0,0,0.1,0,0.2,0  l0.2,0.1c0,0,0.1,0,0.1,0l0.2,0.1c0.1,0,0.1,0,0.1,0.1l0.2,0.2c0,0,0.1,0,0.1,0.1l0.2,0.2c0,0,0,0,0.1,0.1l0.1,0.3c0,0,0,0.1,0,0.1  l0.1,0.2c0,0.1,0,0.1,0,0.2v0.2v5.1v0.3c0,0,0,0.1,0,0.1l-0.1,0.3c0,0,0,0.1,0,0.1l-0.1,0.2c0,0,0,0.1-0.1,0.1l-0.2,0.2  c0,0,0,0-0.1,0.1l-0.2,0.2c0,0,0,0-0.1,0l-0.2,0.1c0,0-0.1,0-0.1,0l-0.2,0.1c-0.1,0-0.1,0-0.2,0l-0.2,0h-12.7l-0.3,0  c0,0-0.1,0-0.1,0l-0.2-0.1c0,0-0.1,0-0.1,0l-0.2-0.1c0,0-0.1,0-0.1,0l-0.2-0.2c0,0,0-0.1-0.1-0.1l-0.2-0.2c0,0,0-0.1,0-0.1l-0.1-0.2  c0,0,0-0.1-0.1-0.1l0-0.3c0,0,0-0.1,0-0.1l0-0.3V118.2z M283,123.2l0,0.2l0-0.1l0.1,0.2l0-0.1l0.1,0.2l-0.1-0.1l0.2,0.2l-0.1-0.1  l0.2,0.2l-0.1-0.1l0.2,0.1l-0.1-0.1l0.2,0.1l-0.1,0h0.2l12.6,0l0.3,0l-0.2,0l0.2-0.1l-0.1,0.1l0.2-0.1l-0.1,0.1l0.2-0.2l-0.1,0.1  l0.1-0.2l0,0.1l0.1-0.2l0,0.1l0.1-0.2l0,0.1l0-0.2v-5l0-0.2l0,0.2l-0.1-0.2l0,0.1l-0.1-0.2l0,0.1l-0.1-0.2l0.1,0.1l-0.2-0.1l0.1,0  l-0.2-0.1l0.1,0l-0.2-0.1l0.2,0l-0.2,0h-12.6l-0.3,0l0.1,0l-0.2,0.1l0.1,0l-0.2,0.1l0.1,0l-0.2,0.1l0.1-0.1l-0.2,0.2l0.1-0.1  l-0.1,0.2l0-0.1l-0.1,0.2l0-0.2v0.2L283,123.2z"
   class="st8"
   id="path91" />
<path
   d="M285.3,103.9c0.5-0.3,0.6-1.4,0.6-2.2c0-0.4,0.1-1.1-0.3-1.2c-0.9-0.3-1.9,0.2-2.8,0.3  c-0.1,0.6-0.3,1.2-0.3,1.9c0,0.3,0,0.8,0.3,0.9C283.9,103.8,284.8,104.2,285.3,103.9z"
   class="st11"
   id="path93" />
<g
   id="g135">
	<path
   d="M299.1,105.5h7.5l0,0c1,0,1.8,2.5,1.8,5.6c0,3.2-0.8,5.6-1.8,5.6l0,0l0,0h-7.5l0,0   c-1,0-1.8-2.4-1.8-5.6C297.3,108,298.1,105.5,299.1,105.5z"
   class="st12"
   id="path95" />
	<path
   d="M306.5,117.3h-0.2c-0.1,0-0.2-0.1-0.2-0.1l-0.3-0.1l-0.1-0.1l-0.2-0.2c0,0,0,0,0-0.1l-0.2-0.2   c-0.1,0-0.1-0.1-0.1-0.1l-0.2-0.2l-0.2-0.3l-0.2-0.4l-0.1-0.4l-0.2-0.4l-0.2-0.5l-0.1-0.5l-0.1-0.6l-0.1-1l-0.1-1.2l0.1-1.2   l0.1-1.1l0.1-0.5l0.1-0.6l0.2-0.4l0.1-0.5l0.2-0.3l0.2-0.4l0.3-0.3l0.2-0.3c0,0,0,0,0.1-0.1l0.2-0.2v-0.1l0.2-0.2l0.1-0.1l0.3-0.1   c0,0,0.1,0,0.2-0.1h0.2l0.2,1.4h-0.2l0.2-0.1l-0.2,0.1l0.2-0.1l-0.2,0.2l0.1-0.1l-0.2,0.2v-0.1l-0.1,0.2l-0.2,0.2L306,107l-0.1,0.3   l-0.2,0.4l-0.1,0.4l-0.1,0.4v0.5l-0.2,1v1v1.1l0.2,1v0.5l0.1,0.4l0.1,0.4l0.2,0.4l0.1,0.3l0.2,0.2l0.1,0.2l0.2,0.2v-0.1l0.2,0.2   l-0.1-0.1l0.2,0.2l-0.2-0.1l0.2,0.1l-0.2-0.1l0.2,0.1L306.5,117.3z"
   class="st7"
   id="path99" />
</g>
<path
   style="stroke:#7f7f7f;stroke-opacity:1;stroke-linejoin:round"
   d="M286.1,103.4V101h1.4c0.7,0,1.7-0.2,2.3-0.4c1-0.4,2.5-2,2.5-2.6c0-0.6,1.8-0.4,2.7-0.5  c0.6,0,2,0.2,2,0.2v3.9v4h-5.4h-5.5V103.4z"
   class="st10"
   id="path101" />

<path
   style="stroke:#e5b70d;stroke-opacity:1;stroke-width:1.33066667;stroke-miterlimit:4;stroke-dasharray:none"
   d="M259,125.3c0-3.1,1.7-5.7,3.8-5.7c2.1,0,3.8,2.5,3.8,5.7c0,3.1-1.7,5.7-3.8,5.7  C260.7,131,259,128.4,259,125.3z"
   class="st14"
   id="path105" />

<path
   style="stroke:#7f7f7f;stroke-opacity:1"
   d="M240.1,121.5c0-1,0.9-1.9,1.9-1.9h15.3c1,0,1.9,0.9,1.9,1.9v7.6c0,1.1-0.9,1.9-1.9,1.9H242  c-1.1,0-1.9-0.8-1.9-1.9V121.5z"
   class="st2"
   id="path109" />

<path
   d="M251.2,90.8c0.1,0.7,1.5,1.2,3.3,1.1s3.2-0.8,3.1-1.5c0-0.7-1.5-1.2-3.3-1.1  C252.6,89.3,251.2,90,251.2,90.8z"
   class="st17"
   id="path113" />
<path
   d="M251.2,90.8c0.1,0.7,1.5,1.2,3.3,1.1s3.2-0.8,3.1-1.5c0-0.7-1.5-1.2-3.3-1.1  C252.6,89.3,251.2,90,251.2,90.8"
   class="st18"
   id="path115" />
<path
   d="M241.3,90.7c0,0.7,1.7,1.3,3.8,1.3c2.1,0,3.8-0.6,3.8-1.3c0-0.7-1.7-1.3-3.8-1.3  C243,89.4,241.3,90,241.3,90.7z"
   class="st17"
   id="path117" />
<path
   d="M241.3,90.7c0,0.7,1.7,1.3,3.8,1.3c2.1,0,3.8-0.6,3.8-1.3c0-0.7-1.7-1.3-3.8-1.3  C243,89.4,241.3,90,241.3,90.7"
   class="st18"
   id="path119" />
<path
   d="M241.3,139.9l3.3,22.7h6.6l3.3-22.7H241.3z"
   class="st0"
   id="path121" />
<path
   d="M241.3,139.9l3.3,22.7h6.6l3.3-22.7H241.3z"
   class="st15"
   id="path123" />
<path
   d="M285.5,121.5c0-3.1,1.7-5.7,3.8-5.7c2.1,0,3.8,2.5,3.8,5.7c0,3.1-1.7,5.7-3.8,5.7  C287.2,127.2,285.5,124.7,285.5,121.5z"
   class="st14"
   id="path125" />
<path
   style="stroke-width:1.33066667;stroke-miterlimit:10;stroke-dasharray:none"
   d="M285.5,121.5c0-3.1,1.7-5.7,3.8-5.7c2.1,0,3.8,2.5,3.8,5.7c0,3.1-1.7,5.7-3.8,5.7  C287.2,127.2,285.5,124.7,285.5,121.5"
   class="st15"
   id="path127" />
<path
   style="stroke:#e5b70d;stroke-opacity:1"
   d="M236.2,110.7c0.8-0.7,2-0.5,2.7,0.3l9.7,11.9c0.7,0.8,0.5,2-0.3,2.7l-5.9,4.8  c-0.8,0.7-2,0.5-2.7-0.3l-9.7-11.9c-0.7-0.8-0.5-2,0.3-2.7L236.2,110.7z"
   class="st0"
   id="path129" />

<path
   d="M225,112.1c0-4.2,3.4-7.6,7.6-7.6c4.2,0,7.6,3.4,7.6,7.6c0,4.2-3.4,7.6-7.6,7.6  C228.4,119.6,225,116.3,225,112.1z"
   class="st0"
   id="path133" />
<path
   d="M225,112.1c0-4.2,3.4-7.6,7.6-7.6c4.2,0,7.6,3.4,7.6,7.6c0,4.2-3.4,7.6-7.6,7.6  C228.4,119.6,225,116.3,225,112.1"
   class="st15"
   id="path135" />
<path
   d="M227.5,124.3l-7.4-8.6c-4.1-4.8-3.6-11.9,1.2-16c4.8-4.1,11.9-3.6,16,1.2l7.4,8.6L227.5,124.3z"
   class="st0"
   id="path137" />
<path
   d="M227.5,124.3l-7.4-8.6c-4.1-4.8-3.6-11.9,1.2-16c4.8-4.1,11.9-3.6,16,1.2l7.4,8.6L227.5,124.3z"
   class="st19"
   id="path139" />
<path
   style="stroke:#e5b70d;stroke-opacity:1"
   d="M230.2,154.9c-0.7-1.2-0.2-2.8,1-3.4l8.8-4.9c1.2-0.7,2.8-0.2,3.4,1l12.2,22  c0.7,1.2,0.2,2.8-1,3.4l-8.8,4.9c-1.2,0.7-2.8,0.2-3.4-1L230.2,154.9z"
   class="st0"
   id="path141" />

<path
   style="stroke:#e5b70d;stroke-opacity:1"
   d="M235.7,195.4c-0.2,1.4,0.7,2.7,2.1,2.9l10,1.5c1.4,0.2,2.7-0.8,2.9-2.1l3.7-24.9  c0.2-1.4-0.8-2.7-2.1-2.9l-10-1.5c-1.4-0.2-2.7,0.8-2.9,2.1L235.7,195.4z"
   class="st0"
   id="path145" />

<path
   style="stroke:#e5b70d;stroke-opacity:1"
   d="M235.4,192.6c0-1,0.9-1.9,1.9-1.9h18.9c1,0,1.9,0.9,1.9,1.9v7.6c0,1-0.9,1.9-1.9,1.9h-18.9  c-1,0-1.9-0.9-1.9-1.9V192.6z"
   class="st0"
   id="path149" />

<path
   d="M243.9,82.5l0.9-3.6h7.2l-0.9,3.6H243.9z"
   class="st20"
   id="path153" />
<path
   d="M238.4,86.3c0,0.3,0.1,0.6,0.4,0.6l11,3.5c0.2,0.1,0.4,0,0.6-0.1l6.5-3.5  c0.2-0.2-0.6-0.3-0.8-0.6c-1.4-1.6,2.4-1.8-2.2,0.6l-4,2.2l-6.8-2.2C239.6,85.8,239.5,85.2,238.4,86.3z"
   class="st21"
   id="path157" />
</svg>