# Blender v2.79 (sub 0) OBJ File: 'character.blend'
# www.blender.org
mtllib character.mtl
o Player_Cube
v -1.050000 3.066415 -2.808334
v -1.050000 3.066920 -3.858334
v -1.050000 6.216413 -2.806820
v -1.050000 6.216918 -3.856819
v -2.100080 6.216678 -3.856979
v -2.099920 6.216652 -2.806979
v -1.049920 6.216652 -2.807139
v -1.050080 6.216678 -3.857139
v -2.100080 3.066679 -3.857057
v -2.099920 3.066653 -2.807057
v -1.049920 3.066653 -2.807217
v -1.050079 3.066679 -3.857216
v -1.050000 -0.083332 -2.808334
v -1.050000 -0.083332 -3.858334
v -1.050000 3.066668 -2.808334
v -1.050000 3.066668 -3.858334
v -1.050252 6.216681 -2.282072
v -1.049748 6.216672 -4.382071
v -1.050230 8.316682 -2.282081
v -1.049726 8.316672 -4.382081
v 1.050000 3.066920 -3.858334
v 1.050000 3.066415 -2.808334
v 1.050000 6.216918 -3.856819
v 1.050000 6.216413 -2.806819
v 1.050079 3.066679 -3.857216
v 1.049920 3.066653 -2.807217
v 2.099920 3.066653 -2.807057
v 2.100080 3.066679 -3.857057
v 1.050080 6.216678 -3.857139
v 1.049920 6.216652 -2.807139
v 2.099920 6.216652 -2.806979
v 2.100080 6.216678 -3.856979
v 0.000000 -0.083333 -3.858334
v -0.000000 -0.083333 -2.808334
v 0.000000 3.066667 -2.808334
v 0.000000 3.066667 -3.858334
v 1.050252 6.216650 -4.381567
v 1.049748 6.216659 -2.281567
v 1.050274 8.316651 -4.381576
v 1.049770 8.316659 -2.281576
v 1.050000 3.066668 -3.858334
v 1.050000 3.066668 -2.808334
v 1.050000 -0.083332 -3.858334
v 1.050000 -0.083332 -2.808334
v 0.000000 -0.083333 -3.858334
v -0.000000 -0.083333 -2.808334
v -0.000000 3.066667 -2.808334
v -0.000000 3.066667 -3.858334
v -1.150277 6.116683 -2.182096
v -1.149725 6.116673 -4.482095
v -1.150253 8.416684 -2.182105
v -1.149700 8.416675 -4.482105
v 1.150275 6.116649 -4.481543
v 1.149723 6.116659 -2.181543
v 1.150299 8.416650 -4.481552
v 1.149747 8.416659 -2.181553
v 1.050000 6.216918 -3.856819
v 1.050000 6.216918 -3.856819
v 1.050000 6.216413 -2.806819
v 1.050000 6.216413 -2.806819
v 1.050000 3.066415 -2.808334
v 1.050000 3.066415 -2.808334
v 1.050000 3.066920 -3.858334
v 1.050000 3.066920 -3.858334
v -1.050000 6.216413 -2.806820
v -1.050000 6.216413 -2.806820
v -1.050000 3.066415 -2.808334
v -1.050000 3.066415 -2.808334
v -1.050000 6.216918 -3.856819
v -1.050000 6.216918 -3.856819
v -1.050000 3.066920 -3.858334
v -1.050000 3.066920 -3.858334
v -2.100080 6.216678 -3.856979
v -2.100080 6.216678 -3.856979
v -2.100080 3.066679 -3.857057
v -2.100080 3.066679 -3.857057
v -1.049920 6.216652 -2.807139
v -1.049920 6.216652 -2.807139
v -1.049920 3.066653 -2.807217
v -1.049920 3.066653 -2.807217
v -2.099920 6.216652 -2.806979
v -2.099920 6.216652 -2.806979
v -2.099920 3.066653 -2.807057
v -2.099920 3.066653 -2.807057
v -1.050080 6.216678 -3.857139
v -1.050080 6.216678 -3.857139
v -1.050079 3.066679 -3.857216
v -1.050079 3.066679 -3.857216
v -0.000000 -0.083333 -2.808334
v -0.000000 -0.083333 -2.808334
v 0.000000 -0.083333 -3.858334
v 0.000000 -0.083333 -3.858334
v -1.050000 -0.083332 -2.808334
v -1.050000 -0.083332 -2.808334
v -1.050000 3.066668 -2.808334
v -1.050000 3.066668 -2.808334
v -1.050000 3.066668 -3.858334
v -1.050000 3.066668 -3.858334
v -1.050000 -0.083332 -3.858334
v -1.050000 -0.083332 -3.858334
v 1.050274 8.316651 -4.381576
v 1.050274 8.316651 -4.381576
v 1.049770 8.316659 -2.281576
v 1.049770 8.316659 -2.281576
v 1.049748 6.216659 -2.281567
v 1.049748 6.216659 -2.281567
v 1.050252 6.216650 -4.381567
v 1.050252 6.216650 -4.381567
v -1.050230 8.316682 -2.282081
v -1.050230 8.316682 -2.282081
v -1.050252 6.216681 -2.282072
v -1.050252 6.216681 -2.282072
v -1.049726 8.316672 -4.382081
v -1.049726 8.316672 -4.382081
v -1.049748 6.216672 -4.382071
v -1.049748 6.216672 -4.382071
v 1.050080 6.216678 -3.857139
v 1.050080 6.216678 -3.857139
v 1.049920 6.216652 -2.807139
v 1.049920 6.216652 -2.807139
v 1.049920 3.066653 -2.807217
v 1.049920 3.066653 -2.807217
v 1.050079 3.066679 -3.857216
v 1.050079 3.066679 -3.857216
v 2.099920 6.216652 -2.806979
v 2.099920 6.216652 -2.806979
v 2.099920 3.066653 -2.807057
v 2.099920 3.066653 -2.807057
v 2.100080 6.216678 -3.856979
v 2.100080 6.216678 -3.856979
v 2.100080 3.066679 -3.857057
v 2.100080 3.066679 -3.857057
v 0.000000 3.066667 -2.808334
v 0.000000 3.066667 -2.808334
v -0.000000 3.066667 -2.808334
v -0.000000 3.066667 -2.808334
v 1.050000 3.066668 -2.808334
v 1.050000 3.066668 -2.808334
v -0.000000 -0.083333 -2.808334
v -0.000000 -0.083333 -2.808334
v 0.000000 3.066667 -3.858334
v 0.000000 3.066667 -3.858334
v 1.050000 -0.083332 -2.808334
v 1.050000 -0.083332 -2.808334
v 0.000000 -0.083333 -3.858334
v 0.000000 -0.083333 -3.858334
v 1.050000 -0.083332 -3.858334
v 1.050000 -0.083332 -3.858334
v 1.050000 3.066668 -3.858334
v 1.050000 3.066668 -3.858334
v -0.000000 3.066667 -3.858334
v -0.000000 3.066667 -3.858334
v 1.150299 8.416650 -4.481552
v 1.150299 8.416650 -4.481552
v 1.149747 8.416659 -2.181553
v 1.149747 8.416659 -2.181553
v 1.149723 6.116659 -2.181543
v 1.149723 6.116659 -2.181543
v 1.150275 6.116649 -4.481543
v 1.150275 6.116649 -4.481543
v -1.150253 8.416684 -2.182105
v -1.150253 8.416684 -2.182105
v -1.150277 6.116683 -2.182096
v -1.150277 6.116683 -2.182096
v -1.149700 8.416675 -4.482105
v -1.149700 8.416675 -4.482105
v -1.149725 6.116673 -4.482095
v -1.149725 6.116673 -4.482095
vt 0.625000 0.375000
vt 0.500000 0.375000
vt 0.500000 0.000000
vt 0.625000 0.000000
vt 0.500000 0.375000
vt 0.437500 0.375000
vt 0.437500 0.000000
vt 0.500000 0.000000
vt 0.437500 0.375000
vt 0.312500 0.375000
vt 0.312500 0.000000
vt 0.437500 0.000000
vt 0.562500 0.375000
vt 0.562500 0.500000
vt 0.437500 0.500000
vt 0.437500 0.375000
vt 0.437500 0.375000
vt 0.437500 0.500000
vt 0.312500 0.500000
vt 0.312500 0.375000
vt 0.125000 0.375000
vt 0.125000 0.000000
vt 0.187500 0.000000
vt 0.187500 0.375000
vt 0.812500 0.375000
vt 0.875000 0.375000
vt 0.875000 0.000000
vt 0.812500 0.000000
vt 0.750000 0.375000
vt 0.812500 0.375000
vt 0.812500 0.000000
vt 0.750000 0.000000
vt 0.187500 0.375000
vt 0.187500 0.500000
vt 0.125000 0.500000
vt 0.125000 0.375000
vt 0.000000 0.375000
vt 0.062500 0.375000
vt 0.062500 0.000000
vt 0.000000 0.000000
vt 0.500000 0.750000
vt 0.375000 0.750000
vt 0.375000 0.500000
vt 0.500000 0.500000
vt 0.375000 0.750000
vt 0.250000 0.750000
vt 0.250000 0.500000
vt 0.375000 0.500000
vt 0.250000 0.750000
vt 0.125000 0.750000
vt 0.125000 0.500000
vt 0.250000 0.500000
vt 0.375000 0.750000
vt 0.375000 1.000000
vt 0.250000 1.000000
vt 0.250000 0.750000
vt 0.250000 0.750000
vt 0.250000 1.000000
vt 0.125000 1.000000
vt 0.125000 0.750000
vt 0.187500 0.375000
vt 0.250000 0.375000
vt 0.250000 0.000000
vt 0.187500 0.000000
vt 0.062500 0.375000
vt 0.062500 0.000000
vt 0.125000 0.000000
vt 0.125000 0.375000
vt 0.062500 0.375000
vt 0.125000 0.375000
vt 0.125000 0.000000
vt 0.062500 0.000000
vt 0.750000 0.375000
vt 0.812500 0.375000
vt 0.812500 0.500000
vt 0.750000 0.500000
vt 0.687500 0.375000
vt 0.750000 0.375000
vt 0.750000 0.500000
vt 0.687500 0.500000
vt 0.187500 0.375000
vt 0.187500 0.000000
vt 0.250000 0.000000
vt 0.250000 0.375000
vt 0.125000 0.375000
vt 0.187500 0.375000
vt 0.187500 0.000000
vt 0.125000 0.000000
vt 0.000000 0.375000
vt 0.000000 0.000000
vt 0.062500 0.000000
vt 0.062500 0.375000
vt 0.250000 0.375000
vt 0.250000 0.000000
vt 0.312500 0.000000
vt 0.312500 0.375000
vt 0.000000 0.750000
vt 0.000000 0.500000
vt 0.125000 0.500000
vt 0.125000 0.750000
vt 0.125000 0.375000
vt 0.125000 0.500000
vt 0.062500 0.500000
vt 0.062500 0.375000
vt 0.687500 0.375000
vt 0.750000 0.375000
vt 0.750000 0.000000
vt 0.687500 0.000000
vt 0.625000 0.375000
vt 0.687500 0.375000
vt 0.687500 0.000000
vt 0.625000 0.000000
vt 0.625000 0.375000
vt 0.625000 0.000000
vt 0.687500 0.000000
vt 0.687500 0.375000
vt 0.687500 0.375000
vt 0.687500 0.500000
vt 0.750000 0.500000
vt 0.750000 0.375000
vt 0.687500 0.375000
vt 0.687500 0.000000
vt 0.750000 0.000000
vt 0.750000 0.375000
vt 0.187500 0.375000
vt 0.125000 0.375000
vt 0.125000 0.500000
vt 0.187500 0.500000
vt 0.750000 0.375000
vt 0.750000 0.000000
vt 0.812500 0.000000
vt 0.812500 0.375000
vt 0.750000 0.375000
vt 0.750000 0.500000
vt 0.812500 0.500000
vt 0.812500 0.375000
vt 0.812500 0.375000
vt 0.812500 0.000000
vt 0.875000 0.000000
vt 0.875000 0.375000
vt 0.125000 0.375000
vt 0.062500 0.375000
vt 0.062500 0.500000
vt 0.125000 0.500000
vt 1.000000 0.750000
vt 0.875000 0.750000
vt 0.875000 0.500000
vt 1.000000 0.500000
vt 0.875000 0.750000
vt 0.750000 0.750000
vt 0.750000 0.500000
vt 0.875000 0.500000
vt 0.750000 0.750000
vt 0.625000 0.750000
vt 0.625000 0.500000
vt 0.750000 0.500000
vt 0.875000 0.750000
vt 0.875000 1.000000
vt 0.750000 1.000000
vt 0.750000 0.750000
vt 0.750000 0.750000
vt 0.750000 1.000000
vt 0.625000 1.000000
vt 0.625000 0.750000
vt 0.500000 0.750000
vt 0.500000 0.500000
vt 0.625000 0.500000
vt 0.625000 0.750000
vn -0.0000 -0.0005 1.0000
vn -1.0000 0.0000 0.0000
vn 0.0000 0.0005 -1.0000
vn 0.0000 -1.0000 -0.0005
vn -0.0000 1.0000 0.0005
vn 0.0002 -0.0000 1.0000
vn 1.0000 0.0000 -0.0002
vn -0.0000 -1.0000 -0.0000
vn -0.0002 0.0000 1.0000
vn -1.0000 0.0000 -0.0002
vn 0.0002 -0.0000 -1.0000
vn 0.0000 1.0000 -0.0000
vn 0.0000 0.0000 1.0000
vn 0.0000 0.0000 -1.0000
vn 1.0000 -0.0000 0.0000
vn 1.0000 -0.0000 0.0002
vn -0.0002 0.0000 -1.0000
vn -1.0000 0.0000 0.0002
usemtl Character
s off
f 59/1/1 3/2/1 1/3/1 22/4/1
f 65/5/2 4/6/2 2/7/2 67/8/2
f 69/9/3 57/10/3 63/11/3 71/12/3
f 21/13/4 61/14/4 68/15/4 72/16/4
f 70/17/5 66/18/5 24/19/5 23/20/5
f 48/21/2 145/22/2 46/23/2 135/24/2
f 7/25/6 6/26/6 10/27/6 11/28/6
f 8/29/7 77/30/7 79/31/7 12/32/7
f 33/33/8 34/34/8 13/35/8 14/36/8
f 15/37/2 16/38/2 99/39/2 93/40/2
f 103/41/9 19/42/9 17/43/9 38/44/9
f 109/45/10 20/46/10 18/47/10 111/48/10
f 113/49/11 101/50/11 107/51/11 115/52/11
f 37/53/8 105/54/8 112/55/8 116/56/8
f 114/57/12 110/58/12 40/59/12 39/60/12
f 35/61/13 95/62/13 94/63/13 89/64/13
f 149/65/14 43/66/14 45/67/14 151/68/14
f 97/69/14 141/70/14 91/71/14 100/72/14
f 25/73/8 28/74/8 27/75/8 26/76/8
f 32/77/12 29/78/12 30/79/12 31/80/12
f 47/81/13 139/82/13 44/83/13 42/84/13
f 36/85/15 133/86/15 90/87/15 92/88/15
f 137/89/15 143/90/15 147/91/15 41/92/15
f 60/93/15 62/94/15 64/95/15 58/96/15
f 104/97/16 106/98/16 108/99/16 102/100/16
f 98/101/12 96/102/12 134/103/12 142/104/12
f 5/105/17 85/106/17 87/107/17 9/108/17
f 81/109/18 73/110/18 75/111/18 83/112/18
f 125/113/16 127/114/16 131/115/16 129/116/16
f 74/117/12 82/118/12 78/119/12 86/120/12
f 130/121/11 132/122/11 123/123/11 117/124/11
f 146/125/8 148/126/8 144/127/8 140/128/8
f 118/129/10 124/130/10 121/131/10 119/132/10
f 88/133/8 80/134/8 84/135/8 76/136/8
f 120/137/9 122/138/9 128/139/9 126/140/9
f 150/141/12 152/142/12 136/143/12 138/144/12
f 155/145/9 51/146/9 49/147/9 54/148/9
f 161/149/10 52/150/10 50/151/10 163/152/10
f 165/153/11 153/154/11 159/155/11 167/156/11
f 53/157/8 157/158/8 164/159/8 168/160/8
f 166/161/12 162/162/12 56/163/12 55/164/12
f 156/165/16 158/166/16 160/167/16 154/168/16
