# Blender v2.79 (sub 0) OBJ File: 'Fortnite car 1_2.blend'
# www.blender.org
mtllib Fortnite_car_3.mtl
o solid_3.001
v 0.495618 0.254344 0.500000
v 0.495618 0.254344 -0.500000
v 0.491255 0.754325 -0.166666
v 0.491255 0.754325 0.500000
v -0.504344 0.245618 -0.500000
v -0.504344 0.245618 0.500000
v -0.508707 0.745599 0.500000
v -0.508707 0.745599 -0.166666
v -0.504344 0.245618 0.500000
v 0.495618 0.254344 0.500000
v 0.491255 0.754325 0.500000
v -0.508707 0.745599 0.500000
v 0.495618 0.254344 -0.500000
v -0.504344 0.245618 -0.500000
v -0.508707 0.745599 -0.166666
v 0.491255 0.754325 -0.166666
v 0.491255 0.754325 0.500000
v 0.491255 0.754325 -0.166666
v -0.508707 0.745599 -0.166666
v -0.508707 0.745599 0.500000
v -0.504344 0.245618 0.500000
v -0.504344 0.245618 -0.500000
v 0.495618 0.254344 -0.500000
v 0.495618 0.254344 0.500000
vn 1.0000 0.0087 -0.0000
vn -1.0000 -0.0087 0.0000
vn 0.0000 0.0000 1.0000
vn -0.0048 0.5547 -0.8321
vn -0.0087 1.0000 0.0000
vn 0.0087 -1.0000 -0.0000
usemtl None
s off
f 1//1 2//1 3//1 4//1
f 5//2 6//2 7//2 8//2
f 9//3 10//3 11//3 12//3
f 13//4 14//4 15//4 16//4
f 17//5 18//5 19//5 20//5
f 21//6 22//6 23//6 24//6
o solid_16.001
v 0.501617 -0.433130 0.750000
v 0.501072 -0.370632 0.687500
v 0.499981 -0.245637 0.687500
v 0.499436 -0.183139 0.750000
v 0.313579 -0.372268 0.687500
v 0.314124 -0.434766 0.750000
v 0.311943 -0.184775 0.750000
v 0.312488 -0.247273 0.687500
v 0.314124 -0.434766 0.750000
v 0.501617 -0.433130 0.750000
v 0.499436 -0.183139 0.750000
v 0.311943 -0.184775 0.750000
v 0.501072 -0.370632 0.687500
v 0.313579 -0.372268 0.687500
v 0.312488 -0.247273 0.687500
v 0.499981 -0.245637 0.687500
v 0.499436 -0.183139 0.750000
v 0.499981 -0.245637 0.687500
v 0.312488 -0.247273 0.687500
v 0.311943 -0.184775 0.750000
v 0.314124 -0.434766 0.750000
v 0.313579 -0.372268 0.687500
v 0.501072 -0.370632 0.687500
v 0.501617 -0.433130 0.750000
vn 1.0000 0.0087 -0.0000
vn -1.0000 -0.0087 -0.0000
vn -0.0000 0.0000 1.0000
vn 0.0000 0.0000 -1.0000
vn -0.0062 0.7071 -0.7071
vn 0.0062 -0.7071 -0.7071
usemtl None
s off
f 25//7 26//7 27//7 28//7
f 29//8 30//8 31//8 32//8
f 33//9 34//9 35//9 36//9
f 37//10 38//10 39//10 40//10
f 41//11 42//11 43//11 44//11
f 45//12 46//12 47//12 48//12
o solid_11.001
v 0.502163 -0.495627 -0.750000
v 0.502163 -0.495627 -0.875000
v 0.501617 -0.433130 -0.937500
v 0.501617 -0.433130 -0.687500
v 0.314670 -0.497263 -0.875000
v 0.314670 -0.497263 -0.750000
v 0.314124 -0.434766 -0.687500
v 0.314124 -0.434766 -0.937500
v 0.314670 -0.497263 -0.750000
v 0.502163 -0.495627 -0.750000
v 0.501617 -0.433130 -0.687500
v 0.314124 -0.434766 -0.687500
v 0.502163 -0.495627 -0.875000
v 0.314670 -0.497263 -0.875000
v 0.314124 -0.434766 -0.937500
v 0.501617 -0.433130 -0.937500
v 0.501617 -0.433130 -0.687500
v 0.501617 -0.433130 -0.937500
v 0.314124 -0.434766 -0.937500
v 0.314124 -0.434766 -0.687500
v 0.314670 -0.497263 -0.750000
v 0.314670 -0.497263 -0.875000
v 0.502163 -0.495627 -0.875000
v 0.502163 -0.495627 -0.750000
vn 1.0000 0.0087 0.0000
vn -1.0000 -0.0087 0.0000
vn 0.0062 -0.7071 0.7071
vn 0.0062 -0.7071 -0.7071
vn -0.0087 1.0000 0.0000
vn 0.0087 -1.0000 0.0000
usemtl None
s off
f 49//13 50//13 51//13 52//13
f 53//14 54//14 55//14 56//14
f 57//15 58//15 59//15 60//15
f 61//16 62//16 63//16 64//16
f 65//17 66//17 67//17 68//17
f 69//18 70//18 71//18 72//18
o solid_21.001
v -0.310852 -0.440220 -0.937500
v -0.311397 -0.377722 -1.000000
v -0.312488 -0.252727 -1.000000
v -0.313034 -0.190229 -0.937500
v -0.498890 -0.379358 -1.000000
v -0.498345 -0.441856 -0.937500
v -0.500526 -0.191866 -0.937500
v -0.499981 -0.254363 -1.000000
v -0.498345 -0.441856 -0.937500
v -0.310852 -0.440220 -0.937500
v -0.313034 -0.190229 -0.937500
v -0.500526 -0.191866 -0.937500
v -0.311397 -0.377722 -1.000000
v -0.498890 -0.379358 -1.000000
v -0.499981 -0.254363 -1.000000
v -0.312488 -0.252727 -1.000000
v -0.313034 -0.190229 -0.937500
v -0.312488 -0.252727 -1.000000
v -0.499981 -0.254363 -1.000000
v -0.500526 -0.191866 -0.937500
v -0.498345 -0.441856 -0.937500
v -0.498890 -0.379358 -1.000000
v -0.311397 -0.377722 -1.000000
v -0.310852 -0.440220 -0.937500
vn 1.0000 0.0087 0.0000
vn -1.0000 -0.0087 0.0000
vn -0.0000 0.0000 1.0000
vn 0.0000 0.0000 -1.0000
vn -0.0062 0.7071 -0.7071
vn 0.0062 -0.7071 -0.7071
usemtl None
s off
f 73//19 74//19 75//19 76//19
f 77//20 78//20 79//20 80//20
f 81//21 82//21 83//21 84//21
f 85//22 86//22 87//22 88//22
f 89//23 90//23 91//23 92//23
f 93//24 94//24 95//24 96//24
o solid_20.001
v -0.311397 -0.377722 -0.625000
v -0.310852 -0.440220 -0.687500
v -0.313034 -0.190229 -0.687500
v -0.312488 -0.252727 -0.625000
v -0.498345 -0.441856 -0.687500
v -0.498890 -0.379358 -0.625000
v -0.499981 -0.254363 -0.625000
v -0.500526 -0.191866 -0.687500
v -0.498890 -0.379358 -0.625000
v -0.311397 -0.377722 -0.625000
v -0.312488 -0.252727 -0.625000
v -0.499981 -0.254363 -0.625000
v -0.310852 -0.440220 -0.687500
v -0.498345 -0.441856 -0.687500
v -0.500526 -0.191866 -0.687500
v -0.313034 -0.190229 -0.687500
v -0.312488 -0.252727 -0.625000
v -0.313034 -0.190229 -0.687500
v -0.500526 -0.191866 -0.687500
v -0.499981 -0.254363 -0.625000
v -0.498890 -0.379358 -0.625000
v -0.498345 -0.441856 -0.687500
v -0.310852 -0.440220 -0.687500
v -0.311397 -0.377722 -0.625000
vn 1.0000 0.0087 -0.0000
vn -1.0000 -0.0087 0.0000
vn 0.0000 0.0000 1.0000
vn -0.0000 0.0000 -1.0000
vn -0.0062 0.7071 0.7071
vn 0.0062 -0.7071 0.7071
usemtl None
s off
f 97//25 98//25 99//25 100//25
f 101//26 102//26 103//26 104//26
f 105//27 106//27 107//27 108//27
f 109//28 110//28 111//28 112//28
f 113//29 114//29 115//29 116//29
f 117//30 118//30 119//30 120//30
o solid_25.001
v -0.311397 -0.377722 1.062500
v -0.310852 -0.440220 1.000000
v -0.313033 -0.190229 1.000000
v -0.312488 -0.252727 1.062500
v -0.498345 -0.441856 1.000000
v -0.498890 -0.379358 1.062500
v -0.499981 -0.254363 1.062500
v -0.500526 -0.191866 1.000000
v -0.498890 -0.379358 1.062500
v -0.311397 -0.377722 1.062500
v -0.312488 -0.252727 1.062500
v -0.499981 -0.254363 1.062500
v -0.310852 -0.440220 1.000000
v -0.498345 -0.441856 1.000000
v -0.500526 -0.191866 1.000000
v -0.313033 -0.190229 1.000000
v -0.312488 -0.252727 1.062500
v -0.313033 -0.190229 1.000000
v -0.500526 -0.191866 1.000000
v -0.499981 -0.254363 1.062500
v -0.498890 -0.379358 1.062500
v -0.498345 -0.441856 1.000000
v -0.310852 -0.440220 1.000000
v -0.311397 -0.377722 1.062500
vn 1.0000 0.0087 -0.0000
vn -1.0000 -0.0087 0.0000
vn -0.0000 0.0000 1.0000
vn 0.0000 0.0000 -1.0000
vn -0.0062 0.7071 0.7071
vn 0.0062 -0.7071 0.7071
usemtl None
s off
f 121//31 122//31 123//31 124//31
f 125//32 126//32 127//32 128//32
f 129//33 130//33 131//33 132//33
f 133//34 134//34 135//34 136//34
f 137//35 138//35 139//35 140//35
f 141//36 142//36 143//36 144//36
o solid_17.001
v 0.502163 -0.495627 0.937500
v 0.502163 -0.495627 0.812500
v 0.501617 -0.433130 0.750000
v 0.501617 -0.433130 1.000000
v 0.314670 -0.497263 0.812500
v 0.314670 -0.497263 0.937500
v 0.314124 -0.434766 1.000000
v 0.314124 -0.434766 0.750000
v 0.314670 -0.497263 0.937500
v 0.502163 -0.495627 0.937500
v 0.501617 -0.433130 1.000000
v 0.314124 -0.434766 1.000000
v 0.502163 -0.495627 0.812500
v 0.314670 -0.497263 0.812500
v 0.314124 -0.434766 0.750000
v 0.501617 -0.433130 0.750000
v 0.501617 -0.433130 1.000000
v 0.501617 -0.433130 0.750000
v 0.314124 -0.434766 0.750000
v 0.314124 -0.434766 1.000000
v 0.314670 -0.497263 0.937500
v 0.314670 -0.497263 0.812500
v 0.502163 -0.495627 0.812500
v 0.502163 -0.495627 0.937500
vn 1.0000 0.0087 0.0000
vn -1.0000 -0.0087 0.0000
vn 0.0062 -0.7071 0.7071
vn 0.0062 -0.7071 -0.7071
vn -0.0087 1.0000 0.0000
vn 0.0087 -1.0000 0.0000
usemtl None
s off
f 145//37 146//37 147//37 148//37
f 149//38 150//38 151//38 152//38
f 153//39 154//39 155//39 156//39
f 157//40 158//40 159//40 160//40
f 161//41 162//41 163//41 164//41
f 165//42 166//42 167//42 168//42
o solid_24.001
v -0.310852 -0.440220 1.000000
v -0.310852 -0.440220 0.750000
v -0.313033 -0.190229 0.750000
v -0.313033 -0.190229 1.000000
v -0.498345 -0.441856 0.750000
v -0.498345 -0.441856 1.000000
v -0.500526 -0.191866 1.000000
v -0.500526 -0.191866 0.750000
v -0.498345 -0.441856 1.000000
v -0.310852 -0.440220 1.000000
v -0.313033 -0.190229 1.000000
v -0.500526 -0.191866 1.000000
v -0.310852 -0.440220 0.750000
v -0.498345 -0.441856 0.750000
v -0.500526 -0.191866 0.750000
v -0.313033 -0.190229 0.750000
v -0.313033 -0.190229 1.000000
v -0.313033 -0.190229 0.750000
v -0.500526 -0.191866 0.750000
v -0.500526 -0.191866 1.000000
v -0.498345 -0.441856 1.000000
v -0.498345 -0.441856 0.750000
v -0.310852 -0.440220 0.750000
v -0.310852 -0.440220 1.000000
vn 1.0000 0.0087 0.0000
vn -1.0000 -0.0087 0.0000
vn 0.0000 0.0000 1.0000
vn -0.0000 0.0000 -1.0000
vn -0.0087 1.0000 0.0000
vn 0.0087 -1.0000 0.0000
usemtl None
s off
f 169//43 170//43 171//43 172//43
f 173//44 174//44 175//44 176//44
f 177//45 178//45 179//45 180//45
f 181//46 182//46 183//46 184//46
f 185//47 186//47 187//47 188//47
f 189//48 190//48 191//48 192//48
o solid_2.001
v 0.499436 -0.183139 1.250000
v 0.499981 -0.245637 -1.250000
v 0.495618 0.254344 -1.118421
v 0.495618 0.254344 1.250000
v -0.499981 -0.254363 -1.250000
v -0.500526 -0.191866 1.250000
v -0.504344 0.245618 1.250000
v -0.504344 0.245618 -1.118421
v -0.500526 -0.191866 1.250000
v 0.499436 -0.183139 1.250000
v 0.495618 0.254344 1.250000
v -0.504344 0.245618 1.250000
v 0.499981 -0.245637 -1.250000
v -0.499981 -0.254363 -1.250000
v -0.504344 0.245618 -1.118421
v 0.495618 0.254344 -1.118421
v 0.495618 0.254344 1.250000
v 0.495618 0.254344 -1.118421
v -0.504344 0.245618 -1.118421
v -0.504344 0.245618 1.250000
v -0.500526 -0.191866 1.250000
v -0.499981 -0.254363 -1.250000
v 0.499981 -0.245637 -1.250000
v 0.499436 -0.183139 1.250000
vn 1.0000 0.0087 -0.0000
vn -1.0000 -0.0087 0.0000
vn -0.0000 0.0000 1.0000
vn -0.0022 0.2545 -0.9671
vn -0.0087 1.0000 0.0000
vn 0.0087 -0.9996 0.0250
usemtl None
s off
f 193//49 194//49 195//49 196//49
f 197//50 198//50 199//50 200//50
f 201//51 202//51 203//51 204//51
f 205//52 206//52 207//52 208//52
f 209//53 210//53 211//53 212//53
f 213//54 214//54 215//54 216//54
o solid_14.001
v 0.501617 -0.433130 1.000000
v 0.501617 -0.433130 0.750000
v 0.499436 -0.183139 0.750000
v 0.499436 -0.183139 1.000000
v 0.314124 -0.434766 0.750000
v 0.314124 -0.434766 1.000000
v 0.311943 -0.184775 1.000000
v 0.311943 -0.184775 0.750000
v 0.314124 -0.434766 1.000000
v 0.501617 -0.433130 1.000000
v 0.499436 -0.183139 1.000000
v 0.311943 -0.184775 1.000000
v 0.501617 -0.433130 0.750000
v 0.314124 -0.434766 0.750000
v 0.311943 -0.184775 0.750000
v 0.499436 -0.183139 0.750000
v 0.499436 -0.183139 1.000000
v 0.499436 -0.183139 0.750000
v 0.311943 -0.184775 0.750000
v 0.311943 -0.184775 1.000000
v 0.314124 -0.434766 1.000000
v 0.314124 -0.434766 0.750000
v 0.501617 -0.433130 0.750000
v 0.501617 -0.433130 1.000000
vn 1.0000 0.0087 0.0000
vn -1.0000 -0.0087 0.0000
vn 0.0000 0.0000 1.0000
vn 0.0000 0.0000 -1.0000
vn -0.0087 1.0000 0.0000
vn 0.0087 -1.0000 0.0000
usemtl None
s off
f 217//55 218//55 219//55 220//55
f 221//56 222//56 223//56 224//56
f 225//57 226//57 227//57 228//57
f 229//58 230//58 231//58 232//58
f 233//59 234//59 235//59 236//59
f 237//60 238//60 239//60 240//60
o solid_15.001
v 0.501072 -0.370632 1.062500
v 0.501617 -0.433130 1.000000
v 0.499436 -0.183139 1.000000
v 0.499981 -0.245637 1.062500
v 0.314124 -0.434766 1.000000
v 0.313579 -0.372268 1.062500
v 0.312488 -0.247273 1.062500
v 0.311943 -0.184775 1.000000
v 0.313579 -0.372268 1.062500
v 0.501072 -0.370632 1.062500
v 0.499981 -0.245637 1.062500
v 0.312488 -0.247273 1.062500
v 0.501617 -0.433130 1.000000
v 0.314124 -0.434766 1.000000
v 0.311943 -0.184775 1.000000
v 0.499436 -0.183139 1.000000
v 0.499981 -0.245637 1.062500
v 0.499436 -0.183139 1.000000
v 0.311943 -0.184775 1.000000
v 0.312488 -0.247273 1.062500
v 0.313579 -0.372268 1.062500
v 0.314124 -0.434766 1.000000
v 0.501617 -0.433130 1.000000
v 0.501072 -0.370632 1.062500
vn 1.0000 0.0087 -0.0000
vn -1.0000 -0.0087 0.0000
vn -0.0000 0.0000 1.0000
vn 0.0000 0.0000 -1.0000
vn -0.0062 0.7071 0.7071
vn 0.0062 -0.7071 0.7071
usemtl None
s off
f 241//61 242//61 243//61 244//61
f 245//62 246//62 247//62 248//62
f 249//63 250//63 251//63 252//63
f 253//64 254//64 255//64 256//64
f 257//65 258//65 259//65 260//65
f 261//66 262//66 263//66 264//66
o solid_27.001
v -0.310306 -0.502717 0.937500
v -0.310306 -0.502717 0.812500
v -0.310852 -0.440220 0.750000
v -0.310852 -0.440220 1.000000
v -0.497799 -0.504354 0.812500
v -0.497799 -0.504354 0.937500
v -0.498345 -0.441856 1.000000
v -0.498345 -0.441856 0.750000
v -0.497799 -0.504354 0.937500
v -0.310306 -0.502717 0.937500
v -0.310852 -0.440220 1.000000
v -0.498345 -0.441856 1.000000
v -0.310306 -0.502717 0.812500
v -0.497799 -0.504354 0.812500
v -0.498345 -0.441856 0.750000
v -0.310852 -0.440220 0.750000
v -0.310852 -0.440220 1.000000
v -0.310852 -0.440220 0.750000
v -0.498345 -0.441856 0.750000
v -0.498345 -0.441856 1.000000
v -0.497799 -0.504354 0.937500
v -0.497799 -0.504354 0.812500
v -0.310306 -0.502717 0.812500
v -0.310306 -0.502717 0.937500
vn 1.0000 0.0087 0.0000
vn -1.0000 -0.0087 0.0000
vn 0.0062 -0.7071 0.7071
vn 0.0062 -0.7071 -0.7071
vn -0.0087 1.0000 0.0000
vn 0.0087 -1.0000 0.0000
usemtl None
s off
f 265//67 266//67 267//67 268//67
f 269//68 270//68 271//68 272//68
f 273//69 274//69 275//69 276//69
f 277//70 278//70 279//70 280//70
f 281//71 282//71 283//71 284//71
f 285//72 286//72 287//72 288//72
o solid_10.001
v 0.501617 -0.433130 -0.937500
v 0.501072 -0.370632 -1.000000
v 0.499981 -0.245637 -1.000000
v 0.499436 -0.183139 -0.937500
v 0.313579 -0.372268 -1.000000
v 0.314124 -0.434766 -0.937500
v 0.311943 -0.184775 -0.937500
v 0.312488 -0.247273 -1.000000
v 0.314124 -0.434766 -0.937500
v 0.501617 -0.433130 -0.937500
v 0.499436 -0.183139 -0.937500
v 0.311943 -0.184775 -0.937500
v 0.501072 -0.370632 -1.000000
v 0.313579 -0.372268 -1.000000
v 0.312488 -0.247273 -1.000000
v 0.499981 -0.245637 -1.000000
v 0.499436 -0.183139 -0.937500
v 0.499981 -0.245637 -1.000000
v 0.312488 -0.247273 -1.000000
v 0.311943 -0.184775 -0.937500
v 0.314124 -0.434766 -0.937500
v 0.313579 -0.372268 -1.000000
v 0.501072 -0.370632 -1.000000
v 0.501617 -0.433130 -0.937500
vn 1.0000 0.0087 -0.0000
vn -1.0000 -0.0087 -0.0000
vn 0.0000 0.0000 1.0000
vn 0.0000 0.0000 -1.0000
vn -0.0062 0.7071 -0.7071
vn 0.0062 -0.7071 -0.7071
usemtl None
s off
f 289//73 290//73 291//73 292//73
f 293//74 294//74 295//74 296//74
f 297//75 298//75 299//75 300//75
f 301//76 302//76 303//76 304//76
f 305//77 306//77 307//77 308//77
f 309//78 310//78 311//78 312//78
o solid_26.001
v -0.310852 -0.440220 0.750000
v -0.311397 -0.377722 0.687500
v -0.312488 -0.252727 0.687500
v -0.313033 -0.190229 0.750000
v -0.498890 -0.379358 0.687500
v -0.498345 -0.441856 0.750000
v -0.500526 -0.191866 0.750000
v -0.499981 -0.254363 0.687500
v -0.498345 -0.441856 0.750000
v -0.310852 -0.440220 0.750000
v -0.313033 -0.190229 0.750000
v -0.500526 -0.191866 0.750000
v -0.311397 -0.377722 0.687500
v -0.498890 -0.379358 0.687500
v -0.499981 -0.254363 0.687500
v -0.312488 -0.252727 0.687500
v -0.313033 -0.190229 0.750000
v -0.312488 -0.252727 0.687500
v -0.499981 -0.254363 0.687500
v -0.500526 -0.191866 0.750000
v -0.498345 -0.441856 0.750000
v -0.498890 -0.379358 0.687500
v -0.311397 -0.377722 0.687500
v -0.310852 -0.440220 0.750000
vn 1.0000 0.0087 0.0000
vn -1.0000 -0.0087 0.0000
vn 0.0000 0.0000 1.0000
vn -0.0000 0.0000 -1.0000
vn -0.0062 0.7071 -0.7071
vn 0.0062 -0.7071 -0.7071
usemtl None
s off
f 313//79 314//79 315//79 316//79
f 317//80 318//80 319//80 320//80
f 321//81 322//81 323//81 324//81
f 325//82 326//82 327//82 328//82
f 329//83 330//83 331//83 332//83
f 333//84 334//84 335//84 336//84
o solid_6.001
v 0.501617 -0.433130 -0.687500
v 0.501617 -0.433130 -0.937500
v 0.499436 -0.183139 -0.937500
v 0.499436 -0.183139 -0.687500
v 0.314124 -0.434766 -0.937500
v 0.314124 -0.434766 -0.687500
v 0.311943 -0.184775 -0.687500
v 0.311943 -0.184775 -0.937500
v 0.314124 -0.434766 -0.687500
v 0.501617 -0.433130 -0.687500
v 0.499436 -0.183139 -0.687500
v 0.311943 -0.184775 -0.687500
v 0.501617 -0.433130 -0.937500
v 0.314124 -0.434766 -0.937500
v 0.311943 -0.184775 -0.937500
v 0.499436 -0.183139 -0.937500
v 0.499436 -0.183139 -0.687500
v 0.499436 -0.183139 -0.937500
v 0.311943 -0.184775 -0.937500
v 0.311943 -0.184775 -0.687500
v 0.314124 -0.434766 -0.687500
v 0.314124 -0.434766 -0.937500
v 0.501617 -0.433130 -0.937500
v 0.501617 -0.433130 -0.687500
vn 1.0000 0.0087 0.0000
vn -1.0000 -0.0087 0.0000
vn 0.0000 0.0000 1.0000
vn -0.0000 0.0000 -1.0000
vn -0.0087 1.0000 0.0000
vn 0.0087 -1.0000 0.0000
usemtl None
s off
f 337//85 338//85 339//85 340//85
f 341//86 342//86 343//86 344//86
f 345//87 346//87 347//87 348//87
f 349//88 350//88 351//88 352//88
f 353//89 354//89 355//89 356//89
f 357//90 358//90 359//90 360//90
o solid_22.001
v -0.310307 -0.502717 -0.750000
v -0.310307 -0.502717 -0.875000
v -0.310852 -0.440220 -0.937500
v -0.310852 -0.440220 -0.687500
v -0.497799 -0.504354 -0.875000
v -0.497799 -0.504354 -0.750000
v -0.498345 -0.441856 -0.687500
v -0.498345 -0.441856 -0.937500
v -0.497799 -0.504354 -0.750000
v -0.310307 -0.502717 -0.750000
v -0.310852 -0.440220 -0.687500
v -0.498345 -0.441856 -0.687500
v -0.310307 -0.502717 -0.875000
v -0.497799 -0.504354 -0.875000
v -0.498345 -0.441856 -0.937500
v -0.310852 -0.440220 -0.937500
v -0.310852 -0.440220 -0.687500
v -0.310852 -0.440220 -0.937500
v -0.498345 -0.441856 -0.937500
v -0.498345 -0.441856 -0.687500
v -0.497799 -0.504354 -0.750000
v -0.497799 -0.504354 -0.875000
v -0.310307 -0.502717 -0.875000
v -0.310307 -0.502717 -0.750000
vn 1.0000 0.0087 0.0000
vn -1.0000 -0.0087 0.0000
vn 0.0062 -0.7071 0.7071
vn 0.0062 -0.7071 -0.7071
vn -0.0087 1.0000 0.0000
vn 0.0087 -1.0000 0.0000
usemtl None
s off
f 361//91 362//91 363//91 364//91
f 365//92 366//92 367//92 368//92
f 369//93 370//93 371//93 372//93
f 373//94 374//94 375//94 376//94
f 377//95 378//95 379//95 380//95
f 381//96 382//96 383//96 384//96
o solid_8.001
v 0.501072 -0.370632 -0.625000
v 0.501617 -0.433130 -0.687500
v 0.499436 -0.183139 -0.687500
v 0.499981 -0.245637 -0.625000
v 0.314124 -0.434766 -0.687500
v 0.313579 -0.372268 -0.625000
v 0.312488 -0.247273 -0.625000
v 0.311943 -0.184775 -0.687500
v 0.313579 -0.372268 -0.625000
v 0.501072 -0.370632 -0.625000
v 0.499981 -0.245637 -0.625000
v 0.312488 -0.247273 -0.625000
v 0.501617 -0.433130 -0.687500
v 0.314124 -0.434766 -0.687500
v 0.311943 -0.184775 -0.687500
v 0.499436 -0.183139 -0.687500
v 0.499981 -0.245637 -0.625000
v 0.499436 -0.183139 -0.687500
v 0.311943 -0.184775 -0.687500
v 0.312488 -0.247273 -0.625000
v 0.313579 -0.372268 -0.625000
v 0.314124 -0.434766 -0.687500
v 0.501617 -0.433130 -0.687500
v 0.501072 -0.370632 -0.625000
vn 1.0000 0.0087 0.0000
vn -1.0000 -0.0087 0.0000
vn -0.0000 0.0000 1.0000
vn 0.0000 0.0000 -1.0000
vn -0.0062 0.7071 0.7071
vn 0.0062 -0.7071 0.7071
usemtl None
s off
f 385//97 386//97 387//97 388//97
f 389//98 390//98 391//98 392//98
f 393//99 394//99 395//99 396//99
f 397//100 398//100 399//100 400//100
f 401//101 402//101 403//101 404//101
f 405//102 406//102 407//102 408//102
o solid_19.001
v -0.310852 -0.440220 -0.687500
v -0.310852 -0.440220 -0.937500
v -0.313034 -0.190229 -0.937500
v -0.313034 -0.190229 -0.687500
v -0.498345 -0.441856 -0.937500
v -0.498345 -0.441856 -0.687500
v -0.500526 -0.191866 -0.687500
v -0.500526 -0.191866 -0.937500
v -0.498345 -0.441856 -0.687500
v -0.310852 -0.440220 -0.687500
v -0.313034 -0.190229 -0.687500
v -0.500526 -0.191866 -0.687500
v -0.310852 -0.440220 -0.937500
v -0.498345 -0.441856 -0.937500
v -0.500526 -0.191866 -0.937500
v -0.313034 -0.190229 -0.937500
v -0.313034 -0.190229 -0.687500
v -0.313034 -0.190229 -0.937500
v -0.500526 -0.191866 -0.937500
v -0.500526 -0.191866 -0.687500
v -0.498345 -0.441856 -0.687500
v -0.498345 -0.441856 -0.937500
v -0.310852 -0.440220 -0.937500
v -0.310852 -0.440220 -0.687500
vn 1.0000 0.0087 0.0000
vn -1.0000 -0.0087 0.0000
vn 0.0000 0.0000 1.0000
vn 0.0000 0.0000 -1.0000
vn -0.0087 1.0000 0.0000
vn 0.0087 -1.0000 0.0000
usemtl None
s off
f 409//103 410//103 411//103 412//103
f 413//104 414//104 415//104 416//104
f 417//105 418//105 419//105 420//105
f 421//106 422//106 423//106 424//106
f 425//107 426//107 427//107 428//107
f 429//108 430//108 431//108 432//108
o solid_4.001
v 0.495618 0.254344 0.875000
v 0.495618 0.254344 0.500000
v 0.491255 0.754325 0.500000
v 0.491255 0.754325 0.750000
v -0.504344 0.245618 0.500000
v -0.504344 0.245618 0.875000
v -0.508707 0.745599 0.750000
v -0.508707 0.745599 0.500000
v -0.504344 0.245618 0.875000
v 0.495618 0.254344 0.875000
v 0.491255 0.754325 0.750000
v -0.508707 0.745599 0.750000
v 0.495618 0.254344 0.500000
v -0.504344 0.245618 0.500000
v -0.508707 0.745599 0.500000
v 0.491255 0.754325 0.500000
v 0.491255 0.754325 0.750000
v 0.491255 0.754325 0.500000
v -0.508707 0.745599 0.500000
v -0.508707 0.745599 0.750000
v -0.504344 0.245618 0.875000
v -0.504344 0.245618 0.500000
v 0.495618 0.254344 0.500000
v 0.495618 0.254344 0.875000
vn 1.0000 0.0087 0.0000
vn -1.0000 -0.0087 0.0000
vn -0.0021 0.2425 0.9701
vn -0.0000 -0.0000 -1.0000
vn -0.0087 1.0000 0.0000
vn 0.0087 -1.0000 0.0000
usemtl None
s off
f 433//109 434//109 435//109 436//109
f 437//110 438//110 439//110 440//110
f 441//111 442//111 443//111 444//111
f 445//112 446//112 447//112 448//112
f 449//113 450//113 451//113 452//113
f 453//114 454//114 455//114 456//114
o solid_5.001
v 0.499981 -0.245637 -1.250000
v 0.499981 -0.245637 -1.375000
v 0.498890 -0.120642 -1.375000
v 0.498890 -0.120642 -1.250000
v -0.499981 -0.254363 -1.375000
v -0.499981 -0.254363 -1.250000
v -0.501072 -0.129368 -1.250000
v -0.501072 -0.129368 -1.375000
v -0.499981 -0.254363 -1.250000
v 0.499981 -0.245637 -1.250000
v 0.498890 -0.120642 -1.250000
v -0.501072 -0.129368 -1.250000
v 0.499981 -0.245637 -1.375000
v -0.499981 -0.254363 -1.375000
v -0.501072 -0.129368 -1.375000
v 0.498890 -0.120642 -1.375000
v 0.498890 -0.120642 -1.250000
v 0.498890 -0.120642 -1.375000
v -0.501072 -0.129368 -1.375000
v -0.501072 -0.129368 -1.250000
v -0.499981 -0.254363 -1.250000
v -0.499981 -0.254363 -1.375000
v 0.499981 -0.245637 -1.375000
v 0.499981 -0.245637 -1.250000
vn 1.0000 0.0087 0.0000
vn -1.0000 -0.0087 0.0000
vn -0.0000 0.0000 1.0000
vn -0.0000 0.0000 -1.0000
vn -0.0087 1.0000 0.0000
vn 0.0087 -1.0000 0.0000
usemtl None
s off
f 457//115 458//115 459//115 460//115
f 461//116 462//116 463//116 464//116
f 465//117 466//117 467//117 468//117
f 469//118 470//118 471//118 472//118
f 473//119 474//119 475//119 476//119
f 477//120 478//120 479//120 480//120
